<svg width="41" height="40" viewBox="0 0 41 40" fill="none" xmlns="http://www.w3.org/2000/svg">
<path d="M20.0484 40C17.1298 40 14.317 39.3891 11.6838 38.181C10.9702 37.8548 10.6572 37.0142 10.9887 36.3023C11.3155 35.5903 12.158 35.2779 12.8715 35.6086C15.1273 36.6422 17.5441 37.1704 20.0484 37.1704C29.5363 37.1704 37.2519 29.4672 37.2519 20.0046C37.2519 10.542 29.5363 2.83418 20.0484 2.83418C10.5605 2.83418 2.84499 10.5374 2.84499 20C2.84499 23.1465 3.70585 26.2196 5.33091 28.893C5.73602 29.5636 5.52425 30.4318 4.85214 30.8406C4.18002 31.2448 3.30995 31.0335 2.90023 30.3629C1.00357 27.2439 0 23.661 0 20C0.00460355 8.97106 8.99993 0 20.0484 0C31.097 0 40.0923 8.97106 40.0923 20C40.0923 31.0289 31.1016 40 20.0484 40Z" fill="black"/>
<path d="M26.0359 11.5278C26.9336 11.5278 27.6563 10.802 27.6563 9.91085C27.6563 9.01972 26.929 8.29395 26.0359 8.29395C25.1428 8.29395 24.4154 9.01972 24.4154 9.91085C24.4154 9.943 24.4246 9.97516 24.4246 10.0073C23.0298 8.93703 21.2896 8.29395 19.393 8.29395C14.8263 8.29395 11.125 11.9871 11.125 16.5438C11.125 21.1006 14.8263 24.7937 19.393 24.7937C23.9597 24.7937 27.6609 21.1006 27.6609 16.5438C27.6609 14.6513 27.0164 12.915 25.9438 11.5232C25.976 11.5232 26.0083 11.5323 26.0405 11.5323L26.0359 11.5278ZM19.3884 22.0376C16.3454 22.0376 13.8779 19.5755 13.8779 16.5392C13.8779 13.5029 16.3454 11.0408 19.3884 11.0408C22.4313 11.0408 24.8988 13.5029 24.8988 16.5392C24.8988 19.5755 22.4313 22.0376 19.3884 22.0376Z" fill="black"/>
<path d="M7.61865 35.1649C8.37885 35.1649 8.99511 34.55 8.99511 33.7914C8.99511 33.0329 8.37885 32.418 7.61865 32.418C6.85845 32.418 6.24219 33.0329 6.24219 33.7914C6.24219 34.55 6.85845 35.1649 7.61865 35.1649Z" fill="#84CC16"/>
<path d="M23.5711 26.1154C23.5711 25.3713 24.1742 24.7695 24.92 24.7695C25.6658 24.7695 26.2688 25.3713 26.2688 26.1154V26.4737C26.2734 29.51 23.8059 31.9721 20.763 31.9721L16.9697 31.8297C16.2377 31.8297 15.6484 31.2371 15.6484 30.5114C15.6484 29.7856 16.2423 29.1931 16.9697 29.1931H20.5374C22.2131 29.1931 23.5711 27.838 23.5711 26.1659V26.1154Z" fill="#84CC16"/>
</svg>
