<?xml version="1.0" encoding="UTF-8"?>
<!DOCTYPE svg PUBLIC "-//W3C//DTD SVG 1.1//EN" "http://www.w3.org/Graphics/SVG/1.1/DTD/svg11.dtd">
<!-- Creator: CorelDRAW -->
<svg xmlns="http://www.w3.org/2000/svg" xml:space="preserve" width="1.99999in" height="1.99999in" version="1.1" style="shape-rendering:geometricPrecision; text-rendering:geometricPrecision; image-rendering:optimizeQuality; fill-rule:evenodd; clip-rule:evenodd"
viewBox="0 0 2000 2000"
 xmlns:xlink="http://www.w3.org/1999/xlink">
 <defs>
  <style type="text/css">
   <![CDATA[
    .fil0 {fill:none}
    .fil1 {fill:black}
   ]]>
  </style>
 </defs>
 <rect class="fil0" width="2000" height="2000"/>
 <g id="Layer_x0020_1">
  <metadata id="CorelCorpID_0Corel-Layer"/>
  <path class="fil1" d="M1537 1295l-125 0c-31,0 -31,-47 0,-47l125 0c31,0 31,47 0,47zm-1317 45l96 -311c7,-24 29,-41 55,-41l74 0 121 -264c10,-21 30,-34 53,-34l103 0 67 -153c9,-21 30,-34 53,-34l316 0c24,0 44,13 53,34l68 153 102 0c23,0 43,13 53,33l121 265 74 0c26,0 48,16 55,41l96 311c41,3 73,37 73,78 0,44 -35,79 -78,79l-1550 0c-43,0 -78,-35 -78,-79 0,-41 32,-75 73,-78zm49 0l377 0 0 -343c-71,0 -59,10 -59,-127 0,-13 10,-24 23,-24l780 0c13,0 23,11 23,24 0,137 12,127 -59,127l0 343 377 0 -91 -297c-2,-5 -6,-8 -11,-8l-89 0c-9,0 -18,-5 -21,-14l-128 -278c-2,-4 -5,-7 -10,-7l-118 0c-9,0 -17,-5 -21,-14l-74 -166c-1,-4 -5,-7 -10,-7l-316 0c-5,0 -9,3 -10,7l-60 134 171 0c30,0 30,46 0,46l-324 0c-5,0 -8,3 -10,7l-128 278c-3,9 -12,14 -21,14l-89 0c-5,0 -9,3 -11,8l-91 297zm-44 46c-42,0 -42,64 0,64l1550 0c42,0 42,-64 0,-64l-1550 0zm408 -435l734 0 0 -58 -734 0 0 58zm595 46l0 343 79 0 0 -343 -79 0zm-410 343l364 0 0 -343 -364 0 0 343zm-125 0l79 0 0 -343 -79 0 0 343zm409 -696l-206 0c-31,0 -31,-47 0,-47l206 0c30,0 30,47 0,47zm148 182l-206 0c-31,0 -31,-47 0,-47l206 0c31,0 31,47 0,47zm-428 -9l-125 0c-31,0 -31,-47 0,-47l125 0c31,0 31,47 0,47zm-322 461l-125 0c-31,0 -31,-46 0,-46l125 0c31,0 31,46 0,46zm83 -120l-125 0c-31,0 -31,-46 0,-46l125 0c31,0 31,46 0,46zm988 -32l-125 0c-30,0 -30,-47 0,-47l125 0c31,0 31,47 0,47z"/>
 </g>
</svg>
