<?xml version="1.0" encoding="UTF-8" standalone="no"?>
<!-- Created with Inkscape (http://www.inkscape.org/) -->

<svg
   width="32.497177mm"
   height="22.223644mm"
   viewBox="0 0 32.497177 22.223644"
   version="1.1"
   id="svg1"
   xml:space="preserve"
   xmlns="http://www.w3.org/2000/svg"
   xmlns:svg="http://www.w3.org/2000/svg"><defs
     id="defs1"><filter
       style="color-interpolation-filters:sRGB"
       id="filter151"
       x="0"
       y="0"
       width="1"
       height="1"><feMorphology
         radius="4.3"
         in="SourceAlpha"
         result="result91"
         id="feMorphology150" /><feComposite
         operator="out"
         in="SourceGraphic"
         in2="result91"
         id="feComposite150" /><feGaussianBlur
         result="result0"
         stdDeviation="1.2"
         id="feGaussianBlur150" /><feDiffuseLighting
         diffuseConstant="1"
         id="feDiffuseLighting150"><feDistantLight
           elevation="66"
           azimuth="225"
           id="feDistantLight150" /></feDiffuseLighting><feBlend
         mode="multiply"
         in2="SourceGraphic"
         id="feBlend150" /><feComposite
         operator="in"
         in2="SourceAlpha"
         id="feComposite151" /></filter></defs><g
     id="layer-oc10-9"
     transform="matrix(0.26458333,0,0,0.26458334,1013.26,-742.40339)"><path
       id="path135"
       style="fill:#8d9391;stroke-width:6.10282;stroke-linecap:round;stroke-linejoin:round;filter:url(#filter151)"
       d="m 600.01399,666.07302 -3.64977,-0.15796 -3.37924,0.72219 -6.27007,4.11647 -3.25822,-0.0238 -4.66083,2.24102 -1.04104,1.41454 -2.58671,0.98144 -2.6622,2.20525 -0.79468,0.52847 -0.66357,0.52847 -0.79071,0.39734 -0.66356,0.39734 -0.92581,0.26622 -0.65959,0.52847 -0.79469,0.39734 -0.66356,0.26225 -0.92581,0.26622 -0.92581,0.39734 -0.79469,0.39734 -0.65959,0.26225 -1.05693,0.39734 -0.66357,0.39735 -0.65958,0.26622 -0.92581,0.39734 -0.66357,0.39337 h -0.65959 l -0.66356,0.26622 -0.65959,0.26622 h -0.66356 l -0.65959,0.26225 -0.79469,0.26622 -0.79469,0.13112 -0.65959,0.13112 -0.52846,0.53244 -0.39735,0.26225 -0.52846,0.39734 -0.53244,0.52847 -0.52847,0.52847 -0.52847,0.53244 -0.65959,0.52846 -0.53244,0.52847 -0.52846,0.52847 -0.65959,0.66356 -0.79469,0.65959 -0.79468,0.65959 -0.52847,0.39734 -0.79469,0.26622 -0.79468,0.39735 -0.65959,0.52846 -0.39735,0.39734 -0.65959,0.39735 -0.79468,0.26224 -0.92581,0.39735 -0.66357,0.39734 -0.65959,0.39734 -0.66356,0.39735 -0.92581,0.13112 -0.79071,0.66356 -0.79469,0.52847 -0.79469,0.39734 -0.52846,0.13113 -0.52847,0.26622 -0.79468,0.39337 -0.92581,0.26622 -0.79469,0.52846 -0.79469,0.66357 -0.65959,0.52846 -0.79468,0.26225 -0.65959,0.26622 -0.66357,0.52847 -0.79468,0.52846 -0.52847,0.26622 -0.65959,0.65959 -0.92581,0.39735 -0.66356,0.39734 -0.79072,0.52847 -0.79468,0.66356 -0.66357,0.52847 -0.65959,0.52846 -0.39734,0.39735 -0.92581,0.52846 -0.66356,0.39734 -0.65959,0.52847 -0.79469,0.26622 -0.65959,0.52847 -0.79468,0.39734 -0.92581,0.79469 -0.92581,0.39734 -0.66357,0.52847 -0.92581,0.52846 -0.52846,0.39735 -1.05694,0.52846 -0.79468,0.52847 -0.79469,0.39734 -0.79469,0.39735 -0.79071,0.52846 -0.79468,0.39735 -0.66357,0.52846 -0.79071,0.52847 -0.52847,0.39734 -0.66356,0.26622 -0.26622,0.26225 h -0.39337 -0.53244 -0.39337 -0.39734 l -0.79469,0.39734 -0.79469,-0.13112 -0.65959,-0.52847 -0.79468,-0.66356 -0.52847,-0.65959 -0.39734,-0.52847 -0.39735,-0.52846 -0.66356,-0.1351 -0.65959,-0.26225 -0.65959,-0.52846 -0.79469,-0.66357 -0.52846,-0.52846 -1.06091,-0.39735 -1.05693,-0.39734 -1.19203,-0.52847 -0.79469,-0.66356 -0.65959,-0.52847 -0.79468,-0.52846 -0.65959,-0.39735 -0.79469,-0.39734 -0.65959,-0.52847 -0.1351,-0.39734 0.1351,-0.52846 0.26225,-0.52847 v -0.39734 l -0.39735,-0.65959 -0.52846,-0.39735 h -1.05694 l -0.92581,0.39735 h -1.19203 l -1.19203,-0.39735 -1.05693,-0.79468 -0.79468,-0.79469 -0.52847,-1.5854 -0.13112,-0.53244 0.13112,-0.26225 0.39734,-0.52846 0.52847,-0.66357 0.39734,-0.52846 0.39734,-0.52847 0.52847,-0.66356 0.13112,-0.39337 0.26622,-0.26622 0.39735,-0.52847 0.26224,-0.39734 0.26622,-0.52847 0.26622,-0.66356 0.39337,-0.65959 0.39735,-0.52847 0.26622,-0.53244 0.52846,-0.92581 0.39735,-0.39734 0.26622,-0.52847 0.39337,-0.52846 0.39734,-0.26225 0.39734,-0.53244 0.39735,-0.52847 0.26622,-0.52846 0.26224,-0.39735 v -0.52846 l -0.13112,-0.39735 -0.13112,-0.39734 -0.1351,-0.39734 -0.13112,-0.39735 -0.13113,-0.26224 -0.26622,-0.52847 v -0.39734 -0.52847 l 0.39735,-0.66356 0.52846,-0.39735 0.66357,-0.39734 0.65959,-0.13112 0.52846,0.26622 0.53244,0.26224 0.65959,0.39735 0.52847,0.26622 0.79469,0.65959 0.26622,0.39734 0.52846,0.39734 0.39735,0.26622 0.65958,0.39337 0.66357,0.39735 0.65959,0.26622 0.66356,0.13112 0.92581,0.26622 0.79071,0.39734 0.79469,0.52847 0.66356,0.52847 0.65959,0.52846 0.92581,0.39735 0.52847,0.26622 0.79469,0.39734 0.79468,0.26225 0.65959,0.52846 0.66357,0.39735 0.65959,0.26622 0.52846,-0.1351 0.66357,-0.52847 0.39734,-0.52846 0.79469,-0.65959 0.9258,-1.06091 0.65959,-0.92581 0.39735,-0.52847 0.79468,-0.79468 -0.39734,-1.45428 v -1.32315 -0.92581 -0.92581 l -0.66356,-2.11784 -0.52847,-0.79071 -0.39734,-1.06091 -0.13113,-1.05693 -0.26622,-0.79469 -0.65958,-1.19203 -0.26622,-0.79071 v -0.26622 l -0.70154,-0.96652 -1.1238,-0.4941 -1.50344,0.0324 -1.86891,0.45999 -0.62339,0.96821 v 0.39734 l 0.13509,0.65959 0.26225,0.53244 0.1351,0.65959 0.39337,0.52847 0.26622,0.79468 0.26622,0.39735 v 0.65959 l 0.26224,0.53244 v 0.52846 l 0.1351,0.52847 -0.26622,0.52846 -0.39734,0.39735 -0.52847,0.13112 -0.52847,-0.13112 -0.66356,-0.26622 -0.52847,-0.26225 -0.65959,-0.39734 -0.53244,-0.26622 -0.65959,-0.52847 -0.66356,-0.52846 -0.52847,-0.39735 -0.52846,-0.52846 -0.65959,-0.39735 -0.66357,-0.39734 -0.39734,-0.52847 -0.52847,-0.52846 -0.39734,-0.39735 -0.26224,-0.52846 -0.39735,-0.52847 -0.13509,-0.1351 v -0.26224 l 0.3711,-2.0082 -2.33112,-1.61581 -4.04832,-1.03872 -1.95067,0.11115 -4.3404,-3.12821 -3.07137,-0.31199 -2.14289,-0.0457 -2.44582,0.74916 -2.18407,1.61283 -1.52352,-0.14718 -0.81718,0.33195 -4.28431,1.22415 -2.41079,0.56865 -3.00738,-0.16404 -2.05672,0.16824 -2.43085,0.26328 -2.48445,0.31956 -1.19042,0.39489 -0.97133,0.1048 -1.28086,0.36297 -1.45147,0.79148 -1.27068,0.42598 -1.30114,-0.11733 -1.7425,-0.76796 -1.68748,-0.90769 -1.24027,-0.14008 -1.37956,0.1979 -1.43834,0.1514 -1.259,0.98412 -0.44341,0.62862 0.0805,0.82157 0.45374,0.70867 0.39735,0.79469 v 0.39337 l 0.52846,0.66356 0.1351,0.79469 0.26225,0.92581 0.39734,0.92581 0.13112,0.79469 0.26622,0.65958 v 0.79469 l 0.13113,0.52847 0.13112,0.26622 0.26622,0.65959 v 0.92581 0.66356 0.52847 0.65959 l 0.39734,0.39734 0.26622,0.39734 0.13113,0.39735 v 0.52846 0.66357 0.52846 l 0.13112,0.65959 0.26622,0.39735 v 0.92581 l 0.13112,0.79468 0.13113,1.32316 0.26622,1.18805 v 1.58937 1.7205 l 0.26224,1.32315 0.1351,1.18806 0.26225,0.92581 0.26622,1.32315 0.26622,1.19203 0.39336,0.79469 v 1.32315 l 0.39735,1.45428 0.13509,1.19203 0.52847,1.18805 0.39734,1.32316 0.13113,1.32315 0.39734,0.92581 v 1.19203 l -0.39734,0.92581 -0.79469,0.13112 -0.92581,-0.13112 -0.79468,-0.66356 -0.65959,-0.52847 -0.66357,-0.65959 -0.79071,-0.39734 -0.79469,-0.66357 -0.66356,-0.65959 -0.79071,-0.52846 h -0.92581 l -0.66357,0.26224 -1.19203,-0.26224 -0.92581,-0.39735 -1.18805,-0.39734 -1.19203,-0.39734 -0.92581,-0.39735 -1.05694,-0.39734 -1.0609,-0.52847 -1.18806,-0.52846 -0.79468,-0.26622 -1.05694,-0.26225 -1.19203,-0.13112 -0.79468,-0.26622 h -1.18806 l -0.92978,0.26622 -0.13113,0.92581 -0.26224,0.79071 -0.1351,0.79469 0.39734,0.79468 0.79469,0.65959 1.05693,0.39735 1.19203,0.26622 1.19203,0.52846 1.05694,0.79469 0.79468,0.65959 0.65959,0.66356 0.52847,0.65959 0.26622,0.66357 0.52847,0.65959 0.39734,0.66356 0.39734,0.65959 0.92581,0.66356 1.05693,0.52847 1.06091,0.39734 0.92581,0.52847 1.05693,0.52846 1.32316,0.39735 1.19203,0.26224 1.05693,0.1351 1.19203,0.52847 0.79071,0.13112 h 1.19203 1.05693 l 0.53244,0.52847 h 0.92581 l 1.05694,0.66356 0.65959,0.92581 0.53244,0.92581 0.13112,1.05693 v 0.79469 l -0.39734,0.66356 -0.52847,0.39337 -0.66356,0.53244 -0.26225,0.26225 -0.52847,0.39734 -0.53244,0.39735 -0.39337,0.52846 -0.53244,0.52847 -0.52846,0.26622 -0.39734,0.39734 -0.79072,0.65959 -0.53244,0.52847 -0.52846,0.79469 -0.65959,0.66356 -0.79469,0.65959 -0.39734,0.39734 -0.65959,0.39734 h -0.66357 l -0.52846,-0.26622 -0.92581,-0.39734 -1.32316,-0.65959 -1.05693,-0.79468 -0.39734,-0.39735 -0.66357,-0.52846 -0.39734,-0.79469 -0.65959,-0.92581 -0.79469,-0.39734 -1.18805,-0.26225 -1.7205,-0.79469 -0.52846,-0.65959 -0.39735,-0.92581 -0.39734,-0.66356 -0.52847,-0.79469 -0.66356,-0.39734 -0.79469,-0.65959 -0.79071,-0.66356 -0.79469,-0.65959 -0.39734,-0.52847 -0.66356,-0.66356 -1.05694,-0.65959 -0.65959,-0.66357 -0.79468,-0.65959 -1.05694,-0.52846 -1.45825,-0.92581 -0.79071,-0.52847 -0.92978,-0.39734 -0.79071,-0.52847 -0.79469,-0.39734 -0.92581,-0.39734 -1.05693,-0.52847 -0.79469,-0.39734 -0.79469,-0.26622 -0.79468,-0.52847 -0.79469,-0.52847 -0.92581,-0.66356 -0.52847,-0.26225 -0.65959,-0.52846 -0.79468,-0.53244 -0.52847,-0.52847 -0.26622,-0.13112 -0.79469,-0.52847 -0.9258,-0.52847 -1.05694,-0.53244 -1.05693,-0.52846 -0.79469,-0.65959 -0.79468,-0.39735 -0.79469,-0.26622 -0.92581,-0.52846 -0.65959,-0.52847 -0.79469,-0.79468 -0.79468,-0.52847 -0.52847,-0.66356 -0.26225,-0.39337 -0.53244,-0.26622 -0.79071,-0.52847 -0.92581,-0.92581 -0.79469,-0.66356 -1.0609,-0.79072 -0.52847,-0.39734 -0.39734,-0.39734 -1.05693,-0.52847 -0.65959,-0.53244 -0.92581,-0.52847 -0.39735,-0.26224 -0.53244,-0.26622 -0.39337,-0.26622 -0.79468,-0.39337 -0.66357,-0.26622 -0.65959,-0.26622 -0.52846,-0.13113 -1.43044,0.61191 -0.747,1.45428 -0.46092,1.67679 0.30993,1.43441 2.06221,1.43838 0.66356,0.52847 0.52847,0.13112 0.65959,0.39734 0.52846,0.39735 0.53244,0.52846 0.52847,0.39735 0.52847,0.39734 0.65959,0.39734 0.53244,0.52847 0.79071,0.52846 0.53244,0.26622 0.65959,0.39735 0.65959,0.39734 0.79468,0.39337 1.19203,0.79469 0.79469,0.66356 0.79071,0.65959 0.53244,0.66356 0.52847,0.52847 0.26225,0.52847 0.79468,0.79468 0.52847,0.39735 0.92581,0.13112 0.92581,0.26622 0.79469,0.26225 0.79468,0.39734 1.05694,0.79469 0.79468,0.65959 0.66357,0.66356 0.79071,0.65959 0.79468,0.79469 0.52847,0.52846 0.92581,0.52847 h 0.52847 l 0.66356,0.26622 1.05693,0.26224 1.32316,0.39735 1.0609,0.66356 1.45428,0.65959 1.18806,0.79469 0.66356,0.39734 0.92581,0.65959 0.65959,0.53244 0.53244,0.39337 0.79071,0.66356 0.79469,0.92581 0.66356,0.65959 0.65959,0.79469 0.52847,0.66356 0.52846,0.79072 0.26622,0.79468 0.52847,0.66357 0.39734,0.65959 0.52847,0.52846 0.66356,0.39735 0.65959,0.39734 1.06091,0.52846 0.79071,0.52847 0.79469,0.53244 0.79469,0.65959 0.79468,0.79469 0.65959,0.65959 0.66357,0.52846 0.79071,0.92979 0.79469,0.79071 0.52846,0.79469 0.39734,0.79468 0.39735,1.05694 0.39734,0.79468 0.13112,0.79469 -0.39734,0.79071 -0.39734,0.92979 -0.65959,1.05693 -0.79469,1.05693 -0.79468,0.92581 -0.65959,0.79469 -0.79469,0.92581 -0.65959,1.32315 -0.92581,1.05693 -0.79469,1.06091 -0.92581,1.45428 -0.52846,0.92581 -0.79469,1.05693 -0.66356,1.06091 -0.92581,1.5854 -0.65959,1.45824 -0.79469,1.45428 -0.65959,1.32315 -0.52847,1.32316 v 1.32315 l 0.26225,0.65959 0.52847,0.92581 1.58937,0.79469 h 1.32315 l 0.79469,-0.26622 0.26225,-0.52847 0.52846,-0.65959 0.79469,-0.92581 0.66356,-1.06091 0.65959,-0.79468 h 0.39735 l 0.79468,0.79468 0.65959,0.39735 0.79469,0.26622 0.65959,0.39734 0.79469,0.65959 0.52846,0.92581 0.52847,0.92581 0.79468,0.79469 0.26622,0.65959 0.39735,0.79468 0.92581,0.52847 0.92581,1.19203 0.79468,0.79468 0.52847,0.26225 1.05693,-0.13112 0.79469,-0.13113 0.92581,-0.26622 1.05693,0.39735 0.20662,0.0238 -0.0715,-0.29006 0.39337,-0.52847 0.53244,-0.83442 0.39337,-0.75098 0.53244,-0.79468 0.26225,-0.65959 0.39734,-0.66357 0.52847,-0.79468 0.39734,-0.65959 0.30198,0.0755 -0.17086,-0.34171 -0.13112,-0.65959 -0.39734,-0.92581 -0.65959,-0.79469 -0.66357,-0.79469 -0.79071,-1.05693 -0.66356,-0.52847 h -1.05694 l -0.39734,-0.53244 -0.39734,-0.92581 -0.39735,-0.52846 -0.79468,-0.13113 -0.65959,-0.66356 -1.05694,-0.52846 -1.19203,-0.65959 -0.92581,-0.92581 -0.52846,-1.06091 -0.1351,-0.79071 v -0.79469 l 0.66356,-1.05693 0.65959,-1.19203 1.7205,-2.38009 0.92581,-1.45825 0.66356,-0.92581 h 1.18806 l 1.32315,0.26622 h 1.06091 l 1.32315,0.13112 0.79072,0.92581 0.26622,1.06091 0.26224,0.79071 0.79469,0.39735 0.92581,0.92581 0.79468,0.79468 1.32316,0.92581 1.19203,0.52847 1.71652,0.52847 1.65692,0.11125 1.38673,-3.15093 2.38406,-2.11784 0.67946,-0.67946 -0.0199,-0.11523 0.13112,-0.92581 -0.79071,-0.79468 -0.92978,-0.79072 -1.31918,-0.9258 -0.92979,-0.79469 -0.65959,-0.79469 -0.92581,-0.26622 -0.92581,-0.39337 -0.92581,-0.53244 -0.79468,-0.52846 -0.79469,-0.79469 -0.65959,-0.79071 -0.52847,-0.66357 -0.79468,-1.18805 -0.26622,-0.66357 v -0.6596 l -0.13113,-0.53244 0.52847,-0.65959 0.66356,-0.52846 0.92581,-0.92581 0.79072,-0.66357 0.92978,-0.65959 0.26225,-0.66356 0.39734,-0.39734 1.32315,-0.79071 0.92581,-0.79469 0.65959,-0.92581 1.19203,-0.92581 0.92581,-0.79469 1.19203,-1.05693 0.92581,-1.06091 0.65959,-0.65959 1.45825,-0.66356 1.45428,-1.18806 1.18805,-1.0609 0.92979,-0.92581 0.79071,-0.65959 1.58937,-0.66357 1.5854,-0.52846 1.7205,-1.05693 1.32315,-1.45428 h 1.45428 l 1.0609,-0.53244 1.32316,-0.79071 h 1.85162 l 1.45427,-0.52847 1.19203,-0.53244 2.51121,-0.39734 h 2.24897 l 2.24896,0.39734 8.99585,3.83834 h 1.19203 l 1.19203,1.05693 0.79071,1.58937 -0.79071,1.18806 -1.19203,0.66356 -1.19203,0.92581 -1.45428,1.45428 -1.32315,0.52846 -0.65959,1.32316 -0.79469,1.58937 -1.19203,0.79469 -0.79468,0.92581 -1.18806,1.5854 -0.92581,1.0609 -1.45825,1.31918 -1.18805,1.45825 -1.19203,1.5854 -1.32316,1.06091 -1.18805,1.32315 -1.32316,2.11387 -1.19203,1.72049 -1.45427,2.11784 -1.19203,1.5854 -1.45428,2.11784 -1.58937,2.11784 -1.45428,1.85162 -0.79468,0.65959 -0.52847,0.79469 -0.52847,0.79468 H 466.01 l -1.58938,-1.58937 H 463.761 l -8.07004,-5.68598 -0.37747,0.37747 0.11125,0.67946 0.52847,1.05693 -0.26225,1.06091 -0.66356,1.05693 -0.79071,0.92581 -0.53244,0.13113 -0.39337,0.66356 -1.19203,0.39734 h -0.92581 l -0.3298,-0.0238 -0.0675,0.15497 1.45428,0.79468 2.38406,1.45428 1.71652,1.7205 1.85162,2.11783 0.66356,2.11387 v 2.91253 l -0.66356,3.30589 -1.05693,1.85162 -1.45428,1.98672 -1.05693,0.65959 -1.7205,-0.65959 -1.32315,-0.92581 h -0.79469 l -1.72049,-1.06091 -2.11387,-1.32315 -1.98672,-1.45428 -2.11784,-1.32315 -0.22648,-0.0556 0.0954,0.18675 0.26622,0.53244 0.26225,0.92581 -0.13113,1.18806 -0.52846,0.92581 -0.66356,0.79469 -0.92581,0.66356 -1.18806,0.79071 -0.85429,-0.10728 0.0596,0.24238 0.65959,0.39734 0.92581,0.79071 1.32316,1.06091 0.79468,0.39734 0.79469,0.65959 0.92581,0.39735 0.79468,0.39734 0.92581,0.52847 0.52847,0.52846 0.39734,0.52847 0.26225,0.52847 0.26622,0.79468 0.26622,0.52847 0.26225,0.53244 0.52846,0.52847 0.1351,0.65959 v 0.66356 l -0.26622,0.79071 -0.13112,0.79469 -0.26622,0.39734 -0.39735,0.66357 -0.52846,0.65958 -0.39735,0.66357 -0.52846,0.65959 -0.39735,0.39734 -0.26224,0.52847 -0.39735,0.52846 -0.39734,0.79469 -0.39734,0.92581 -0.39735,1.05693 -0.26622,0.92581 -0.26224,0.92979 -0.39735,0.65959 -0.66356,0.92581 -0.26224,0.92581 -0.26622,0.92581 -0.26225,0.79468 -0.26622,0.92581 -0.26225,0.79469 -0.26622,0.79468 -0.26622,0.79072 -0.13112,0.52846 -0.26622,0.79469 -0.26225,0.52847 -0.26622,0.66356 -0.13112,0.79469 v 0.65959 0.66356 0.52847 l 0.13112,0.65959 -0.13112,0.39734 v 0.39734 0.52847 0.79469 0.92581 l 0.13112,0.52846 0.52847,0.79469 0.39734,0.79469 0.39735,0.65958 0.26622,0.52847 v 0.92581 l 0.13112,0.92581 0.52847,0.53244 0.52846,0.52847 0.79469,0.79468 0.52846,0.79072 0.66357,0.92581 0.65959,0.53244 0.79468,0.79071 0.79469,0.79469 0.65959,0.79468 0.53244,0.65959 0.65959,0.79469 0.39734,0.66356 0.79469,0.39337 1.05693,0.26622 0.92581,0.52847 0.92581,0.39734 1.05694,0.26622 0.92978,0.26225 1.05693,0.39734 0.92581,0.52847 0.79469,0.13509 1.05693,0.13113 h 0.79469 0.79468 1.18806 0.92581 l 0.66356,0.26622 0.52847,0.39337 0.52847,0.13509 0.39734,-0.13509 0.52847,-0.26225 0.66356,-0.26622 1.18806,-0.13112 h 0.79468 0.92581 1.05693 l 0.66357,-0.26622 0.79468,-0.39735 0.79072,-0.39337 1.19203,-0.39734 0.66356,-0.39734 0.92581,-0.52847 0.92581,-0.53244 0.92581,-0.26224 0.79469,-0.39735 0.52846,-0.26622 0.79072,-0.13112 0.79468,-0.26225 0.79469,-0.26622 0.65959,-0.52846 0.92978,-0.79469 1.18806,-0.79469 1.19203,-0.65959 1.18805,-0.79468 1.32316,-0.52847 1.0609,-0.39734 0.92581,-0.39735 0.92581,-0.65959 0.92581,-0.39734 1.32316,-0.66356 1.05693,-0.52847 0.92581,-0.65959 0.79469,-0.66356 0.79468,-0.39735 1.18806,-0.39734 1.0609,-0.26225 0.92581,-0.52846 0.65959,-0.53244 0.92581,-0.39337 0.79469,-0.26622 0.79469,-0.52847 0.79468,-0.39734 0.65959,-0.39734 1.19203,-0.39735 1.05694,-0.39734 0.79468,-0.26225 0.52847,-0.53244 0.79469,-0.26224 1.05693,-0.13113 0.92581,-0.39734 1.32315,-0.39734 0.92581,-0.52847 0.79469,-0.26622 0.92581,-0.52847 0.79468,-0.39734 0.79469,-0.52847 0.79071,-0.52846 0.92581,-0.39735 0.39735,-0.13509 h 0.39734 l 0.26622,0.26622 0.52847,-0.13113 0.52846,-0.39734 0.66357,-0.52847 0.65959,-0.52846 0.92581,-0.53244 1.0609,-0.52847 1.18806,-0.26225 1.19203,-0.92581 1.05693,-0.92978 1.06091,-0.52847 0.79071,0.1351 0.79469,-0.26622 1.19203,-0.39734 0.65959,-0.65959 0.92581,-0.66356 1.0609,-0.39735 h 0.65959 l 0.79469,0.39735 0.65959,0.39734 0.92581,0.52847 0.52846,0.52846 0.53244,0.39734 h 0.92581 l 0.92581,-0.39734 0.52847,-0.39337 0.65959,-0.39734 h 0.79469 0.79468 l 0.65959,0.26225 0.66357,0.13509 0.79468,-0.13509 h 0.52847 l 0.65959,0.39734 0.66356,0.26622 h 0.65959 l 0.79469,0.26224 0.65959,0.1351 0.66356,-0.1351 0.92581,0.1351 0.65959,0.26225 0.66356,0.52846 0.65959,0.1351 1.06091,0.13112 0.65959,0.52847 0.79469,0.79469 0.79468,0.65959 1.05694,0.66356 1.32315,0.52847 h 1.05693 1.06091 1.5854 l 1.19203,0.26622 0.79468,0.13112 1.05694,0.39734 0.66356,0.39735 0.92581,0.26224 0.92581,0.39735 0.65959,0.52846 0.66356,0.39735 1.05694,0.26622 0.92581,0.26224 0.92581,0.26622 0.92581,0.52847 0.66356,0.39734 0.79071,0.52847 0.92581,0.39734 0.66357,0.52847 0.79468,0.52847 0.52847,0.53244 0.39734,0.79071 0.26225,0.79469 0.26622,0.66356 v 0.79071 0.66356 l 0.13112,0.79469 -0.13112,0.79071 -0.26622,0.66357 -0.52847,0.79468 v 0.65959 l -0.13112,0.52847 -0.39734,0.52847 -0.52847,0.66356 -0.52847,0.52847 -0.26622,0.52846 -0.39734,0.52847 -0.39734,0.66356 -0.39735,0.39735 -0.39734,0.26224 -0.39337,0.39735 -0.39734,0.39734 -0.52847,0.39734 -0.92978,0.65959 -0.65959,0.26622 -0.65959,0.39735 -0.92979,0.13112 -0.92581,0.39734 -1.18805,0.39734 -0.66357,0.26622 -1.05693,0.52847 -0.92581,0.26225 -1.19203,0.26622 -1.32315,0.52846 -0.79071,0.39735 -0.79469,0.26622 -0.66356,0.39337 -0.65959,0.26622 -0.66357,0.26622 -0.65959,0.39734 -0.66356,0.39337 h -0.57217 l -0.75098,0.1351 -0.52847,0.39734 -0.65959,0.65959 0.12314,1.24774 1.57965,1.85437 2.30894,1.15414 2.69775,0.1843 2.76107,-0.43525 3.07755,-0.86231 3.72311,-2.21718 0.92581,-0.26225 1.05693,-0.39734 1.19203,-0.26622 1.32315,-0.65959 1.19203,-0.53244 0.92581,-0.79071 0.65959,-0.53244 0.66356,-0.65959 0.65959,-0.92581 0.66357,-0.79469 0.65959,-0.92581 0.66356,-0.92581 0.92581,-0.92581 0.79071,-0.92581 0.66357,-0.52846 0.52846,-0.66357 0.26622,-0.92581 0.13113,-0.65959 0.26224,-0.66356 0.39735,-0.79071 0.39734,-0.53244 0.52847,-0.65959 0.79468,-0.52847 0.92581,-0.39734 0.79469,-0.39735 0.79469,-0.26622 0.79468,-0.13112 h 0.65959 0.92581 1.19203 0.65959 l 0.92581,-0.13112 1.19203,0.13112 0.65959,0.39734 0.66356,0.39735 0.52847,0.26224 0.52847,-0.13112 0.26622,-0.26225 h 0.65959 l 0.66356,0.13113 0.79071,0.65959 1.19203,0.39734 0.79469,0.39734 0.65959,0.26622 0.92581,0.13113 0.92581,0.26622 1.0609,0.26224 0.52847,0.26622 0.92581,0.39735 0.79469,0.26224 0.65959,0.13113 0.52846,0.26622 0.79469,0.39734 1.19203,0.52847 0.65959,0.39734 0.53244,0.13112 0.79071,0.52847 0.66357,0.1351 h 1.45427 l 0.92581,0.13112 0.79469,0.26622 0.52846,0.26225 0.92581,0.26622 0.66357,0.52846 1.05693,0.39735 0.79469,0.39734 h 0.92581 0.92581 0.65959 l 0.39734,0.13112 0.66356,0.39735 1.32316,0.39734 1.31918,0.52846 0.79468,0.39735 0.29801,0.11126 0.49271,0.008 0.52557,-0.12673 0.52184,-0.59413 0.32416,-0.6643 0.27908,-0.46115 0.17501,-0.5913 0.0465,-0.73617 0.10243,-0.94265 0.0191,-1.14038 -0.0773,-0.90697 -0.14018,-0.62836 -1.33788,-1.47976 -1.229,-0.4458 -0.65959,-0.26622 -0.39734,-0.39734 -0.26622,0.13509 -0.52847,0.13113 -0.39734,0.26224 h -0.65959 l -0.39734,-0.39337 -0.39735,-0.26622 -0.52846,-0.26622 -0.66357,-0.52846 -0.52846,-0.39735 -0.26225,-0.26224 -0.39734,-0.26622 -0.52847,-0.13113 -0.53244,-0.26622 -0.52847,-0.26224 -0.52846,-0.26622 -0.39735,-0.39735 -0.52846,-0.26224 -0.66357,-0.39735 -0.52846,-0.26622 -0.65959,-0.39734 -0.39735,-0.13112 -0.52846,-0.26622 h -0.52847 l -0.66356,-0.13112 -0.65959,-0.39735 -0.66356,-0.26224 -0.26225,-0.26622 -0.79469,-0.13113 -0.92581,-0.13509 -0.66356,-0.13113 -0.65959,-0.26224 -0.66356,-0.1351 -0.65959,-0.26225 -0.66357,-0.13509 h -0.65959 l -0.66356,0.13509 -0.52847,-0.13509 -0.52846,-0.39337 -0.65959,-0.1351 -0.66357,-0.26225 h -0.52846 l -0.79469,-0.13509 -0.52847,-0.13113 -0.65958,-0.26622 -0.66357,-0.52846 h -0.65959 l -0.79468,-0.26225 -0.52847,-0.26622 -0.66356,-0.39734 -0.39735,-0.39735 -0.26224,-0.39734 -0.39735,-0.26225 -0.39734,-0.39734 -0.52847,-0.39734 -0.26622,-0.39735 -0.39734,-0.65959 -0.26225,-0.39734 -0.26622,-0.52847 -0.26224,-0.52846 -0.53244,-0.39735 -0.52847,-0.39734 -0.39734,-0.39734 -0.52847,-0.26622 -0.39734,-0.39735 -0.65959,-0.26224 -0.26622,-0.52847 v -0.39734 -0.66357 l 0.13509,-0.39734 0.13113,-0.52846 0.13112,-0.39735 0.13112,-0.52846 0.1351,-0.52847 0.13112,-0.39734 0.13113,-0.65959 0.26622,-0.53244 0.13112,-0.52847 0.13112,-0.52847 0.1351,-0.92581 0.39734,-0.39734 0.13113,-0.52847 0.26622,-0.39734 0.13112,-0.39734 0.26225,-0.65959 v -0.79469 l 0.13509,-0.92581 v -0.92581 -1.19203 l 0.39735,-0.92581 0.52846,-0.92581 -0.13509,-0.92581 0.13509,-0.92581 0.13113,-0.65959 0.13112,-0.66356 0.1351,-0.52847 -0.26622,-0.79468 -0.39735,-0.79469 -0.39734,-0.65959 V 779.304 l 0.26622,-0.65959 0.26225,-0.79468 0.13509,-1.05694 -0.39734,-0.92978 -0.39734,-0.65959 -0.13113,-0.65959 v -0.79469 l 0.13113,-0.66356 v -0.79071 l -0.26622,-0.66356 v -0.52847 l 0.26622,-0.66356 0.52846,-0.52847 0.92581,-0.52847 0.79469,-0.39734 0.52847,-0.26225 0.66356,-0.26622 0.52847,-0.13112 0.52846,-0.26622 0.92581,-0.39734 0.66357,-0.13113 0.92581,-0.26622 0.65958,-0.13112 0.66357,0.13112 0.52846,-0.26224 0.65959,-0.39735 0.92581,-0.39734 1.32316,-0.52847 0.79468,-0.52846 0.79469,-0.79469 0.65959,-0.66356 0.66356,-0.65959 0.52847,-0.79469 0.65959,-0.52847 0.79469,-0.13112 0.92581,-0.26622 1.19203,-0.26225 0.92581,-0.13509 0.65959,-0.13113 0.9258,-0.26622 0.79469,-0.79071 0.79469,-0.66356 1.19203,-0.52847 0.79071,-0.52846 0.92581,-0.26622 0.92581,-0.13113 1.19203,-0.26622 0.79469,-0.13112 0.92581,-0.26622 0.92581,-0.65959 1.05693,-0.79469 0.92581,-0.26224 0.66356,-0.1351 0.79469,-0.13112 1.09005,-0.20996 0.42391,-0.32017 0.28923,-0.62073 0.2146,-1.0118 0.0796,-1.58222 -0.0571,-1.19219 0.002,-0.98416 -0.1268,-0.91042 -0.3886,-0.98107 -0.44301,-0.72635 -0.47753,-0.4375 -0.60688,-0.2855 -0.53244,0.26622 -0.52847,0.39734 -0.92581,0.52846 -0.79468,0.66357 -0.65959,0.13112 -0.92581,0.13112 -0.66357,0.39735 -1.18805,0.13112 -0.66357,0.79469 -0.39734,0.39734 -0.52847,0.52847 -0.79468,0.39734 -0.79072,0.39734 -0.79468,0.39735 -1.19203,0.39734 -0.79072,0.39734 -0.79468,0.39337 -0.92581,0.53244 -0.66356,0.39337 -0.65959,0.26622 -0.52847,0.26622 -0.79469,0.26225 -1.0609,0.52847 -0.52847,0.26622 -0.52847,0.26622 -0.65959,0.39337 -0.66356,0.53244 -0.52847,0.26224 -0.52846,0.26622 -0.52847,0.13113 -0.53244,0.26622 -0.65959,0.39734 -0.65959,0.26225 -0.53244,0.26622 -0.65959,0.13112 -0.39734,0.13112 -0.65959,0.26622 -0.53244,0.13113 -0.52847,0.26622 -0.39734,0.26224 -0.65959,0.1351 -0.66356,0.26225 -0.52847,0.26622 -0.65959,0.26224 -0.66356,0.39734 h -0.79469 l -0.52847,0.26622 -0.79071,0.26622 -0.66356,0.13113 -0.52847,0.13112 h -0.66356 l -0.52847,0.26622 -0.65959,-0.1351 -0.52847,-0.39337 -0.13509,-0.92978 0.13509,-0.65959 V 758.666 l 0.26225,-0.52847 0.13112,-0.79469 0.1351,-0.52846 0.13112,-1.05694 v -0.79468 l 0.13113,-0.79469 v -1.32315 -1.45428 l 0.13509,-1.5854 v -1.19203 -1.05693 l -0.13509,-1.45825 0.13509,-1.45428 v -0.52846 l 0.39735,-1.05694 0.13112,-1.58937 v -1.19203 l -0.13112,-1.18806 v -1.0609 l 0.13112,-0.79072 0.26225,-0.79468 0.39734,-1.19203 v -1.45428 -1.58937 -1.5854 -1.05693 l 0.1351,-1.06091 v -1.5854 l 0.26224,-1.58937 0.13113,-1.32316 v -1.5854 l 0.26622,-1.19203 0.39734,-0.92581 0.26622,-1.32315 0.26225,-1.19203 0.26622,-1.05693 0.26224,-1.05693 0.1351,-1.45825 v -1.5854 l 0.13112,-1.45428 0.26225,-0.92581 0.1351,-1.45825 -0.26622,-0.92581 v -1.05693 l -0.13113,-0.52847 v -0.79468 l 0.13113,-0.92581 0.26622,-1.05694 0.79468,-1.0609 v -1.45428 -1.5854 -0.53244 -1.05693 l 0.39337,-1.05694 0.1351,-2.11784 0.39734,-2.24896 0.52847,-1.05693 v -1.58937 -1.85162 -1.19203 -1.18806 l 0.65959,-2.24896 0.39734,-0.92581 0.39735,-1.19203 0.39734,-1.05693 0.39734,-1.32316 0.26225,-0.79468 0.39734,-0.92581 v -1.19203 l 1.88341,-4.70455 -1.26665,-3.05654 z m -126.33132,8.05812 1.19203,0.1351 0.65959,0.39734 0.65959,0.52847 0.53244,0.26224 h 0.79072 l 1.0609,0.1351 h 0.79469 l 0.92581,0.13112 0.65959,0.26225 0.52847,0.26622 0.26622,0.52847 v 0.52846 l -0.13113,0.53244 v 0.65959 l -0.13509,0.52847 -0.26225,0.66356 -0.1351,0.52847 -0.26224,0.13112 h -0.26622 l -0.79469,-0.52846 -0.65959,0.39734 -0.66356,0.39734 -0.39337,0.26225 -0.1351,0.13509 -0.26225,0.65959 -0.13509,0.66357 -0.65959,0.65959 -0.52847,0.52846 -0.52847,0.79469 -0.39734,0.65959 -0.26622,0.79469 -0.26225,0.66356 -0.39734,0.52847 -0.39734,0.39734 -0.66357,0.39734 -0.52846,0.79072 -0.52847,0.66356 -0.26622,0.92581 -0.52847,1.05693 -0.52846,0.79469 h -0.92581 -1.58937 -1.32316 l -0.92581,-0.39734 -0.52846,-0.52847 -0.52847,-0.52847 -0.52847,-0.52846 -0.52846,-0.39735 -0.92581,-0.26622 -0.66357,-0.26224 -0.52846,-0.39735 -0.52847,-0.52846 -0.39734,-0.39735 -0.52847,-0.39734 -0.52847,-0.39734 -0.66356,-0.39735 -0.65959,-0.39734 h -0.53244 l -0.52847,0.26622 -0.65959,0.26225 h -0.79468 l -0.79469,0.26622 -0.65959,0.79468 -0.79468,0.65959 -0.52847,0.79469 -0.26622,0.79469 0.1351,0.39734 0.26224,0.65959 0.66357,0.52847 0.65959,0.66356 0.79468,0.65959 0.65959,0.39734 0.53244,0.39734 0.79071,0.65959 0.92581,0.39735 0.66357,0.39734 0.79468,0.52847 0.65959,0.52846 0.52847,0.53244 0.39734,0.39735 0.52847,0.65959 0.52847,0.65959 0.26622,0.53244 0.39734,0.39734 0.26622,0.79071 0.39337,0.52847 0.39734,0.66356 0.26622,0.65959 0.13113,0.79469 v 0.79469 0.79468 l -0.13113,0.65959 -0.13112,0.66357 -0.53244,0.65959 -0.39337,0.66356 -0.53244,0.79071 -0.39734,0.53244 -0.52847,0.79071 -0.39734,0.52847 -0.52847,0.79469 -0.39734,0.92581 -0.26225,0.66356 -0.1351,0.65959 -0.39337,0.39734 -0.53244,0.52847 -0.39337,0.52847 -0.66356,-0.13113 -0.65959,-0.26224 -0.53244,-0.1351 h -0.52847 l -0.39734,0.52847 -0.26225,1.19203 v 0.92581 l -0.26622,0.66356 -0.26224,0.79071 -0.53244,0.1351 h -0.65959 l -0.66356,-0.52847 -0.65959,-0.66356 -0.52847,-0.79469 -0.66356,-1.05693 -0.52847,-0.79469 -0.13112,-0.52846 -0.13113,-0.79469 v -0.79469 -0.79071 l -0.13509,-0.79469 v -0.66356 l -0.13113,-0.65959 -0.26622,-0.65959 -0.13112,-0.79469 -0.13112,-0.66356 -0.26622,-0.65959 -0.13113,-0.66356 -0.13112,-0.52847 -0.39734,-1.05693 -0.26622,-0.79469 -0.26225,-0.79468 -0.1351,-0.65959 v -0.79469 l -0.26224,-0.79469 -0.39735,-1.32315 v -0.92581 l -0.26622,-1.32315 -0.26224,-1.05694 v -1.19203 l -0.26622,-1.58539 v -1.19203 l -0.13113,-0.92581 0.13113,-0.92581 -0.13113,-0.92581 -0.26622,-0.65959 v -0.66357 -0.92581 -0.79468 l -0.13112,-0.79469 v -0.92581 -0.79071 -0.92581 l 0.26622,-1.06091 0.39337,-0.65959 0.66356,-0.39734 0.52847,-0.39734 0.79469,-0.39735 0.79468,-0.39734 0.79072,-0.13112 0.92581,-0.39735 1.0609,-0.26622 h 1.32316 l 1.58539,-0.13112 h 1.32316 1.45427 l 0.92581,-0.13112 1.19203,-0.26622 h 1.05694 1.0609 1.18806 l 0.92581,-0.39735 0.92978,-0.26224 0.92581,-0.52847 1.18806,-0.39734 0.92581,-0.39735 1.0609,-0.26622 1.05694,-0.26224 0.79468,-0.26622 0.79469,-0.39735 z m 116.81494,2.91253 h 0.92581 l 0.52847,0.39734 0.52847,0.65959 0.52846,0.52847 0.26622,0.39734 0.13113,0.66356 -0.13113,0.39735 v 1.32315 l -0.26622,0.92581 -0.26224,0.92581 -0.26622,1.18805 -0.39735,1.06091 -0.13112,1.18806 -0.26622,0.92581 v 0.79468 l -0.26225,0.92581 -0.13509,1.06091 v 0.92581 l -0.26225,1.05693 v 0.92581 l -0.26622,0.92581 -0.13112,0.66356 -0.13113,0.92581 -0.13509,0.65959 -0.13113,0.66357 -0.13112,0.65959 -0.1351,0.52846 -0.13112,0.52847 -0.13112,0.53244 -0.1351,0.92581 v 1.05693 l -0.13112,0.79469 -0.26225,0.52847 -0.26622,0.39734 -0.39734,0.65959 -0.13113,0.92581 v 0.52847 l 0.26225,0.66356 0.26622,0.52847 v 0.52846 l -0.39734,0.39734 -0.52847,0.39735 -0.66356,0.26622 -0.52847,0.26224 -0.39734,0.52847 -0.13112,0.79469 0.26622,0.66356 0.39734,0.52847 0.26225,0.39734 0.39734,0.79071 0.26622,0.79469 0.39734,0.66356 0.13112,0.79072 0.13113,1.0609 v 1.18806 1.32315 l -0.13113,0.66357 v 1.19203 l -0.13112,1.58539 v 0.92581 1.19203 l -0.1351,1.18806 -0.13112,0.92581 -0.26622,0.79469 -0.13112,0.52846 -0.26622,1.06091 -0.26225,1.32315 -0.13112,1.05694 -0.1351,1.05693 -0.13112,1.32315 v 0.92581 l -0.13112,0.92581 -0.1351,0.79469 -0.13112,1.32315 -0.13113,0.66356 -0.13112,0.79072 -0.1351,0.92581 v 0.92581 l -0.13112,1.0609 v 1.18806 l -0.26622,1.06091 v 1.05693 l -0.13112,1.19203 v 1.72049 1.32316 1.18805 0.79469 l -0.13113,1.19203 v 0.79071 l -0.26622,0.92581 v 1.19203 l -0.13112,0.92581 v 0.79469 0.79469 l -0.26622,0.39734 -0.52847,0.52847 -0.65959,0.65959 -0.39734,0.66356 -0.39734,0.79071 -0.26622,0.66356 -0.39735,0.92581 -0.13112,0.79469 v 1.45428 1.32315 l -0.39734,1.05693 -0.26225,0.52847 -0.53244,0.53244 -0.65959,0.39734 -0.79469,0.52847 -0.86223,0.39734 -0.72317,0.52847 -1.19203,0.39734 -0.92581,0.13113 -0.9258,-0.13113 -0.66357,-0.39734 -0.52846,-0.39734 -0.79072,-0.26622 -0.66356,-0.13113 h -0.65959 l -0.66356,0.26622 -0.79469,0.39337 -0.79071,0.26622 h -0.53244 l -0.52847,-0.52846 -0.39734,-0.66357 -0.52847,-0.65959 -0.52847,-0.66356 -0.52846,-0.52847 -0.52847,-0.65959 -0.26622,-0.66356 -0.26225,-0.79071 v -0.53244 l -0.26622,-0.52847 -0.39734,-0.52847 -0.45694,-0.39734 -0.46887,-0.52847 -0.13112,-0.52846 v -0.52847 -0.53244 l -0.52847,-0.65959 -0.66356,-0.52846 -0.52847,-0.66357 -0.52846,-0.52846 -0.52847,-0.52847 -0.39734,-0.39734 -0.26622,-0.39735 -0.52847,-0.52846 -0.52847,-0.65959 -0.39734,-0.53244 -0.39734,-0.52847 -0.52847,-0.65959 -0.52847,-0.52847 -0.39734,-0.53244 -0.52847,-0.52846 -0.53244,-0.52847 -0.52846,-0.26622 h -0.79469 l -0.79071,-0.26225 -0.79469,-0.26622 -0.39734,-0.52846 -0.13113,-0.52847 -0.13509,-0.66356 -0.13113,-0.52847 v -0.52847 -0.52846 -0.79469 -0.39734 -0.65959 l -0.26224,-0.39734 -0.53244,-0.39735 -0.39735,-0.13112 -0.65959,-0.1351 h -0.79468 -0.79469 l -0.79071,-0.13112 -0.26622,-0.52847 -0.26225,-0.52846 -0.26622,-0.66357 -0.39734,-0.52846 -0.39734,-0.52847 -0.39735,-0.65959 -0.26224,-0.39734 -0.39735,-0.79469 -0.79468,-0.66356 -0.65959,-0.52847 -1.06091,-0.52847 -0.92581,-0.13112 -0.92581,-0.1351 -0.92581,0.1351 -1.05693,0.13112 -0.79469,0.39735 -1.05693,0.13112 h -0.66357 l -0.65959,-0.52847 -0.66356,-0.65959 -0.79468,-0.39734 -0.65959,-0.39734 -0.92581,-0.13113 -0.79469,-0.39734 -0.65959,-0.53244 -0.39734,-0.39337 -0.52847,-0.53244 -0.66356,-0.39337 -0.52847,-0.39734 -0.66356,-0.39734 -0.65959,-0.26622 -0.52847,-0.26225 -0.66356,-0.66356 -0.52847,-0.52847 -0.52847,-0.26622 -0.65959,-0.13112 -0.53244,-0.13113 -0.52846,-0.26622 -0.65959,-0.39734 -0.52847,-0.39734 -0.53244,-0.26225 -0.79071,-0.39734 -0.66356,-0.52847 -0.52847,-0.39734 -0.52847,-0.52847 -0.52846,-0.52847 -0.53244,-0.53244 -0.39337,-0.39734 -0.39735,-0.39337 -0.39734,-0.26622 -0.39734,-0.39734 -0.39735,-0.26225 -0.39734,-0.39734 -0.39734,-0.1351 -0.39735,-0.39734 -0.52846,-0.26225 -0.39735,-0.26622 -0.52846,-0.26225 -0.39735,-0.39734 -0.52846,-0.39734 -0.26622,-0.26622 v -0.52847 l 0.13509,-0.52847 0.39735,-0.39734 0.39734,-0.26225 0.65959,-0.39734 0.52847,-0.26622 0.52846,-0.13112 0.66357,-0.39734 0.79468,-0.39735 0.65959,-0.39734 0.66357,-0.39734 0.52846,-0.39735 0.65959,-0.52846 0.52847,-0.39735 0.66356,-0.39734 0.65959,-0.39337 0.66357,-0.39734 0.65958,-0.52847 0.39735,-0.39734 0.52846,-0.53244 0.52847,-0.39337 h 0.79469 l 0.52846,-0.26622 0.66357,-0.65959 0.79468,-0.53244 0.92581,-0.79072 1.05694,-0.79468 1.05693,-0.66357 0.79469,-0.65959 0.79468,-0.39734 0.79469,-0.79469 0.92581,-0.52846 0.79469,-0.65959 1.18805,-0.79469 0.66356,-0.39734 0.79072,-0.39734 0.53244,-0.52847 0.65959,-0.13112 0.92581,-0.53244 0.79468,-0.39337 0.79469,-0.39735 0.52847,-0.39734 0.52846,-0.26622 0.52847,-0.13112 0.52847,-0.39735 0.66356,-0.13112 0.52847,-0.26622 0.65959,-0.26225 0.53244,-0.39734 0.52846,-0.26622 0.52847,-0.26622 0.65959,-0.39337 0.92978,-0.26622 0.65959,-0.39734 0.65959,-0.65959 0.66356,-0.26622 0.65959,-0.39735 0.92581,-0.52846 0.39735,-0.26622 0.66356,-0.13113 0.65959,-0.26224 0.79469,-0.53244 0.66356,-0.52847 0.65959,-0.65959 1.05693,-0.66356 0.79469,-0.39735 0.79469,-0.26224 1.05693,-1.06091 0.66356,-0.39337 1.05694,-0.66356 1.19203,-0.65959 0.9258,-0.53244 0.65959,-0.39337 1.19203,-0.39734 1.32316,-0.66357 1.45427,-0.65959 1.45428,-0.79468 2.38406,-1.19203 1.98274,-0.52847 1.5854,-1.32315 1.58937,-1.05694 1.7205,-1.0609 1.7205,-0.65959 0.92581,-0.65959 1.05693,-0.79469 1.05693,-0.52846 1.19203,-0.66357 1.32316,-0.65959 2.11784,-0.66356 1.45427,-0.65959 1.45428,-0.26622 z m -87.57842,49.73942 0.79469,0.39735 0.52846,0.52846 0.65959,0.79469 h 1.06091 l 1.05693,0.52847 1.19203,0.66356 0.92581,0.79469 1.45428,0.92581 0.92581,0.52846 0.79468,0.26225 1.18806,0.92581 1.06091,0.92978 1.18805,0.79071 1.19203,0.79469 1.32316,1.05693 1.45427,0.92581 1.19203,0.92979 1.7205,0.52846 1.05693,0.13113 1.05693,0.79468 1.06091,0.79469 0.92581,0.65959 1.05693,0.79469 1.32316,0.52846 1.32315,1.32316 0.26622,0.79468 0.39734,1.05694 0.39337,1.19202 0.26622,1.18806 v 0.66356 l -0.52846,0.52847 -0.13113,0.79469 -0.39734,1.05693 -0.53244,0.79469 -0.92581,0.26224 -1.45428,0.26622 -1.05693,-0.26622 -0.92581,-0.52846 -0.66356,-0.52847 -0.79072,-0.52847 -0.66356,-0.79468 -0.79469,-0.52847 -0.79071,-0.66356 -0.39734,-0.65959 -0.79469,-0.52847 -0.79468,-0.79469 h -0.92581 l -0.92581,-0.13112 -0.79469,-0.66356 -0.79469,-0.65959 -0.65959,-0.52847 -1.19203,-0.66356 -0.79071,-0.65959 -0.92581,-0.66356 -0.79469,-0.65959 -1.0609,-1.06091 -0.65959,-0.52847 -0.79469,-0.65959 -0.92581,-0.79468 -1.19203,-0.65959 -0.79071,-0.66357 -0.92581,-0.65959 -0.66356,-0.53244 -1.18806,-0.52846 -0.92978,-0.52847 -0.92581,-0.52847 h -0.79072 l -0.79468,0.79469 -0.39735,0.79071 -0.52846,0.92581 -0.39735,0.92979 -0.13112,0.65959 0.13112,0.79468 0.52847,0.79469 0.39734,0.65959 v 0.79469 l 0.65959,0.65959 0.66357,0.39734 1.19203,0.66356 1.32315,0.79072 1.18806,0.66356 1.19203,0.52847 0.52846,0.52846 v 0.92581 l -0.13112,0.79469 -0.39734,0.65959 -0.92581,0.39734 h -1.06091 l -0.79071,-0.39734 -0.79469,-0.39337 -0.39734,-0.39735 -0.65959,-0.26622 -0.39735,0.52847 -0.79468,0.66356 -0.92581,1.05694 -1.19203,0.79468 -0.79469,0.39735 -0.33774,0.0954 -3.83436,5.07407 0.0715,0.2543 0.1351,1.05694 0.26224,0.66356 0.52847,1.32315 v 0.92581 l -0.26225,1.05693 v 1.32316 l 0.52847,1.19203 1.05693,0.92581 0.79469,0.79071 0.66356,0.79469 1.31918,0.92581 h 1.19203 1.85162 1.19203 l 1.05693,0.26622 0.79469,0.52846 1.05693,0.26622 1.06091,0.39337 1.5854,0.39735 1.19203,0.26622 1.19203,0.26622 1.05693,0.39337 1.45428,0.53244 0.92581,0.52846 0.92581,0.52847 0.92581,0.52847 0.79468,0.52846 0.66357,0.26622 0.92581,0.52847 0.65959,0.66356 0.92581,0.79071 0.79468,0.52847 0.65959,0.66356 0.79469,0.65959 0.66356,0.66357 0.39337,0.92581 0.53244,0.79468 0.52847,0.65959 v 0.66357 l 0.52846,0.65959 0.52847,0.66356 0.66356,1.05693 0.65959,0.65959 0.39735,0.79469 0.13112,0.79469 0.39734,0.92581 0.39735,0.79468 0.39734,0.52847 0.65959,0.79468 0.39734,0.79072 v 0.66356 l -0.26224,0.79469 -0.39735,0.52846 -1.19203,0.52847 -1.05693,0.66356 -1.19203,0.26225 -1.05693,0.39734 -0.79469,0.52847 -0.65959,0.66356 -0.66356,0.39735 -1.05693,0.39337 -1.06091,0.53244 -1.05693,0.39337 -0.92581,0.39734 -1.32316,0.26622 -1.19203,0.26622 -0.79071,0.26225 -0.79469,0.52846 -0.39734,0.52847 -0.92581,0.39734 -1.05693,0.53244 h -1.06091 l -0.79469,0.26225 -0.92581,0.39734 -0.65958,0.26622 -0.92581,0.13112 -1.05694,0.39735 -0.53244,0.65959 -0.79071,0.52846 -0.92581,0.39735 -0.79469,0.52846 -0.92581,0.1351 -0.52846,0.52847 -0.53244,0.52846 -0.65959,0.39735 -0.66357,0.39734 -0.79071,0.52847 -1.06091,0.52846 -0.79071,0.52847 -0.79469,0.39734 -1.19203,0.1351 -0.65958,0.39337 -0.92581,0.39734 -0.79469,0.39735 -0.92581,0.52846 -1.06091,0.39735 -1.18805,0.39734 -1.06091,0.39734 -0.92581,0.52847 -0.79071,0.26622 -0.53244,0.13112 -0.79072,0.39735 -1.0609,0.65959 -0.92581,0.39734 -0.92581,0.53244 -1.18806,0.52847 -0.92978,0.39734 -1.05693,0.39337 -1.19203,0.39734 -0.92581,0.39734 -0.92581,0.66357 -1.18806,0.92581 -0.52847,0.65959 -0.79468,0.39734 -1.06091,0.39734 -1.05693,0.39735 h -1.19203 l -1.5854,0.65959 -1.32315,0.66356 -0.92581,0.65959 -1.45428,0.52847 -1.32315,0.13509 h -1.19203 l -1.32316,-0.13509 H 460.32 l -1.05693,-0.26225 -0.79469,-0.26622 -0.92581,-0.13112 -0.79469,-0.13113 -0.65959,-0.13509 -0.79468,-0.52847 -0.79469,-0.39734 -0.79468,-0.39735 -0.79072,-0.65959 -0.66356,-0.52846 -0.13112,-0.52847 0.13112,-0.53244 v -0.39337 l -0.26225,-0.53244 -0.26622,-0.39337 -0.79468,-0.53244 -0.39735,-0.52847 -0.65959,-0.65958 -0.66356,-0.79469 -0.39337,-0.52847 -0.26622,-0.66356 v -0.52847 l -0.26622,-0.92581 -0.13112,-0.65959 v -0.79468 l -0.13113,-0.66357 0.13113,-1.05693 v -0.79469 -0.39734 -0.52847 l 0.26622,-0.79468 0.26224,-0.79072 0.39735,-0.66356 0.39734,-1.05693 0.39734,-0.79469 0.39735,-0.92581 0.26224,-0.79468 0.26622,-0.92581 0.13113,-0.79469 0.13509,-0.79071 0.39337,-0.79469 0.26622,-0.66356 0.13113,-0.65959 0.13509,-0.66357 0.39735,-0.79071 0.39337,-0.66356 0.26622,-0.79469 0.13112,-0.52847 0.26622,-0.79071 0.39734,-0.53244 0.52847,-0.92581 0.26622,-0.65959 0.52847,-0.52847 0.39734,-0.39734 0.65959,-0.26622 0.26622,-0.39734 0.39734,-0.92581 v -0.65959 l 0.13112,-0.79469 0.26225,-0.52846 0.53244,-0.66357 0.65959,-0.65959 0.39734,-0.79468 0.52847,-0.52847 0.52847,-0.79469 0.39734,-0.52846 0.66356,-0.65959 0.65959,-0.66357 0.13113,-0.79468 0.13509,-0.65959 0.65959,-0.79469 0.66357,-0.65959 1.05693,-0.39734 0.92581,-0.52847 0.79469,-0.66356 0.79468,-0.79469 0.39337,-1.18805 0.39735,-0.79469 0.53244,-0.66356 0.26224,-0.79072 0.66357,-0.66356 0.39336,-0.65959 0.53244,-0.92581 0.52847,-0.53244 0.39734,-0.65959 0.52847,-0.65959 0.65959,-0.53244 0.53244,-0.65959 0.65959,-0.92581 0.79469,-0.92581 0.39734,-0.66356 0.52847,-0.79072 0.26224,-0.53244 0.39735,-0.79071 0.52846,-0.53244 0.66357,-0.39337 1.05693,-0.26622 1.06091,-0.26622 1.18805,-0.26224 1.19203,-0.52847 1.32315,-0.1351 1.19203,-0.26224 0.92581,-0.26622 1.05694,-0.26225 0.92581,-0.26622 h 1.05693 l 1.32315,0.26622 1.06091,0.26225 h 1.18806 l 0.92581,-0.13113 h 1.0609 l 0.19073,-0.2543 -0.19073,-0.67151 0.26225,-1.19203 0.39734,-0.92581 1.06091,-0.79468 0.65959,-0.65959 1.05693,-0.66357 0.58807,-0.16688 0.47284,-0.62383 -0.79469,-0.39734 -0.52847,-0.26622 -0.79468,-0.39735 -0.65959,-0.39734 -0.66356,-0.39734 -0.52847,-0.39337 -0.79469,-0.53244 -0.79468,-0.52847 -0.79072,-0.39734 -0.79468,-0.39735 -0.66357,-0.39336 -0.52846,-0.39735 -0.65959,-0.39734 -0.52847,-0.52847 -0.53244,-0.39734 -0.39734,-0.79469 -0.26225,-0.39734 -0.13112,-0.39734 0.13112,-0.52847 0.26225,-0.52847 0.39734,-0.39734 0.66356,-0.39734 0.52847,-0.65959 0.65959,-0.79469 0.66356,-0.52847 0.52847,-0.52846 0.39734,-0.53244 0.65959,-0.79072 0.66357,-0.66356 0.52846,-0.65959 0.52847,-0.79469 0.79469,-0.66356 0.39734,-0.92581 0.26622,-0.92581 0.79071,-0.39734 1.19203,-0.79071 0.79469,-0.92581 0.26224,-0.39735 0.66357,-0.79468 0.92581,-0.65959 1.18805,-0.92979 1.06091,-0.65959 z m 44.18457,31.88283 h 0.26622 l 0.13112,0.13509 0.39735,0.52847 0.39734,0.39734 0.65959,0.52847 0.39734,0.13112 0.79469,0.52847 0.65959,0.39734 0.79468,0.26622 0.79469,0.26225 0.92581,0.39734 0.52847,0.26622 0.52846,0.52847 0.39735,0.65959 0.52846,0.66356 0.53244,0.65959 0.39337,0.66356 0.53244,0.65959 0.65959,0.66357 0.52847,0.79468 0.52847,0.65959 0.53244,0.65959 0.52846,0.79469 0.13113,0.66356 v 0.65959 l 0.13112,0.66357 0.39734,0.39734 0.66357,0.39337 0.65958,0.53244 0.52847,0.52846 0.66356,0.79469 0.13113,0.52847 v 0.39734 l -0.52847,0.39337 h -0.52847 l -0.79468,0.1351 -0.65959,0.26224 -0.92978,0.53244 -0.92581,0.26225 -0.65959,0.26622 -0.52847,0.39734 -0.39734,0.52847 -0.52847,0.52847 -0.79469,0.52846 -0.79468,0.26622 -0.79469,0.39735 -0.79071,0.26224 -0.66357,0.26622 -0.92581,0.52847 -0.65959,0.39734 -0.92581,0.26225 -0.79468,0.39734 -0.79469,0.39735 -0.52846,0.26622 -0.66357,0.52846 -0.79071,0.39735 -0.92581,0.39734 -0.66356,0.26225 -0.79469,0.26622 -0.79071,0.26224 -0.66357,0.26622 -0.65959,0.39735 -0.92581,0.26622 -0.79468,0.13112 -0.79469,-0.26622 h -0.92581 l -0.65959,-0.26225 -0.53244,-0.53244 -0.79071,-0.39337 -0.39735,-0.39734 -0.26622,-0.52847 -0.39734,-0.79468 -0.13112,-0.79469 -0.13113,-0.92581 v -0.79469 l 0.39735,-0.92581 0.26224,-0.65959 0.39735,-0.53244 0.52846,-0.65959 0.39735,-0.39734 0.66356,-0.65959 0.65959,-0.66356 0.52847,-0.39735 0.26622,-0.39734 0.39734,-0.39337 0.26225,-0.39734 0.26622,-0.53244 -0.26622,-0.65959 -0.26225,-0.52847 -0.1351,-0.39734 -0.26224,-0.39734 0.13112,-0.92581 v -0.65959 l 0.26622,-0.53244 v -0.52847 l 0.13112,-0.79469 0.13113,-0.65959 0.26622,-0.66356 0.26224,-0.65959 0.39735,-0.52847 0.26622,-0.39734 0.39734,-0.66356 0.52847,-0.52847 0.52846,-0.52847 0.52847,-0.52846 0.52847,-0.52847 0.26622,-0.39734 0.39734,-0.26622 0.26622,-0.39735 0.26225,-0.39337 0.52846,-0.53244 0.39735,-0.52846 0.26622,-0.26225 0.52846,-0.66356 z m 33.60332,17.86057 h 1.05693 0.79469 l 0.79468,0.13113 0.79072,0.52846 0.79468,0.39735 0.79469,0.52846 0.52847,0.39735 0.52846,0.66356 0.1351,0.65959 0.13112,0.66356 0.13113,0.65959 -0.13113,1.06091 -0.13112,1.05693 -0.1351,0.65959 -0.13112,0.66357 -0.13112,0.52846 -0.1351,0.79469 -0.39337,0.65959 -0.1351,0.66356 -0.26224,0.65959 -0.1351,0.66356 v 0.65959 0.92581 l -0.13112,0.92581 -0.13113,0.79469 -0.26622,0.52847 -0.39734,0.52846 -0.26225,0.66357 v 0.52846 l -0.26622,0.79469 v 0.52847 l -0.26224,0.65959 -0.39735,0.53244 -0.53244,0.65959 -0.26224,0.52846 -0.52847,0.79469 -0.26622,0.66356 -0.39734,0.65959 -0.39735,0.65959 -0.39734,0.53244 -0.65959,0.65959 -0.79469,0.26622 -0.79468,0.39734 -0.92581,0.13113 h -0.92581 l -0.79072,-0.26622 -0.79468,-0.26225 -0.79469,-0.26622 -0.65959,-0.39734 -0.79468,-0.26225 -0.52847,-0.26622 h -1.19203 l -0.92581,-0.26622 -0.79469,-0.52847 -0.65959,-0.39734 -0.66356,-0.26224 -0.65959,-0.26622 -0.66356,-0.39735 -0.79072,-0.39734 h -0.79468 -1.45428 l -0.66356,-0.39337 -1.32316,-0.66356 -0.9258,-0.65959 -1.05694,-0.26622 -0.79468,-0.39735 -0.79469,-0.13112 -0.92581,-0.52847 -1.18806,-0.79468 -0.92978,-0.66357 -0.52847,-0.39337 -0.92581,-0.39734 -1.05693,-0.26622 -1.05693,-0.39734 -1.06091,-0.79469 -0.65959,-0.65959 -0.1351,-0.39734 0.1351,-0.65959 0.39734,-0.26622 0.79072,-0.39735 0.79468,-0.26224 0.92581,-0.39735 0.66357,-0.39734 0.92581,-0.13112 0.79071,-0.1351 1.06091,-0.26225 1.18805,-0.26622 0.66357,-0.52846 0.92581,-0.39734 0.79468,-0.52847 0.79469,-0.52847 0.79071,-0.26622 0.79469,-0.52846 0.92581,-0.52847 0.79468,-0.26622 0.65959,-0.39734 0.79469,-0.13113 1.05693,-0.52846 0.92581,-0.52847 0.79469,-0.39734 0.92581,-0.66357 0.66356,-0.39734 0.39735,-0.26225 1.18805,-0.39734 0.52847,-0.39734 0.92978,-0.39735 0.92581,-0.26224 h 1.05694 l 0.65958,-0.26622 0.53244,-0.26622 0.79072,-0.26225 1.0609,-0.52847 0.26225,-0.13509 0.39734,-0.13113 0.52847,-0.26622 0.39734,-0.13112 0.79469,-0.39734 z"
       transform="matrix(0.49154605,0,0,0.49154603,-4016.2505,2478.6061)" /></g></svg>
