<?xml version="1.0" encoding="UTF-8" standalone="no"?>
<!-- Created with Inkscape (http://www.inkscape.org/) -->

<svg
   width="77.354256mm"
   height="84.489418mm"
   viewBox="0 0 77.354257 84.489418"
   version="1.1"
   id="svg1"
   xml:space="preserve"
   xmlns="http://www.w3.org/2000/svg"
   xmlns:svg="http://www.w3.org/2000/svg"><defs
     id="defs1"><filter
       style="color-interpolation-filters:sRGB"
       id="filter593"
       x="0"
       y="0"
       width="1"
       height="1"><feMorphology
         radius="1.7000000000000002"
         in="SourceAlpha"
         result="result91"
         id="feMorphology592"
         operator="erode" /><feComposite
         operator="out"
         in="SourceGraphic"
         in2="result91"
         id="feComposite592" /><feGaussianBlur
         result="result0"
         stdDeviation="0.42 0.539"
         id="feGaussianBlur592" /><feDiffuseLighting
         diffuseConstant="1"
         id="feDiffuseLighting592"><feDistantLight
           elevation="66"
           azimuth="225"
           id="feDistantLight592" /></feDiffuseLighting><feBlend
         mode="multiply"
         in2="SourceGraphic"
         id="feBlend592" /><feComposite
         operator="in"
         in2="SourceAlpha"
         id="feComposite593" /></filter></defs><g
     id="layer1"
     transform="translate(-690.03596,-698.00843)"><path
       id="path1-1"
       d="m 727.68071,754.63915 -0.01,0.21508 -0.014,0.10583 -0.0553,0.58914 -0.1199,0.13759 -0.1976,0.13052 -0.1834,0.0529 -0.1941,-0.0247 -0.1164,-0.10584 c -0.30469,-0.059 -0.58649,-0.17785 -0.8623,-0.3145 l -0.1965,-0.14564 -0.6905,0.16952 -0.1603,0.36124 0.1411,0.0459 0.074,0.0353 0.088,0.06 0.095,0.067 0.1165,0.13758 0.046,0.0494 c 0.47324,0.29056 0.58683,0.0538 1.3617,0.52554 l 0.071,0.0388 0.1093,0.13406 0.2152,0.11994 0.1165,0.0882 c 0.31435,0.49935 1.50003,1.23688 1.5697,1.29464 l 0.1482,0.19403 c 0.19089,0.13003 0.39741,0.0924 0.6138,0.064 l 0.2681,-0.067 c 0.29739,-0.21834 0.003,-0.66446 -0.141,-0.95246 l -0.1728,-0.13405 c -0.38174,-0.26949 -0.70331,-0.58425 -0.9737,-0.96661 -0.18156,-0.25908 -0.11556,-0.57296 -0.091,-0.87137 l 0.078,-0.20108 c 0.20542,-0.36867 0.45317,-0.70741 0.695,-1.05833 l 0.2117,-0.21167 c 0.22491,-0.20152 0.26262,-0.23868 0.3879,-0.54328 l 0.067,-0.17286 0.011,-0.14816 -0.13101,-0.0719 -0.94999,0.42929 z"
       style="display:inline;fill:#8d9391;fill-opacity:1;stroke:none;stroke-width:0.265;stroke-linecap:round;stroke-linejoin:round;stroke-miterlimit:10;stroke-dasharray:none;stroke-opacity:1;filter:url(#filter593)" /><g
       id="g2"
       style="display:inline;fill:#8d9391;fill-opacity:1;stroke:none;stroke-width:1.00157;stroke-dasharray:none;stroke-opacity:1"
       transform="matrix(0.26458333,0,0,0.26458333,599.69271,514.06926)"><path
         id="path2-7"
         d="m 3590.3,841.102 -2.6,-3.204 -3.4,-3 -2.7,-0.898 -4.6,-1.301 -6.8,-0.898 -3.3,0.5 -3.4,0.5 -1.1,-0.199 -1,-1.602 -1.1,-2.102 -0.9,-1.5 -4.5,-1.296 -3.8,-0.5 -4.1,-1.301 -4.3,-1.602 c -8.4444,-3.08654 -17.1556,-5.35393 -25.8,-7.801 -2.4048,-0.78846 -10.3059,-3.39091 -20.6,-7.398 l -4.1,-2.398 -5.6,-2.704 -3.9,-1.097 -4,-1 -5.2,-1.903 -4.2,-1 -3.5,-1.199 -1.4,-0.699 -0.6,-0.398 -0.4,-1.602 -0.5,-2.801 -0.9,-2.5 -0.6,-1.597 -0.5,-1.403 -1.4,-1.597 -1.4,-0.801 -1.7,-0.5 -2.1,-0.699 -3.4517,-19.75992 30.4799,-11.8934 5.0718,10.75032 -0.2,0.801 -1.7,2.102 -0.9,2.199 -1.2,2 -1.6,1.301 -1.5,2.296 -1.1,2.704 0.6,2 0.7,0.597 2.6,0.699 3.5,0.5 3.3,0.5 5.2,1.5 c 7.3172,2.38504 14.6395,4.74905 21.9,7.301 10.5108,3.91197 21.2251,7.24693 31.9,10.699 l 4.6,1.403 4.9,1.5 4.4,1.5 2.3,0.5 1.6,-0.199 2.9,1 3.7,2.296 2.8,1.301 3.3,0.301 3.7,-1.102 c 38.8441,41.83348 52.9069,87.46372 68.9,140.403 l -3,-1.403 -2,-0.898 -4.1,-1.102 -5.1,0.301 -3.6,1.602 -3.8,1 -3,2 -4,2.301 -3.9,2.5 -3.2,2.097 -2.1,1.199 -2.1,1.102 -2.5,0.699 -2.9,1.5 -3.2,2.801 -5.8,3 -6.5,4.801 -9.2,-4.403 -3.7,-4.199 -3.7,-4.801 -0.5,-6.5 3.2,-6.199 1.3,-1.398 4,-0.5 3.4,-2.199 3.7,-3.204 4.2,-1.699 5,-1 2.7,-1.301 4,-2.699 4.4,-3.199 4,-1.898 3.1,-4.301 3.2,-0.903 2.4,-1.699 2.4,-3.199 v -1 l 1.4,-5.398 0.6,-2.602 -7.1,-8.699 -4.8,-2.5 -2,-1 -3.8,-0.199 -3.1,0.597 -3.9,1.602 -4,3.199 -3,2.102 -3.9,2.898 -3.2,1.801 -5.9,2.199 -5.2,3.898 -9.4,4.704 -6.1,6.199 -4,5.898 -6.2,3.301 -7.6,0.301 -7.7,-0.199 -6.2,-4.301 -4.8,-5.602 -1.3,-7.898 1.8,-5.102 4.4,-6.097 6,-3.602 6.7,-3.5 5.1,-2.898 7.7,-4.204 6.5,-5.296 5.1,-2.903 4.2,-1.398 2,-4.102 4.5,-4.5 4,-0.199 2.8,-1 2.3,-1.102 3.9,-4.796 2.6,-6.301 v -1 l 0.2,-1.301 0.5,-1.898 0.3,-1.704 -0.2,-1.199 -3,-9.097"
         style="fill:#8d9391;fill-opacity:1;stroke:none;stroke-width:7.51181;stroke-linecap:round;stroke-linejoin:round;stroke-miterlimit:10;stroke-dasharray:none;stroke-opacity:1"
         transform="matrix(0.13333333,0,0,-0.13333333,0,1066.6667)" /></g><path
       id="path3-23"
       style="display:inline;fill:#8d9391;fill-opacity:1;stroke:none;stroke-width:0.302;stroke-linecap:round;stroke-linejoin:round;stroke-miterlimit:10;stroke-dasharray:none;filter:url(#filter593)"
       d="m 726.06811,710.85919 0.063,0.0284 0.025,0.0248 0.05,0.0563 0.081,0.13746 0.1478,0.14469 0.1059,0.12351 0.057,0.19741 0.06,0.19378 0.049,0.20826 0.032,0.1695 -0.011,0.31729 -0.088,0.29301 -0.088,0.1974 -0.1483,0.18345 -0.155,0.0708 -0.3457,0.0847 -0.2403,-0.0284 -0.04,-0.0775 v -0.22221 l 0.018,-0.23306 0.011,-0.29972 0.024,-0.20464 -0.018,-0.23255 -0.074,-0.16588 0.067,-0.15554 0.035,-0.18655 0.039,-0.15555 -0.028,-0.25011 0.042,-0.13436 0.1338,-0.0739 h 5e-4 z m 1.8841,1.28416 0.1127,0.014 0.1731,0.10594 0.1199,0.0884 0.099,0.10232 0.032,0.0884 0.01,0.10904 0.022,0.0951 -0.201,0.12351 -0.1375,0.078 -0.1447,-0.0109 -0.1235,-0.0424 -0.1307,-0.0739 -0.1447,-0.0424 -0.081,-0.0315 -0.07,-0.0393 -0.071,-0.0388 0.028,-0.12661 0.074,-0.13074 0.1131,-0.0884 0.1375,-0.0491 0.089,-0.0884 z m 4.4974,1.73271 0.1127,0.0212 0.2367,0.10232 0.187,0.12713 0.074,0.0599 0.046,0.12351 0.032,0.11989 -0.032,0.18345 v 0.16898 c -0.049,0.23174 -0.031,0.4447 0,0.67386 l 0.095,0.21188 0.071,0.1726 0.1018,0.2222 0.053,0.15917 0.074,0.2961 0.042,0.19741 0.071,0.26458 0.01,0.14108 -0.085,0.13436 -0.201,0.25734 -0.2573,0.25064 c -0.8633,0.67636 -1.5706,1.50475 -2.018,2.51199 l -0.1162,0.18655 -0.092,0.14108 5e-4,-0.004 -0.028,0.11266 -0.1054,0.26096 -0.2047,0.27182 -0.2434,0.16226 -0.2894,0.13385 -0.2754,0.0744 -0.1659,0.0103 -0.1266,-0.0987 -0.011,-0.12712 -0.014,-0.1478 -0.032,-0.13435 0.1199,-0.15142 0.045,-0.0455 0.1271,-0.1447 0.1519,-0.13074 0.1623,-0.0951 0.067,-0.10232 0.074,-0.13798 0.064,-0.13746 c 0.519,-1.48116 0.1981,-1.44744 0.5286,-2.46238 l 0.085,-0.2713 0.091,-0.1943 0.05,-0.29301 -0.1798,-0.22892 -0.1344,-0.0987 -0.201,-0.24029 -0.064,-0.13384 -0.021,-0.20464 -0.1126,-0.40566 -0.092,-0.35657 0.201,-0.47597 0.2614,-0.12712 0.1974,-0.0739 0.3137,-0.1695 0.2646,-0.10232 0.2403,-0.11265 0.1798,-0.0563 0.4796,-0.23306 z m -6.1024,1.4149 0.2713,0.0103 0.2046,0.0212 0.1271,0.0388 0.039,0.0884 0.078,0.2186 0.1023,0.14831 0.088,-0.007 0.2362,-0.046 0.3457,-0.0351 0.3917,-0.004 0.5576,-0.0563 0.1266,0.007 0.1235,0.0599 0.067,0.0847 0.2295,0.5643 0.1199,0.29611 0.088,0.17312 0.141,0.23616 0.045,0.15864 v 0.2155 l -0.028,0.15141 c 0.2555,1.18584 -0.1263,1.86253 -0.8461,2.82618 -0.1746,0.2337 -0.271,0.49639 -0.3742,0.76533 l -0.1447,0.3421 -0.2289,0.44441 -0.1943,0.39533 -0.1271,0.3421 0.064,0.1974 0.2155,0.15916 0.064,0.12661 -0.01,0.13798 0.011,0.17621 0.081,0.18707 0.1555,0.10542 0.018,0.0145 0.064,0.0739 0.042,0.0775 0.024,0.13798 0.011,0.21136 v 0.21859 l 0.024,0.15193 0.011,0.27182 -0.021,0.14469 -0.011,0.12299 0.042,0.18707 v 0.0176 l 0.046,0.18707 0.056,0.27181 0.053,0.27492 -0.057,0.28939 -0.1441,0.22944 v 0.001 l -0.035,-0.0212 -0.085,-0.0315 -0.053,-0.0212 -0.085,-0.046 -0.042,-0.0284 -0.074,-0.0212 -0.049,-0.0279 -0.1484,-0.0393 -0.1658,-0.0739 -0.2894,-0.0884 -0.4233,-0.17984 -0.5782,-0.20464 -0.5752,-0.18345 -0.5788,-0.23254 -0.1266,-0.0424 -0.1379,-0.0775 -0.078,-0.0388 -0.1623,-0.0811 -0.1762,-0.0388 -0.201,-0.092 c -0.5043,-0.17734 -0.9275,-0.4338 -1.1679,-0.91733 l -0.067,-0.0951 -0.014,-0.0315 -0.046,-0.1235 -0.045,-0.1695 v -0.11989 l -0.046,-0.43408 -0.042,-0.39171 0.018,-0.35967 0.01,-0.37362 0.011,-0.24391 V 721.751 l -0.088,-0.10956 -0.064,-0.0496 -0.057,-0.0636 -0.035,-0.0388 -0.028,-0.12661 -0.027,-0.0884 -0.035,-0.0351 -0.1308,-0.0744 -0.1023,-0.15141 v -0.0284 l -0.021,-0.11265 0.01,-0.12351 v -0.0708 l -0.032,-0.0424 -0.099,-0.0388 -0.046,-0.0139 -0.021,-0.0109 -0.074,-0.0388 -0.078,-0.0424 -0.1338,-0.13023 -0.046,-0.0884 -0.067,-0.11628 -0.056,-0.0811 -0.042,-0.0987 0.018,-0.0775 0.014,-0.032 v -0.004 l -0.039,-0.0956 0.2785,-0.2434 0.2186,-0.14469 0.1659,-0.18655 0.1555,-0.16227 0.1835,-0.2191 0.201,-0.19017 0.155,-0.13074 0.2507,-0.17984 0.187,-0.014 0.3313,-0.004 0.067,0.007 0.1162,0.0357 0.1835,0.0847 0.1483,0.0811 0.088,0.11265 0.056,0.06 0.1659,-0.15865 0.123,-0.19069 0.1131,-0.24701 0.018,-0.0703 -0.039,-0.0424 -0.1162,-0.0491 -0.1835,-0.0605 -0.1131,-0.0599 -0.1199,-0.11989 -0.039,-0.23978 0.014,-0.17622 0.011,-0.19068 0.1126,-0.23306 0.1623,-0.17622 0.1447,-0.14108 0.1871,-0.13384 0.1586,-0.11989 0.071,-0.21549 0.028,-0.0951 0.042,-0.0811 0.1555,-0.15864 0.2114,-0.14108 0.2682,-0.16588 0.1762,-0.10594 z m -6.6012,4.08502 0.1478,0.0284 0.035,0.007 0.053,0.0176 0.074,0.0636 0.032,0.0532 0.057,0.0987 0.077,0.14469 0.056,0.13746 0.064,0.11317 0.081,0.12299 0.1271,0.11317 0.1023,0.17622 0.1866,0.1695 0.1204,0.0739 0.2325,0.11989 0.1907,0.13074 0.1447,0.10955 0.099,0.0951 0.095,0.13022 0.1023,0.12351 0.1308,0.15554 0.1338,0.13746 0.088,0.0987 0.1199,0.2186 0.021,0.17311 v 0.18345 l -0.022,0.19379 0.01,0.21911 -0.013,0.1974 0.01,0.21498 -0.052,0.0956 -0.05,0.0243 -0.018,-0.004 -0.109,-0.0496 -0.096,-0.046 -0.1659,-0.0775 -0.095,-0.0708 -0.215,-0.1478 -0.2222,-0.17311 -0.2258,-0.14108 -0.2754,-0.20826 -0.2259,-0.21497 -0.2289,-0.20464 -0.1871,-0.17621 -0.1834,-0.16227 -0.1907,-0.15916 -0.1271,-0.13023 -0.1623,-0.11989 -0.059,-0.0708 -0.074,-0.11989 -0.053,-0.16227 v -0.20825 l 0.018,-0.19379 0.064,-0.17673 0.067,-0.20774 0.06,-0.20102 0.025,-0.10232 0.088,-0.19069 z m -0.8392,2.69131 0.279,0.13022 0.1587,0.10594 0.3772,0.28577 0.2822,0.18707 -0.3173,0.61392 -0.074,0.0842 v 0.13436 l 0.01,0.0987 0.053,0.19068 0.092,0.15503 0.046,0.0636 0.064,0.19017 0.049,0.15192 0.032,0.092 0.014,0.16898 v 0.046 l -0.046,0.11989 -0.1302,0.0176 h -0.1308 l -0.1659,-0.014 -0.2894,-0.06 -0.2113,-0.0599 -0.1096,-0.11989 -0.078,-0.2434 -0.1695,-0.24701 -0.1622,-0.10232 -0.2295,-0.17983 -0.08,-0.0284 0.1411,-0.50798 0.056,-0.14832 0.065,-0.16898 0.03,-0.10955 0.022,-0.0739 0.018,-0.14108 0.021,-0.0847 0.01,-0.0569 v -0.11265 l 0.035,-0.0951 0.031,-0.0956 0.028,-0.0527 0.032,-0.046 0.046,-0.0315 0.085,-0.0357 0.046,-0.0103 z m 23.8044,14.47964 -1.3275,-0.67994 -0.4341,-0.26096 -0.2785,-0.12713 -0.2997,-0.12712 -0.2822,-0.15503 -0.279,-0.11989 -0.2259,-0.0811 -0.2222,-0.11317 -0.2361,-0.16227 -0.1763,-0.12712 -0.2015,-0.17983 -0.1163,-0.0739 -0.1338,-0.004 -0.085,0.0176 -0.2083,0.0109 -0.1162,-0.0109 -0.1871,-0.0703 -0.1835,-0.11679 -0.2893,-0.20102 -0.3101,-0.25735 -0.1519,-0.12712 -0.1799,-0.15503 -0.1023,-0.12351 0.088,-0.46922 0.138,-0.41289 0.155,-0.26097 0.2434,-0.28577 0.2367,-0.25425 0.1902,-0.20102 0.1555,-0.20774 0.1938,-0.10232 0.2186,-0.0672 0.1622,-0.15192 0.081,-0.17622 0.092,-0.21497 0.077,-0.0569 0.1835,-0.0527 0.2434,-0.0388 0.3281,-0.0424 0.2112,-0.0182 0.3002,0.0393 0.1938,0.0248 0.4832,0.0703 h 5e-4 l 0.2573,0.0496 0.1447,0.10594 0.1835,0.19378 0.2713,0.25735 0.3033,0.22583 h 5e-4 l 0.3664,0.27543 0.3778,0.30696 0.3529,0.33125 0.1974,0.18345 0.106,0.31781 -0.01,0.21859 -0.035,0.3669 -0.067,0.36329 -0.039,0.25425 -0.081,0.27853 -0.1308,0.22583 -1.2717,3.39554 -0.2286,0.45128 -0.155,0.26097 -0.1411,0.24339 -0.1271,0.25374 -0.1623,0.27543 -0.2186,0.26097 -0.2227,0.21859 -0.261,0.17983 -0.3173,0.16227 -0.247,0.092 -0.3845,0.0599 h -0.3529 l -0.3948,-0.004 -0.3638,-0.0212 -0.3457,-0.0636 -0.215,-0.0739 -0.2997,-0.20463 -0.198,-0.15865 -0.099,-0.10956 -0.039,-0.14779 -0.1374,-0.26458 -0.1096,-0.1695 -0.084,-0.092 -0.2155,-0.32814 -0.155,-0.26769 -0.06,-0.092 -0.01,-0.15141 v -0.2682 l -0.031,-0.22945 -0.028,-0.20825 0.021,-0.27492 0.053,-0.32453 0.045,-0.24339 0.05,-0.19792 0.1199,-0.23617 0.1235,-0.20463 0.1338,-0.24702 0.1308,-0.21859 0.067,-0.0951 -0.4589,-0.24805 -0.3399,0.14875 -0.5088,0.63918 -0.2416,0.53587 -0.1199,0.41961 -0.05,0.47646 0.056,0.55397 0.1344,0.47956 0.1266,0.28577 0.1623,0.43046 0.2367,0.49041 0.2573,0.3421 0.1695,0.21859 0.077,0.1943 -0.025,0.15865 -0.018,0.15141 0.095,0.22945 0.2331,0.10232 0.1834,-0.0672 0.201,-0.0667 0.2822,0.0878 0.4165,0.21911 0.3948,0.17984 0.5049,0.10542 0.3808,-0.0631 0.4729,-0.18707 0.3488,-0.0563 0.3917,-0.22582 0.3881,-0.21911 c 0.3277,-0.0999 0.4669,-0.33047 0.6702,-0.58911 l 0.261,-0.27854 0.3566,-0.39532 0.2222,-0.30334 0.1695,-0.23978 0.5074,-0.38385 1.0849,-3.71878 0.201,-0.37052 0.1519,-0.49041 0.1024,-0.34881 0.032,-0.47284 -0.099,-0.50798 -0.2471,-0.53279 -0.31,-0.49764 -0.3282,-0.44442 -0.2893,-0.23616 -0.2507,-0.22944 -0.1938,-0.14108 -0.064,-0.17312 -0.085,-0.28215 -0.046,-0.17983 0.1235,-0.22945 0.1768,-0.33848 0.078,-0.20102 0.1271,-0.23616 0.1762,-0.339 0.095,-0.29249 -0.1411,-0.12712 -0.2325,-0.17622 -0.2367,-0.0889 -0.1478,-0.0775 -0.1132,0.11627 -0.1483,0.2651 -0.1974,0.38395 -0.2961,0.42737 -0.2015,0.26406 -0.261,0.1695 -0.1762,0.0496 -0.3033,0.0248 -0.3421,-0.0496 -0.4589,-0.0491 -0.3773,0.046 -0.4268,0.0558 -0.4976,0.18707 -0.3633,0.0884 -0.2998,-0.0145 -0.2609,-0.13384 -0.1096,-0.11679 -0.078,-0.0527 -0.1907,0.15245 -0.078,0.14728 -0.1235,0.0677 -0.035,0.0558 0.07,0.17984 0.053,0.2682 -0.011,0.19068 -0.187,0.29611 -0.2574,0.35657 -0.2609,0.48679 -0.2755,0.41599 -0.3281,0.37414 c -0.1936,0.14245 -0.3463,0.20741 -0.5819,0.23254 -0.1444,-0.0318 -0.2608,-0.12454 -0.3845,-0.20153 l -0.155,-0.0842 -0.1483,-0.0811 -0.4305,-0.11679 -0.494,-0.14469 -0.1199,-0.0388 -0.085,-0.0527 -0.1266,-0.0811 -0.1204,-0.0527 -0.1023,-0.0532 -0.081,-0.046 -0.1236,-0.0491 -0.046,-0.0109 -0.018,-0.0243 -0.018,-0.032 -0.018,-0.0279 v -5.1e-4 l -0.01,-0.0279 -0.025,-0.0739 -0.01,-0.0708 0.01,-0.0775 0.01,-0.0388 0.018,-0.1447 0.056,-0.1235 0.028,-0.0496 0.1091,-0.0987 0.06,-0.0351 0.01,-0.0212 0.1343,-0.25425 0.067,-0.10542 0.078,-0.1695 0.099,-0.14469 0.1023,-0.11628 0.078,-0.0672 0.049,-0.0388 0.081,-0.16227 0.1308,-0.2682 0.1514,-0.26096 0.1623,-0.22945 0.1343,-0.1726 0.1623,-0.22582 0.1411,-0.23668 0.085,-0.16536 0.091,-0.20464 0.1695,-0.25787 0.1271,-0.15141 0.1411,-0.20826 0.1162,-0.20464 0.1339,-0.27491 0.1023,-0.19431 0.06,-0.0563 0.024,-0.0424 0.036,-0.0739 0.053,-0.0992 0.046,-0.0599 0.1127,-0.15503 0.067,-0.10232 0.099,-0.14469 0.1126,-0.1726 0.067,-0.13436 0.028,-0.11266 0.042,-0.14107 0.064,-0.13436 0.081,-0.11989 0.1054,-0.15141 0.1024,-0.13798 0.081,-0.11989 0.1235,-0.16898 0.1695,-0.20464 0.1235,-0.17673 0.1658,-0.2434 0.095,-0.23254 0.1344,-0.2403 0.1514,-0.1726 0.1695,-0.21497 0.1726,-0.21187 0.1483,-0.22221 0.056,-0.13436 0.028,-0.0775 0.035,-0.0563 0.1483,-0.23306 0.091,-0.10181 v -5.1e-4 l 0.1799,-0.26769 0.1379,-0.1943 0.307,-0.38809 0.099,-0.14469 0.1023,-0.16537 0.106,-0.1943 0.1126,-0.21859 0.085,-0.17674 0.074,-0.11265 0.1447,-0.20464 0.095,-0.15141 0.096,-0.18345 0.1023,-0.21911 0.077,-0.10904 0.07,-0.0811 0.1447,-0.17983 0.096,-0.13436 0.091,-0.1447 0.106,-0.15864 0.099,-0.13385 0.056,-0.0672 0.1023,-0.10593 0.053,-0.0703 0.032,-0.0496 0.1586,-0.16588 0.046,-0.12351 0.053,-0.0667 0.057,-0.0816 0.067,-0.0951 0.074,-0.11627 0.053,-0.0987 0.085,-0.13436 0.6,-0.59583 0.1762,-0.33538 0.085,-0.19378 0.1798,-0.44494 0.8041,-0.82889 0.2295,-0.15141 0.1974,-0.22221 0.1483,-0.34933 0.2754,-0.43047 0.3597,-0.48679 0.1374,-0.21549 0.1344,-0.19017 0.095,-0.0987 0.1271,-0.13436 0.035,-0.046 0.07,-0.13023 0.018,-0.032 0.014,-0.0176 0.032,-0.046 0.057,-0.0879 0.074,-0.11627 0.074,-0.12351 0.06,-0.0992 0.077,-0.12299 0.106,-0.16589 0.1235,-0.14831 0.081,-0.13074 0.1302,-0.17621 0.096,-0.12713 0.064,-0.18707 0.261,-0.46353 0.2894,-0.37569 0.1126,-0.10956 0.067,-0.0703 0.095,-0.1204 0.1168,-0.19017 0.1023,-0.15865 0.077,-0.19068 0.042,-0.10956 0.091,-0.14779 0.1271,-0.13798 0.1272,-0.17983 c 0.3508,-0.45009 0.4528,-0.83117 0.8077,-1.38954 v -5.2e-4 l 0.025,-0.0739 0.025,-0.10903 0.021,-0.15193 0.021,-0.12713 0.018,-0.24339 0.018,-0.19017 v -0.1447 -0.18345 c -0.1454,-0.97064 0.079,-1.90762 0.2142,-2.8649 l 0.046,-0.29249 0.067,-0.3917 0.07,-0.37052 0.078,-0.37724 0.095,-0.34572 0.1059,-0.38137 0.06,-0.28887 0.06,-0.30024 0.081,-0.35967 0.071,-0.32453 0.059,-0.23254 0.064,-0.27544 0.053,-0.21859 -0.4268,-0.21859 -0.4625,-0.0708 -0.1303,0.57516 -0.089,0.31006 v 5.2e-4 l -0.05,0.17983 -0.059,0.3669 -0.046,0.30696 -0.028,0.15503 -0.049,0.19069 -0.064,0.29249 -0.067,0.30695 -0.081,0.3142 -0.092,0.31006 -0.1689,0.41651 -0.018,0.014 -0.011,0.14108 -0.01,0.32142 c -0.1029,0.66389 -0.3479,3.13861 -0.3279,3.59153 l -0.018,0.31057 -0.088,0.2434 -0.088,0.23616 -0.067,0.22221 c -0.6387,1.2981 -0.028,-0.004 -0.6388,1.12227 l -0.1519,0.23668 -0.1302,0.23255 -0.081,0.14469 -0.074,0.11627 -0.024,0.007 v 0 l -0.081,-0.0987 -0.056,-0.092 -0.032,-0.0424 -0.1163,-0.18346 -0.067,-0.12299 v -5.1e-4 l -0.06,-0.0915 c -0.3413,-0.55325 0.064,0.003 -0.2931,-0.72655 l -0.049,-0.0775 -0.025,-0.0145 -0.1938,0.0387 -0.1622,0.0672 -0.081,0.0599 -0.1199,0.077 -0.1556,0.13436 -0.081,0.11266 0.018,0.13436 0.036,0.11317 c 0.1167,0.30941 0.2571,0.58078 0.462,0.83927 l 0.039,0.0847 0.046,0.15503 0.064,0.13746 0.053,0.0636 0.032,0.0599 0.025,0.0248 0.025,0.0176 0.039,0.06 0.039,0.0351 0.043,0.0388 v 5.2e-4 l 0.021,0.0243 -0.039,0.0744 -0.021,0.063 -0.021,0.0636 -0.06,0.0563 -0.084,0.0356 -0.1023,0.0248 -0.1023,0.0419 -0.05,0.0212 -0.028,-0.0176 -0.067,-0.0987 -0.067,-0.22944 -0.061,-0.15141 -0.088,-0.1695 -0.088,-0.18345 c -0.3563,-0.74442 -0.1603,-0.5835 -0.4021,-1.04387 l -0.06,-0.13797 -0.046,-0.16898 -0.025,-0.0532 -0.035,-0.0667 -0.081,0.004 -0.1447,0.0145 -0.1343,-0.0248 -0.1163,-0.0496 -0.1514,-0.0703 -0.1308,-0.13075 -0.06,-0.0599 -0.028,-0.0739 -0.056,-0.10232 -0.046,-0.15554 -0.018,-0.0847 -0.032,-0.0739 c -0.6228,-0.3327 -0.5082,-0.61548 -0.927,-0.54687 l -0.1483,-0.0103 -0.1235,0.0388 -0.084,0.0387 -0.1938,0.16537 -0.064,0.0636 -0.064,0.0744 -0.031,0.10594 0.014,0.12661 0.056,0.10232 0.077,0.15193 0.099,0.13746 c 0.2894,0.37133 0.7211,0.55176 1.0873,0.82893 l 0.021,0.0108 0.071,0.0315 0.042,0.014 0.018,0.007 h 5e-4 l 0.014,0.0145 0.088,0.0315 0.1271,0.11989 0.1059,0.20102 0.1308,0.14469 0.1054,0.11989 0.074,0.17622 c 0.2627,0.83638 0.1686,0.12347 0.5255,1.33377 0.2037,0.55983 0.2289,0.64043 0.1697,0.96996 l -0.025,0.0775 -0.021,0.0739 -0.01,0.0284 v 0.0951 l -0.8372,1.17461 -5e-4,0.002 -0.069,0.17828 -0.1126,0.22944 -0.1344,0.19069 -0.2114,0.23616 -0.2542,0.339 -0.1152,0.0848 -6e-4,5.1e-4 h -5e-4 l -0.9818,1.37873 v 0.004 l -0.039,0.0625 -0.1447,0.22583 -0.1308,0.22221 -0.1441,0.20464 -0.1623,0.20825 -0.1344,0.17622 -0.1162,0.12712 -0.018,0.0191 v 5.2e-4 0.003 l -0.8661,1.21543 -0.035,0.0641 -0.6439,0.28939 -0.2698,-0.90641 -0.028,-0.52916 0.01,-0.42375 v -0.49713 l 0.018,-0.21859 v -5.2e-4 -0.0527 -0.0424 l 0.014,-0.21136 c 0.074,-0.46868 0.1557,-0.90523 0.063,-1.37614 l -0.018,-0.17622 c -0.1445,-1.4042 0.051,-2.84053 0.4861,-4.19461 l 0.2149,-0.56431 0.06,-0.36328 0.021,-0.30386 0.021,-0.45475 0.064,-0.42685 0.035,-0.21549 0.036,-0.28577 0.021,-0.004 h 0.067 l 0.056,0.007 0.056,0.0145 0.1763,0.0315 h 5e-4 l 0.123,0.0424 0.1168,0.0811 0.1338,0.11627 0.074,0.0491 0.1054,-0.0145 0.1199,-0.0915 0.053,-0.0884 0.088,-0.20464 0.018,-0.12661 -0.01,-0.15916 -0.01,-0.15503 -0.028,-0.19741 0.028,-0.23977 0.06,-0.17312 0.07,-0.0739 0.201,-0.0641 0.1979,-0.0315 0.1199,-0.0248 c 0.7548,-0.23837 0.7375,-0.09 1.0687,-0.247 l 0.1695,-0.0739 0.201,-0.0744 0.2362,-0.0775 0.074,-0.046 -0.011,-0.0739 -0.021,-0.12351 -0.053,-0.0915 v -5.1e-4 l -0.035,-0.10181 v -5.1e-4 l -0.042,-0.10542 -0.036,-0.0987 -0.067,-0.0605 v 0.004 l -0.07,0.0109 -0.1695,0.014 -0.1556,0.0315 c -0.387,0.0784 -0.777,0.1413 -1.1637,0.2216 l -0.1979,0.0357 -0.056,-0.0176 -0.035,-0.0847 -0.021,-0.046 0.088,-0.11317 -0.01,-0.13384 c -0.1799,-0.20362 -0.2912,-0.45028 -0.4305,-0.6811 l 0.1131,-0.26768 0.1339,-0.1695 v -0.12351 l 0.4165,-0.25424 0.3876,-0.1726 0.3917,-0.1695 0.2718,-0.22893 0.4444,0.0672 0.1938,-0.16588 0.2579,-0.004 0.2609,0.0527 0.042,-0.12351 0.2362,0.0708 0.261,0.0703 0.1622,-0.0739 0.067,-0.16588 -0.05,-0.23616 -0.4444,-0.10594 -0.1798,-0.17983 -0.4971,-0.27182 -0.01,-0.23616 0.1658,-0.19069 0.1551,-0.13074 0.096,-0.11989 v -0.10904 l -0.3602,-0.14831 -0.1235,-0.29972 0.042,-0.33538 0.233,-0.54674 0.2078,-0.76533 0.032,-0.34261 0.042,-0.2434 0.2573,-0.33486 -1.0652,0.0999 -0.1938,0.32814 -0.1132,0.67696 -0.3033,1.25626 -0.091,0.40566 0.1054,0.30696 -0.018,0.22892 -0.1127,0.17312 -0.064,0.1726 -0.01,0.11679 -0.2149,0.11627 -0.2682,0.10955 -0.2786,0.13746 -0.096,0.23978 -0.043,0.17312 -0.1659,0.11627 -0.2718,0.0811 -0.1163,0.19017 -0.1235,0.21549 -0.1059,0.18345 -0.1447,0.28577 -0.2258,0.16227 -0.1654,0.0987 -0.088,0.0496 -0.05,0.0775 v 0.0103 l -0.049,0.17983 c -0.1608,0.43756 -0.4661,0.73966 -0.9209,0.82571 l -0.155,-0.0351 -0.1095,-0.0599 -0.106,-0.0636 -0.1411,-0.0212 -0.1162,-0.007 -0.1344,-0.0563 -0.2573,-0.0563 -0.1411,-0.0109 -0.056,-0.0424 -0.084,-0.14108 -0.039,-0.14469 -0.014,-0.22221 v -0.13746 -0.0889 l -0.067,-0.10232 -0.084,-0.0987 -0.1132,-0.10594 -0.095,-0.11265 -0.036,-0.0594 -0.067,0.0424 -0.1023,0.0879 -0.056,0.0775 -0.1132,0.092 -0.215,0.0847 -0.1167,0.0424 -0.1587,0.0848 -0.1938,0.0346 -0.1162,-0.0527 h -6e-4 l -0.07,-0.0956 -0.01,-0.0703 0.028,-0.17674 -0.021,-0.14779 -0.05,-0.0284 -0.095,-0.0243 -0.1374,-0.0217 h -0.081 l -0.053,0.0563 -0.06,0.0708 -0.081,0.0811 -0.092,0.18707 -0.064,0.0847 -0.1235,0.12351 -0.1938,0.0842 -0.046,0.14469 -0.05,0.29301 -0.1447,0.17983 -0.064,0.0672 -0.1266,0.21859 -0.1168,0.3173 -0.035,0.14469 0.042,0.49403 0.039,0.22582 0.014,0.22583 v 0.2682 l -0.039,0.18655 v 5.2e-4 l -0.039,0.0703 -0.064,0.11627 -0.032,0.14108 0.024,0.30385 -0.01,0.14418 -0.011,0.13436 -0.1023,0.11989 -0.1974,0.10232 -0.2222,0.0248 -0.1096,-0.0212 -0.2113,-0.0672 -0.1835,-0.0739 -0.3318,-0.16588 -0.2718,-0.15555 -0.2077,-0.14418 -0.2191,-0.14469 -0.1199,-0.046 -0.062,0.0351 -0.043,0.0563 -0.06,0.0956 -0.1308,0.2713 -0.06,0.15916 0.01,0.063 0.1411,0.0708 0.078,0.0315 0.261,0.11679 0.2222,0.15141 0.085,0.092 0.095,0.0951 0.053,0.0636 0.085,0.0388 0.085,0.0351 0.2398,0.0708 0.3638,0.0248 0.1834,0.0176 0.2646,0.0739 0.3209,0.11989 0.2258,0.0532 0.2502,0.0212 h 5e-4 l 0.3312,-0.0563 0.3106,-0.032 0.2046,0.0212 0.1303,0.0212 0.099,0.0176 0.2361,0.0563 0.1695,0.092 0.049,0.0636 0.039,0.0879 0.046,0.092 0.042,0.15193 0.032,0.19069 0.014,0.18707 0.01,0.0951 0.011,0.0842 -0.01,0.19741 -0.01,0.15193 -0.028,0.15864 -0.021,0.0775 -0.018,0.10955 -0.046,0.0527 -0.2615,0.2682 -0.1968,0.15865 -0.1768,0.10232 -0.2573,0.15864 -0.152,0.0811 -0.1591,0.0672 -0.2749,0.0915 -0.1969,0.0708 -0.2367,0.11627 -0.1592,0.11989 -0.067,0.13436 -0.1478,0.20102 -0.1416,0.14831 -0.1302,0.0884 -0.1162,0.0842 -0.4341,0.0848 -0.1762,0.0744 -0.021,0.0176 -0.1695,0.0915 -0.2398,0.0889 -0.2295,0.0842 -0.2821,0.10904 -0.2083,0.0672 -0.2258,0.0889 -0.1586,0.077 -0.1763,0.0646 -0.141,0.0739 -0.1447,0.0424 -0.2719,0.0703 -0.2749,0.015 -0.233,0.014 -0.2822,-0.0491 -0.011,-0.004 -0.095,-0.0496 -0.1095,-0.0279 -0.123,-0.0496 -0.1623,-0.0599 -0.078,-0.0388 -0.1163,-0.092 -0.088,-0.10904 -0.014,-0.11317 0.01,-0.10594 0.045,-0.21136 0.028,-0.13435 0.018,-0.33125 -0.014,-0.21187 -0.018,-0.1447 -0.1131,-0.0987 -0.1726,-0.12351 -0.1447,-0.0636 -0.1132,-0.0315 -0.2362,-0.0351 -0.1834,-0.0424 0.011,-0.26096 0.039,-0.17312 -0.064,-0.14831 -0.1271,-0.0563 -0.074,-0.0636 -0.025,-0.27182 -0.046,-0.10542 -0.1375,-0.18345 -0.021,-0.2682 -0.01,-0.20825 -0.053,-0.14108 -0.099,-0.0496 -0.081,0.004 -0.2299,0.0388 -0.1546,0.0109 -0.1136,0.0775 -0.099,0.11627 -0.098,0.1943 0.064,0.17984 v 0.13022 l -0.036,0.13074 -0.078,0.11266 -0.1659,0.10955 -0.1127,-0.0527 -0.092,-0.0848 -0.1865,-0.21549 -0.1447,-0.12661 -0.2011,-0.15554 -0.1483,-0.10594 -0.053,0.004 -0.095,0.10593 -0.1095,0.0987 -0.2186,0.13436 -0.3209,0.23978 -0.1339,0.10904 -0.2118,0.37775 -0.064,0.26097 -0.2398,0.25735 -0.1132,-0.0315 -0.1834,-0.0496 -0.1587,-0.11989 -0.1514,-0.0811 -0.053,0.032 -0.053,0.14832 -0.081,0.15503 -0.081,0.21187 -0.053,0.15865 -0.056,0.0811 -0.078,0.0248 h -0.1375 l -0.071,0.0315 -0.036,0.13385 -0.021,0.11679 0.01,0.10231 0.021,0.0491 0.049,0.0387 0.1344,0.0284 0.247,0.046 0.2677,0.0811 h 5e-4 l 0.2326,0.0915 0.1586,0.0315 0.088,0.0956 0.056,0.2465 -0.035,0.15554 -0.092,0.0806 -0.1023,0.0393 -0.2047,0.10904 -0.01,0.0145 -0.011,0.004 -0.091,0.0176 -0.01,0.0987 0.011,0.15141 -0.043,0.16588 -0.084,0.30334 -0.089,0.19741 -0.084,0.24029 -0.035,0.22221 v 0.13023 l -0.025,0.20825 -0.084,0.10594 -0.1726,0.26458 -0.1307,0.0708 -0.2827,0.10542 -0.1514,0.0362 -0.084,0.01 -0.064,0.015 -0.156,0.0419 -0.1297,0.0356 -0.096,0.046 -0.1447,0.22531 -0.1096,0.13074 -0.1798,0.29611 -0.1199,0.22944 -0.088,0.22945 -0.014,0.25735 -0.011,0.23306 0.046,0.24339 -0.095,0.15141 -0.2119,0.27906 -0.2821,0.37 v 5.2e-4 l -0.1272,0.15864 -0.088,0.1447 -0.1131,0.0103 -0.2471,0.0212 -0.2785,-0.0987 -0.1338,-0.0672 -0.081,0.0382 -0.074,0.0114 -0.106,-0.0176 -0.095,-0.0393 -0.2258,-0.0884 -0.155,-0.0424 -0.2083,-0.0739 -0.099,-0.0496 -0.01,0.0708 -0.01,0.14108 -0.01,0.0884 -0.014,0.20412 -0.018,0.13797 -0.018,0.0951 -0.028,0.0811 -0.074,0.12351 -0.091,0.15503 -0.1095,0.15864 -0.046,0.0884 -0.021,0.10232 -0.021,0.14108 -0.01,0.0744 -0.036,0.1018 v 5.2e-4 l -0.074,0.0806 -0.01,0.007 -0.1096,-0.004 -0.088,-0.031 -0.056,-0.0284 -0.1483,-0.0775 -0.2222,-0.13746 -0.1307,-0.11989 -0.1266,-0.13435 -0.1799,-0.1478 -0.1834,-0.15193 c -0.2875,-0.20396 -0.5623,-0.421 -0.8646,-0.60306 l -0.2894,-0.19069 -0.2258,-0.16226 -0.2046,-0.17622 -0.2078,-0.17673 -0.2894,-0.23255 -0.2573,-0.14107 -0.1096,-0.0563 -0.1813,0.25425 -0.2527,0.34158 0.1519,0.0992 0.1478,0.0987 0.1483,0.12351 0.1307,0.11265 0.2047,0.16227 0.1447,0.0987 0.1514,0.11317 0.1447,0.0879 0.1059,0.0672 0.099,0.0775 0.028,0.0357 0.056,0.0951 0.018,0.10594 v 0.11266 0.0811 l 0.2858,0.25425 0.085,0.0351 0.1338,0.0884 c 0.2384,0.15746 0.4853,0.29574 0.7302,0.44082 l 0.092,0.0527 0.109,0.0532 0.1943,0.13384 0.064,0.0915 0.085,0.10955 0.1127,0.11627 0.05,0.10956 0.1054,0.25063 -0.014,0.21136 -0.071,0.27543 -0.084,0.23978 -0.096,0.31729 -0.081,0.27906 -0.067,0.20463 -0.053,0.16899 -0.01,0.1695 0.01,0.13074 0.011,0.15141 -0.1834,0.21187 -0.2223,0.0915 -0.3245,-0.10955 -0.1586,0.0744 -0.1483,0.11989 -0.099,0.11627 0.01,0.26458 v 0.17984 l 0.247,0.1235 0.2155,0.0775 0.1937,0.0605 0.3954,0.20102 0.2785,-0.0284 0.4868,0.0744 0.2155,0.0806 0.2713,0.0847 0.2754,0.0284 0.3421,-0.014 0.2259,0.0636 0.2537,0.0667 0.4656,0.0811 h 5e-4 l 0.088,0.0599 -0.031,0.10594 0.095,0.1943 0.021,0.0455 -0.01,0.17312 v 0.21859 c 0.014,0.85905 -0.028,0.0505 -0.028,0.87127 l 0.028,0.21187 0.1096,0.41289 0.053,0.15142 c 0.068,0.57175 -0.062,1.19437 -0.1371,1.77462 l -0.018,0.0987 -0.022,0.0672 -0.021,0.1235 v 0.0811 0.0491 0.0315 0.0248 l 0.01,0.0563 0.1343,0.20102 -0.011,0.0212 -0.021,0.16227 -0.039,0.14107 -0.021,0.0811 -0.1095,0.18346 -0.084,0.0346 -0.081,0.0114 h -0.053 l -0.077,-0.0775 -0.043,-0.0248 -0.032,-0.0248 -0.098,-0.0563 -0.053,-0.077 -0.065,-0.0677 -0.1339,-0.11265 -0.1199,-0.13436 -0.099,-0.0879 v -5.2e-4 l -0.1447,-0.16226 -0.5637,0.0961 -0.2455,0.31471 0.065,0.0806 0.07,0.0739 0.071,0.10593 0.049,0.10594 0.035,0.10232 0.042,0.0884 0.05,0.0563 0.077,0.0672 0.123,0.0708 0.1235,0.0703 0.081,0.0424 0.1162,0.0847 0.092,0.0806 0.099,0.0708 0.071,0.0708 0.036,0.0527 0.025,0.13023 -0.01,0.11317 -0.011,0.11265 -0.014,0.0951 v 10e-4 l -0.074,0.0879 -0.088,0.11627 -0.067,0.0672 -0.046,0.0429 v 0.031 l 0.05,0.0599 -0.05,0.092 -0.068,0.15141 -0.1162,0.17312 -0.028,0.0811 v 0.0279 l 0.028,0.0842 0.096,0.11317 0.1374,0.0847 0.106,0.0667 0.06,0.0357 0.053,0.0279 0.06,0.004 h 0.078 l 0.028,-0.014 0.077,-0.0708 0.071,-0.11989 0.053,-0.0853 0.039,-0.0351 0.046,-0.004 0.1162,-0.0599 0.05,-0.0527 0.077,-0.13436 0.046,-0.10594 0.031,-0.0703 0.036,-0.0424 0.074,-0.0284 0.1272,0.007 0.074,0.0279 0.1483,0.0992 0.1126,0.10232 0.025,0.15141 0.035,0.13746 0.018,0.0563 0.028,0.1695 0.014,0.16588 -0.014,0.18345 -0.1586,0.13384 -0.077,0.078 -0.092,0.0847 -0.1059,0.12299 -0.088,0.0884 -0.011,0.014 -0.056,0.11679 -0.046,0.13022 -0.032,0.092 -0.028,0.13384 v 0.0739 l 0.141,0.19068 0.092,0.10232 0.049,0.19069 -0.038,0.11627 0.01,0.11989 0.032,0.0987 0.2331,0.13436 0.067,0.10594 0.071,0.19378 -0.091,0.20464 -0.1555,0.17622 -0.1024,0.18345 0.05,0.28577 -0.01,0.3421 -0.01,0.18707 -0.2118,0.27853 v 5.2e-4 l -0.1375,0.0842 -0.1447,0.0496 -0.3845,0.0708 -0.2645,0.046 -0.3354,-0.0744 -0.1623,-0.0496 -0.3633,0.0532 -0.088,0.12712 -0.7514,-0.13074 -0.2542,-0.14108 -0.2398,-0.15193 -0.1519,-0.007 -0.2222,0.0708 -0.1096,0.0398 h -0.014 l -0.078,-0.0119 -0.088,-0.01 -0.085,0.01 -0.018,-0.004 -0.088,0.0145 -0.1023,0.0527 -0.1132,0.0527 -0.1266,0.0842 -0.078,0.0847 -0.091,0.0744 -0.141,0.27492 -0.035,0.11627 -0.064,0.21549 c -0.1851,0.36232 -0.2658,0.75232 -0.3917,1.13585 l -0.053,0.23254 -0.053,0.10232 -0.06,0.18035 -0.042,0.22221 0.06,0.0987 0.1132,0.34572 0.01,0.19068 0.074,0.12299 0.1586,0.0806 0.1478,0.14831 h 5e-4 l 0.1302,0.19069 0.1587,0.20463 0.1586,0.26769 0.106,0.2682 0.05,0.15916 0.1162,0.38447 -0.085,0.34572 -0.035,0.2434 0.1024,0.22892 0.088,0.22221 -0.05,0.1695 -0.1127,0.23668 -0.1592,0.23254 c -0.1251,0.28246 -0.381,0.40251 -0.6314,0.55812 l -0.1163,0.0388 -0.2294,0.0351 -0.1799,0.004 -0.1059,0.0351 c -0.3456,0.20308 0.025,0.035 -0.4475,0.49401 l -0.1762,0.13384 -0.1272,0.0708 -0.092,0.0987 -0.01,0.0284 0.06,0.0703 0.152,0.15916 0.074,0.10542 0.1059,0.0284 0.1023,-0.0109 0.056,0.0212 0.059,0.032 0.081,0.0279 0.039,0.0568 0.028,0.16226 v 0.11628 l -0.035,0.18707 -0.053,0.19016 -0.064,0.25425 -0.039,0.0703 -0.2222,0.30024 -0.1302,0.14108 -0.092,0.22583 0.1095,0.14107 0.081,0.11989 0.1478,0.12351 h 0.036 l 0.067,-0.0532 0.2155,-0.19379 0.067,-0.0599 0.028,-0.0248 0.096,-0.0951 0.095,-0.0744 0.056,-0.0315 0.1478,-0.0248 0.1307,0.0248 0.1339,0.21188 0.099,0.21497 v 0.0672 l 0.049,0.24701 0.1168,0.30334 c 0.036,0.0979 0.014,0.19652 0.01,0.29615 -0.017,0.17779 -0.012,0.3824 0,0.64182 l 0.018,0.0708 0.022,0.0884 c 0.1033,0.4009 -0.063,0.40956 -0.2295,0.7157 l -0.071,0.0992 -0.046,0.0455 -0.067,0.0388 c -0.1964,0.0614 -0.099,0.0144 -0.2149,0.0505 l -0.064,0.0491 -0.042,0.0847 -0.064,0.032 -0.074,-0.0212 c -0.1678,-0.0459 -0.1906,-0.0725 -0.2506,-0.2088 l -0.042,-0.0915 -0.021,-0.0708 -0.024,-0.0315 -0.092,-0.0672 -0.085,-0.007 -0.1023,0.004 c -0.2258,0.0149 -0.3612,0.0896 -0.5151,0.2331 l -0.028,0.0279 c -0.1338,0.13347 -0.04,0.13171 -0.1835,0.2966 l -0.042,0.0176 -0.01,-0.004 -0.028,-0.007 -0.053,-0.014 -0.025,-0.004 -0.233,-0.20102 -0.5183,-0.36329 -0.339,-0.34571 -0.1726,-0.31419 -0.293,-0.29611 -0.4124,-0.38809 -0.353,-0.5116 -0.4232,-0.47594 -0.4165,-0.57154 -0.3173,-0.4625 -0.3989,-0.57464 -0.2186,-0.36381 -0.2961,-0.38085 -0.1659,-0.31058 -0.3953,-0.26768 -0.3494,-0.3669 -0.3524,-0.21549 -0.4413,-0.0388 -0.3669,0.10232 -0.2222,0.0212 -0.4021,-0.1235 -0.2646,-0.0424 -0.2325,0.14108 -0.046,-0.004 -0.053,-0.0109 -0.042,-0.0176 -0.1059,-0.046 -0.1447,-0.0667 -0.1344,-0.0672 -0.1302,-0.0708 -0.1375,-0.0951 -0.1307,-0.10232 -0.1308,-0.14831 -0.1302,-0.1478 -0.1731,-0.18345 -0.1798,-0.21549 -0.1272,-0.13746 -0.2609,-0.25063 -0.1339,-0.16898 -0.095,-0.20464 -0.1555,-0.28939 -0.1411,-0.23306 -0.1338,-0.25373 -0.092,-0.20102 -0.1199,-0.21859 -0.155,-0.22583 -0.1659,-0.15554 -0.1659,-0.1447 -0.1411,-0.11989 -0.1726,-0.11989 h -5e-4 l -0.1798,-0.20102 -0.1055,-0.13746 -0.1059,-0.14831 -0.1023,-0.15503 -0.1059,-0.16226 -0.078,-0.0992 -0.046,-0.0563 h -0.035 l -0.074,-0.004 -0.091,0.0563 -0.1484,0.10232 -0.1447,0.12661 -0.1477,0.12713 -0.064,0.13074 0.1198,0.14469 0.1163,0.14108 0.307,0.33486 0.1726,0.1943 0.1907,0.28216 0.1586,0.19378 0.1871,0.23306 0.1731,0.23978 0.1834,0.2434 0.1199,0.13746 0.1659,0.24029 0.1478,0.19741 0.2191,0.27182 0.1514,0.15864 0.1375,0.21136 0.1834,0.2434 0.1308,0.17311 0.1023,0.11989 0.1163,0.15193 0.1447,0.17983 0.1131,0.18707 0.078,0.13023 0.077,0.13746 0.028,0.0599 0.088,0.18035 0.05,0.12351 0.028,0.0951 0.025,0.0739 0.011,0.046 -0.071,0.0212 -0.2961,0.17983 -0.1767,0.1695 -0.2501,0.35605 -0.201,0.10956 -0.2119,0.14831 -0.053,0.16226 -0.1483,0.23255 -0.3953,0.28215 -0.4832,0.293 -0.3845,0.28216 -0.4832,0.3669 -0.3142,0.25425 -0.2821,0.25735 -0.1411,0.13384 -0.2222,0.19069 0.4868,0.65267 0.3948,-0.21187 0.3426,-0.21136 0.3276,-0.20826 h 6e-4 l 0.2676,-0.19068 0.2083,-0.21859 0.2186,-0.20103 0.2894,-0.15503 0.1695,-0.10231 0.1762,-0.0708 0.2046,-0.004 0.2295,0.0279 0.155,-0.0176 0.1307,0.0176 0.1659,0.23306 0.2501,0.37 0.2403,0.32453 v 5.2e-4 l 0.1163,0.22893 0.1587,0.1943 0.187,0.0641 0.3385,-0.10594 0.2543,-0.0599 0.2258,-0.0884 0.1199,-0.16226 0.1023,-0.2434 0.056,-0.22583 -0.1587,-0.32452 -0.233,-0.27854 -0.2434,-0.33176 -0.1974,-0.21188 -0.042,-0.20464 -0.011,-0.1235 -0.059,-0.16898 -0.1023,-0.0744 -0.099,-0.11627 -0.025,-0.0775 0.1695,-0.014 0.1622,0.0491 0.1587,0.0987 0.2578,0.13797 0.1726,0.13746 0.095,0.0279 0.1199,-0.12299 0.1556,-0.2682 0.109,-0.11627 -0.024,-0.12713 -0.06,-0.0987 -0.024,-0.0992 -0.036,-0.12351 0.092,-0.14779 0.1199,-0.14108 0.1199,-0.19792 0.2646,0.0212 0.2361,0.046 0.2894,0.11989 0.3881,0.0744 0.2785,0.10232 h 6e-4 l 0.2185,0.23978 0.1447,0.27182 0.2259,0.33848 0.1798,0.40566 0.2325,0.37052 0.2858,0.49041 0.3034,0.25011 0.3457,0.36691 0.3178,0.35656 0.3385,0.50798 0.3384,0.42685 0.385,0.38447 0.4656,0.51832 0.4656,0.44132 0.522,0.41961 0.7586,0.69143 0.5291,0.32091 0.4729,0.26458 0.201,0.0889 0.01,0.0103 0.05,0.0455 -0.035,0.12764 -0.1132,0.0176 -0.2082,0.0248 -0.1375,0.014 -0.2119,0.032 -0.1302,0.0176 -0.1798,0.0351 -0.2083,0.0388 -0.2682,0.0739 -0.1658,0.0496 -0.1339,0.0388 -0.1411,0.0315 -0.1586,0.0393 -0.1096,0.0599 -0.1131,0.0279 -0.056,0.0109 -0.088,0.0351 c -0.2246,-0.0475 -0.4411,-0.0936 -0.674,-0.1021 l -0.1163,-0.007 -0.141,-0.0248 -0.05,-0.0279 v -5.2e-4 l -0.014,-0.077 v -0.0527 l 0.014,-0.0951 0.025,-0.0925 c 0.2681,-0.87369 0.014,-3e-5 0.2434,-0.68782 l 0.025,-0.0491 0.032,-0.14831 -0.014,-0.0284 -0.032,-0.031 -0.061,-0.0212 -0.049,-0.0248 -0.099,-0.0145 -0.081,0.004 -0.1132,0.0109 -0.056,0.004 -0.1091,0.0212 h -5e-4 l -0.1162,0.0419 -0.049,0.0248 -0.042,0.17673 -0.025,0.15142 -0.032,0.18706 -0.074,0.20103 -0.088,0.25063 -0.065,0.16226 -0.1623,0.42323 -0.1059,0.19069 -0.1132,0.1974 -0.027,0.0563 -0.1943,0.0672 -0.2434,0.0847 -0.2786,0.0636 h -0.01 l -0.1726,-0.0145 -0.187,-0.0987 -0.1726,-0.0527 -0.2434,-0.0672 -0.1835,-0.0672 -0.2367,-0.17622 -0.201,-0.13384 -0.3136,-0.13436 -0.2967,-0.10904 -0.1762,-0.0992 -0.1059,-0.0951 -0.1127,-0.13022 -0.053,0.014 -0.109,0.0739 -0.1483,0.18345 -0.06,0.1235 -0.059,0.14108 0.018,0.0708 0.2325,0.1235 0.5468,0.27854 0.1943,0.0811 0.2397,0.0987 0.095,0.032 0.071,0.0243 0.081,0.032 0.053,0.0775 -0.077,0.11265 -0.2222,0.13436 -0.2573,0.12661 -0.339,0.10593 -0.2961,0.0672 -0.096,0.0248 -0.1799,0.0351 -0.1235,0.0212 -0.247,0.0806 -0.032,0.0114 -0.1974,0.0243 -0.5576,0.0356 -0.187,0.0351 -0.2574,0.0424 -0.1411,0.0279 -0.3069,0.0847 -0.2822,0.0672 -0.2046,0.0388 -0.3494,-0.0139 -0.1235,-0.0284 h -0.1798 l -0.155,0.0563 -0.2047,0.0811 -0.4237,0.14831 -0.2434,0.0811 -0.2574,0.0387 -0.2645,0.0496 -0.2646,0.063 -0.1235,0.0393 -0.064,-0.0212 -0.091,-0.0424 -0.1375,-0.0568 -0.099,-0.0847 -0.1374,-0.22531 v -5.2e-4 l -0.1236,-0.13384 -0.1126,-0.11266 -0.1199,-0.10593 -0.1168,-0.0811 -0.1514,-0.10232 -0.1623,-0.0811 -0.1209,-0.048 -0.033,-0.0377 -0.014,-0.014 -0.053,-0.046 -0.031,-0.0248 -0.071,-0.0351 -0.049,-0.032 -0.056,-0.0274 -0.043,-0.0284 -0.039,-0.0393 -0.05,-0.0527 -0.028,-0.092 v -0.0806 l 0.01,-0.0672 0.018,-0.0424 0.049,-0.0388 0.032,-0.0212 0.1127,-0.0496 0.1307,-0.0599 0.1271,-0.0527 0.1551,-0.0496 0.095,-0.046 0.1586,-0.0636 0.1096,-0.0351 0.1162,-0.0134 0.1659,-0.0114 0.2083,0.004 0.091,0.014 0.1168,0.0424 0.063,0.0357 0.1168,0.0667 0.07,0.0429 0.061,0.0212 0.1054,0.004 0.081,-0.0176 0.1199,-0.0357 0.046,-0.0424 0.039,-0.0563 0.018,-0.0708 0.046,-0.10956 0.025,-0.1235 0.039,-0.10904 v -0.0388 l 0.042,-0.13798 v -0.11988 l -0.014,-0.0884 -0.032,-0.0212 -0.064,-0.0181 -0.088,-0.0212 -0.1623,-0.0491 -0.1168,-0.0563 -0.1447,-0.0424 -0.2289,-0.0672 -0.1767,-0.0636 -0.3669,-0.11627 -0.1375,-0.0248 -0.1726,0.0176 -0.1555,0.0248 -0.2822,0.0672 -0.2222,0.0599 -0.1235,0.0703 -0.215,0.0672 -0.1271,0.0315 h -0.1023 l -0.081,-0.0279 -0.053,-0.0351 -0.053,-0.0636 -0.046,-0.0987 -0.01,-0.0424 0.018,-0.007 0.028,-0.0103 0.031,-0.0145 c 0.1089,-0.0481 0.1315,-0.062 0.1513,-0.0745 l 0.028,-0.014 0.024,-0.014 h 5e-4 l 0.025,-0.015 c 0.062,-0.0406 0.1312,-0.067 0.1974,-0.0998 l 0.024,-0.01 0.025,-0.0114 c 0.1153,-0.0202 0.1974,-0.0941 0.2912,-0.1526 l 0.011,-0.0114 0.01,-0.014 v -0.0103 c 0.035,-0.0725 -0.084,-0.38022 -0.132,-0.4757 l -0.01,-0.0176 -0.01,-0.0139 c -0.02,-0.0614 -0.061,-0.11274 -0.091,-0.1672 l -0.01,-0.0103 -0.01,-0.0109 -0.011,-0.007 -0.01,-0.007 -0.01,-0.004 h -0.01 -0.01 -0.01 l -0.01,0.004 -0.01,0.004 -0.011,0.004 -0.01,0.004 -0.01,0.007 -0.014,0.007 -0.011,0.007 c -0.1711,0.11973 -0.2247,0.14604 -0.4578,0.1636 l -0.018,-0.004 c -0.039,0 -0.077,-0.0164 -0.1201,-0.004 h -0.011 l -0.014,0.004 -0.014,0.004 c -0.06,0.0279 -0.1573,0.10409 -0.2989,0.2248 l -0.018,0.0139 c -0.085,0.0795 -0.1829,0.0776 -0.2867,0.0992 l -0.021,0.004 h -0.022 l -0.021,0.004 -0.018,0.004 -0.021,0.004 -0.018,0.007 -0.014,0.007 -0.014,0.007 -0.015,0.0109 -0.01,0.007 -0.011,0.0109 -0.01,0.014 -0.011,0.0109 c -0.063,0.0926 -0.042,0.29968 -0.2672,0.41561 -0.1998,0.11798 -0.4285,0.16226 -0.4285,0.2491 v 0.0103 c 0.01,0.0313 0.022,0.0594 0.033,0.0892 l 0.011,0.0212 0.01,0.0212 c 0.026,0.0556 0.039,0.11579 0.059,0.1737 v 0.0212 0.0243 5.2e-4 0.0207 0.0248 0.0248 0.0212 0.0284 0.0243 5.2e-4 0.0243 0.0248 0.0284 c -0.01,0.0345 -0.015,0.0682 -0.022,0.1023 v 0.0243 c -0.012,0.0495 -0.024,0.0898 -0.049,0.1659 v 0.0212 5.2e-4 0.0176 0.0212 0.0176 0.0181 c 0.01,0.0725 0.069,0.11679 0.1054,0.1741 l 0.011,0.014 0.014,0.014 0.011,0.0176 v 5.2e-4 l 0.014,0.014 0.014,0.0145 0.014,0.0134 c 0.1013,0.099 0.1565,0.21483 0.2171,0.3408 v 0.0139 0.0176 0.014 0.0139 c 0.019,0.0788 0.088,0.12427 0.1392,0.1812 l 0.014,0.0145 0.014,0.0103 0.011,0.0114 0.014,0.007 c 0.038,0.0362 0.141,0.0868 0.2107,0.1098 l 0.025,0.0103 c 0.071,0.0311 -5e-4,-0.004 0.1653,0.057 l 0.028,0.0109 0.028,0.007 0.024,0.0103 0.025,0.0103 0.025,0.0109 0.025,0.0109 0.021,0.007 0.021,0.0109 c 0.4843,0.23636 0.3275,0.29653 0.8772,0.5068 l 0.032,0.007 0.032,0.0114 0.06,0.046 0.1271,0.0915 0.1344,0.10232 0.1054,0.0775 0.067,0.0599 0.039,0.0357 0.028,0.0563 0.032,0.0527 0.036,0.0672 v 0.0315 l -0.01,0.17983 -0.018,0.032 -0.074,0.13023 -0.035,0.0599 -0.031,0.0553 -0.032,0.0532 -0.024,0.046 v 0.004 l -0.3069,0.17311 -0.099,0.0279 -0.1096,0.0248 -0.1127,0.0357 -0.081,0.063 -0.5823,0.25425 -0.1799,0.0496 -0.2258,0.0455 -0.2289,0.092 -0.096,0.0279 -0.5364,0.0744 h -0.1303 l -0.074,-0.0134 -0.071,-0.0362 -0.071,-0.0703 -0.1199,-0.10594 -0.2361,-0.34209 -0.2083,-0.46923 -0.06,-0.12712 -0.06,-0.14108 -0.053,-0.11627 -0.099,-0.16588 -0.064,-0.11679 -0.077,-0.0987 -0.092,-0.10594 -0.042,-0.11627 -0.032,-0.0842 -0.064,-0.12713 -0.046,-0.11265 -0.062,-0.89939 -0.01,-0.1447 -0.014,-0.20102 v -5.1e-4 l -0.018,-0.21498 -0.031,-0.24339 -0.028,-0.16588 -0.039,-0.10232 -0.01,-0.11989 -0.1195,-1.10517 0.025,-0.17622 0.01,-0.15193 v -0.20464 l -0.1289,-1.30428 -0.035,-0.16536 -0.046,-0.22273 -0.01,-0.71262 v -0.64543 l -0.059,-0.50437 -0.032,-0.10593 -0.021,-0.10594 -0.018,-0.0987 -0.046,-0.11989 -0.018,-0.0739 -0.015,-0.15554 -0.021,-0.15142 -0.024,-0.14107 -0.018,-0.0992 c -0.1206,-0.59481 -0.1758,-0.48389 -0.3276,-1.49914 l -0.025,-0.0951 -0.025,-0.1943 -0.028,-0.1726 -0.036,-0.28939 c 0.088,-0.47061 -0.046,-0.81582 -0.2114,-1.24179 l -0.039,-0.18706 0.01,-0.27182 0.025,-0.26097 v -0.22221 l -0.01,-0.0145 0.01,-0.0636 v -0.046 l 0.01,-0.0636 v -0.0847 -0.0563 -0.0775 l -0.01,-0.0563 c -0.031,-0.26935 -0.1352,-0.64778 -0.3142,-1.68614 l -0.056,-0.25425 -0.042,-0.1726 c -0.1732,-0.44743 -0.2292,-0.9163 -0.2646,-1.3901 l -0.014,-0.15193 c -0.065,-0.4941 -0.1954,-0.96062 -0.3249,-1.46036 l -0.053,-0.17622 -0.014,-0.23668 0.021,-0.26458 0.028,-0.1974 c 0.081,-0.8238 -0.465,-1.4022 -0.568,-1.7534 l 0.014,-0.26097 -0.01,-0.40928 -0.024,-0.60668 -0.025,-0.16588 0.1726,-0.29249 0.6599,-0.0708 0.4904,0.0491 0.3493,-0.0103 0.074,-0.50436 -0.089,-0.23668 -0.2609,-0.0987 -0.352,-0.17983 -0.2583,0.0744 -0.2992,0.0708 -0.2724,-0.0393 -0.2005,-0.18707 -0.1276,-0.37052 0.022,-0.40566 v -0.39119 l -0.261,-0.004 -0.2682,-0.004 -0.2258,0.10594 -0.084,0.31729 -0.056,0.43047 -0.077,0.28577 -0.095,0.15193 -0.1447,0.14779 -0.3142,-0.0424 -0.3245,-0.0951 -0.3706,-0.0667 -0.3172,-0.0532 -0.077,0.40204 -0.057,0.42375 0.096,0.22583 0.4867,0.0176 0.5395,0.0636 0.2155,0.0915 0.215,0.11989 0.2119,0.41651 0.1199,0.44441 0.1834,0.47594 v 0.0744 0.0667 c 0.1239,0.58775 0.3176,1.17631 0.4684,1.77095 l 0.01,0.18707 v 0.34933 l 0.018,0.27182 c 0.1053,1.94585 0.065,0.29193 0.237,1.4891 l 0.081,0.37414 0.032,0.14107 0.06,0.24702 0.036,0.20774 0.035,0.16226 0.011,0.12351 0.039,0.16588 v 0.0811 l -0.1023,0.22944 -0.047,0.046 -0.1059,0.0915 -0.059,0.0884 -0.046,0.14108 -0.015,0.11265 -0.013,0.092 0.01,0.20825 0.1343,0.1726 0.1587,0.17312 0.1059,0.1235 0.1163,0.14108 0.043,0.10542 0.1054,0.16588 0.036,0.15555 v 0.0847 l -0.018,0.0279 0.018,0.0744 0.024,0.0739 0.032,0.10594 0.018,0.13746 0.06,0.24701 0.039,0.19017 v 5.2e-4 l 0.014,0.17622 0.025,0.24701 0.068,0.35243 c 0.077,0.35287 0.1237,0.7106 0.1624,1.06919 v 0.0351 l 0.01,0.0951 0.01,0.14108 0.018,0.13798 0.032,0.15141 0.018,0.11317 v 0.0667 0.0284 c 0.085,0.50023 0.08,1.00045 0.1895,1.49552 l 0.032,0.078 0.042,0.13384 0.039,0.1695 0.035,0.0951 0.025,0.13384 v 5.1e-4 0.0207 l -0.011,0.12713 0.011,0.11317 0.01,0.16898 0.019,0.17674 v 0.16588 0.1235 l -0.01,0.25012 -0.018,0.22944 0.01,0.2682 0.066,0.84212 0.025,0.18345 0.039,0.22221 0.035,0.14107 v 5.2e-4 l 0.1407,0.72985 0.039,0.22893 0.042,0.20464 0.025,0.19068 0.1562,1.19487 0.074,0.44804 0.021,0.25063 0.049,0.19017 0.071,1.13748 0.4861,1.35891 0.064,0.17259 v 5.2e-4 l 0.056,0.13384 0.05,0.0842 0.035,0.11989 0.085,0.21497 -0.018,0.12712 -0.01,0.0708 0.1374,0.12351 0.1411,0.11265 0.056,0.11317 0.042,0.2465 0.06,0.18035 0.099,0.0884 0.2222,0.0672 0.201,0.0424 0.1835,0.0987 0.1168,0.0708 0.3069,0.0419 0.2042,-0.031 0.1731,-0.007 c 0.5097,-0.14986 1.0444,-0.21194 1.5167,-0.44809 l 0.2506,-0.1204 0.2398,-0.12661 0.1235,-0.092 0.042,-0.0248 0.022,0.007 0.035,0.014 h 5e-4 l 0.078,0.046 0.067,0.0527 0.1236,0.18035 v 0.0775 l -0.021,0.0636 -0.042,0.10232 -0.035,0.15141 c -0.018,0.16847 -0.028,0.33751 -0.039,0.50648 l 0.014,0.14262 0.095,0.2186 0.1162,0.19068 0.099,0.18345 c 0.1569,0.24546 0.1925,0.4349 0.1339,0.70542 l -0.049,0.13797 -0.06,0.17984 -0.074,0.16898 0.3581,0.27388 0.432,0.0227 0.064,-0.16588 0.106,-0.1943 0.1659,-0.15142 0.155,-0.10593 0.1483,-0.15865 0.028,-0.12712 -0.053,-0.19017 -0.067,-0.10232 -0.099,-0.11989 -0.1054,-0.13798 -0.046,-0.15864 c -0.1169,-0.40442 -0.2711,-0.80779 -0.382,-1.2097 l 0.053,-0.31419 0.067,-0.28939 0.074,-0.16226 0.07,-0.1695 0.071,-0.13384 0.1343,-0.11266 0.088,-0.046 c 0.1299,-0.12189 0.2694,-0.17401 0.4305,-0.23986 l 0.2082,-0.0811 c 0.1984,-0.0854 0.4089,-0.1355 0.617,-0.1907 l 0.1907,-0.0563 0.2011,-0.0284 0.5364,-0.0987 0.2785,-0.0672 0.3566,-0.0878 0.247,-0.061 0.1726,-0.0418 0.3105,-0.046 0.1938,-0.0356 0.2755,-0.046 0.1514,-0.0388 0.233,-0.0636 0.1024,-0.0248 0.1834,-0.0424 0.1235,-0.0424 0.1762,-0.0811 0.1411,-0.0915 0.2047,-0.0775 0.2082,-0.0145 h 0.1339 l 0.2433,0.007 0.1024,-0.004 0.067,0.014 0.01,0.007 h 5e-4 l 0.109,0.0103 0.028,0.0393 0.028,0.18345 -0.025,0.23254 -0.039,0.2186 0.042,0.10955 0.042,0.0424 0.1411,0.0641 0.1943,0.12661 0.2749,0.23306 0.085,0.0708 0.155,-0.0496 0.085,-0.0708 0.1096,-0.0956 0.049,-0.0522 -0.01,-0.0842 v -0.13746 l -0.056,-0.10231 -0.067,-0.22583 -0.078,-0.10955 -0.039,-0.20103 -0.028,-0.15864 0.021,-0.14831 0.091,-0.092 0.1199,-0.10232 c 0.1867,-0.11701 0.3956,-0.19193 0.6,-0.2724 l 0.1374,-0.0388 0.3209,-0.0811 0.247,-0.06 0.2222,-0.0672 0.2367,-0.0842 0.1866,-0.0641 0.3002,-0.0594 0.1235,-0.004 0.261,-0.0496 0.5328,-0.19741 0.2258,-0.0357 0.053,-0.014 0.1938,-0.0708 0.1168,-0.0176 0.3312,-0.0429 0.2579,-0.031 0.1586,-0.0393 0.1623,-0.0491 0.3809,-0.0842 0.2609,-0.0925 0.1659,-0.0424 0.1271,-0.0243 0.1762,-0.032 0.1132,-0.0388 0.1587,-0.0527 0.1974,-0.0563 0.099,-0.0248 0.088,-0.0212 0.187,-0.0605 c 0.1322,-0.0549 0.1898,-0.0479 0.4553,0.0187 0.11,0.0532 0.211,0.0414 0.3276,0.0395 l 0.2646,-0.0424 0.046,-0.0145 0.032,-0.0103 0.045,-0.0139 0.071,-0.0248 0.1938,-0.0744 h 5e-4 l 0.123,-0.0811 0.092,-0.0382 0.106,-0.0315 0.077,-0.0284 c 0.2907,-0.15809 0.5611,-0.25101 0.8816,-0.3144 l 0.7162,-0.11317 0.5256,-0.1974 0.4867,-0.19379 0.6811,-0.11989 0.4408,-0.0496 0.6103,-0.15865 0.5225,-0.12712 0.2713,-0.0951 0.2186,-0.0548 0.1447,-0.016 0.1974,-0.004 0.1168,0.0176 0.109,0.0351 0.2997,0.26821 c 0.4367,0.53229 0.092,0.27548 0.4843,0.75137 l 0.1375,0.0775 0.2645,0.23306 0.064,0.0915 0.025,0.12713 -0.032,0.092 -0.064,0.0806 c -0.1082,0.15318 -0.2076,0.30808 -0.2961,0.47285 l -0.01,0.0987 -0.014,0.1235 v 0.0212 l 0.1695,0.10956 0.1659,0.0775 0.1297,0.0563 0.1736,0.046 0.1871,0.0284 0.246,-0.20102 0.06,-0.0775 h 5e-4 l 0.088,-0.0212 0.074,-0.0393 0.1375,-0.0951 0.109,-0.11627 0.036,-0.0847 c 0.2061,-0.47242 0.6697,-0.66207 1.1534,-0.77256 l 0.014,0.007 0.081,0.078 0.088,0.0811 0.1375,0.0667 0.2082,0.0284 0.2754,0.007 0.2114,-0.10232 0.1974,-0.10542 0.1096,0.004 0.1095,-0.007 c 0.2693,-0.18235 0.5093,-0.41732 0.7653,-0.63153 l 0.1871,-0.19792 0.1835,-0.21497 0.1695,-0.13385 0.1974,-0.17001 0.1338,-0.1478 0.1695,-0.23616 0.095,-0.13074 0.074,-0.0987 0.1059,-0.0605 0.1587,-0.0248 0.067,-0.0212 0.011,-0.0388 v -0.0279 -5.1e-4 l 0.053,-0.11628 0.056,-0.0563 0.074,-0.0424 0.056,-0.0284 0.1519,-0.10904 0.099,-0.11627 0.074,-0.12712 0.021,-0.0847 v -0.0672 l 0.01,-0.0667 0.018,-0.0744 0.01,-0.0388 0.025,-0.0667 0.071,-0.10593 0.1059,-0.11989 0.1478,-0.12041 0.1168,-0.0879 0.1447,-0.0708 0.056,-0.0315 0.5256,-0.16226 c 0.9266,-0.1451 1.818,-0.41976 2.7197,-0.67025 0.4469,-0.0477 0.8653,-0.17115 1.2878,-0.31367 l 0.013,0.007 0.081,0.0568 0.039,0.0563 c -0.1029,0.43856 -0.5588,0.83068 -0.843,1.19212 l -0.1375,0.17312 -0.1307,0.18345 -0.1763,0.20412 -0.2155,0.26148 -0.1622,0.22221 -0.169,0.28577 c -0.9893,2.46924 -1.6117,2.23693 -2.9352,4.98109 l -0.3705,0.65268 -0.1484,0.21135 -0.2961,0.34624 -0.1943,0.22531 c -0.4515,0.46453 -0.75,1.02157 -1.0619,1.58078 l -0.2465,0.43718 c -0.3292,0.56594 -0.2708,0.47961 -0.5576,0.9772 -0.2099,0.34987 -0.3958,0.71357 -0.5891,1.0728 l -0.1974,0.3173 -0.3034,0.51831 -0.2682,0.39894 -0.2609,0.35967 -0.2258,0.27182 -0.1907,0.28577 -0.1871,0.28577 -0.1271,0.2434 -0.095,0.18345 -0.1411,0.31729 -0.1096,0.26097 -0.141,0.40928 -0.077,0.26722 -0.084,0.26194 -0.05,0.23668 -0.018,0.10904 -0.028,0.20825 0.1555,0.22221 0.074,0.16227 0.013,0.0811 0.071,0.10232 0.1163,0.13797 0.1271,0.14108 0.1235,0.16537 0.106,0.15554 0.01,0.15865 -0.018,0.14107 -0.046,0.11628 0.042,0.0847 0.088,0.032 0.1023,0.003 0.064,0.007 0.085,0.0212 0.056,0.0284 0.088,0.10181 0.056,0.078 0.06,0.0842 0.067,0.13074 0.05,0.0775 0.074,0.0987 0.1447,0.2682 -0.028,0.28577 -0.05,0.22583 -0.049,0.17259 -0.1484,0.17674 -0.1767,0.15141 -0.4268,0.32453 -0.3633,0.31419 -0.2434,0.1974 -0.1902,0.0636 -0.247,-0.0212 -0.1235,-0.11266 -0.2542,-0.25063 -0.3385,-0.33176 -0.3633,-0.25011 -0.1798,-0.0775 -0.3215,-0.28577 -0.4196,-0.36328 -0.4129,-0.42737 -0.3948,-0.32453 -0.4057,-0.33124 -0.233,-0.25787 -0.4444,-0.31006 -0.3954,-0.16588 -0.2645,-0.17311 -0.2646,-0.15865 -0.1199,0.0951 -0.1726,0.10955 -0.1907,0.2434 -0.056,0.31057 -0.1411,0.25735 -0.2046,0.17312 -0.1339,0.0527 -0.1235,0.10231 -0.1695,0.22583 -0.1126,0.12351 -0.046,0.13074 0.1411,0.19379 0.2294,0.35605 0.2077,0.21187 0.1308,0.25735 0.2294,0.30696 0.3137,0.17621 v 5.2e-4 l 0.2398,0.26407 v 5.1e-4 l 0.3421,0.3421 h 5e-4 l 0.3349,0.37052 0.201,0.12661 0.2542,0.20464 0.1339,0.0393 0.4831,-0.34623 -0.021,-0.20774 -0.099,-0.22221 -0.2258,-0.22583 -0.2289,-0.1943 -0.1695,-0.20825 -0.1344,-0.2434 -0.2289,-0.25735 -0.3633,-0.26458 -0.2858,-0.29301 -0.071,-0.25011 0.056,-0.20102 0.067,-0.0599 0.3458,-0.1235 0.2113,-0.0145 0.2119,0.13074 0.2119,0.15141 0.2857,0.30386 0.3737,0.31006 0.3844,0.31781 0.2191,0.25373 0.3137,0.25424 0.2398,0.13023 0.3318,0.37052 0.4129,0.38809 0.3596,0.59635 -0.035,0.25011 -0.056,0.28215 -0.2046,0.23668 -0.2362,0.23616 v 5.2e-4 l -0.3674,0.39119 -0.4305,0.45527 -0.4335,0.33176 -0.6739,0.64182 c -3.3793,3.67665 -2.1792,2.04701 -4.5966,4.61109 l -0.5783,0.53589 -0.3669,0.37052 -0.4583,0.43718 -0.044,0.51366 0.8413,-0.3545 0.4377,-0.40928 0.4728,-0.53278 0.4935,-0.4408 c 1.1695,-0.91433 3.9779,-3.95612 4.6111,-4.4943 l 0.3281,-0.27905 0.3034,-0.046 0.2573,-0.06 0.2682,-0.0599 0.095,-0.0775 0.046,-0.25373 0.042,-0.31057 0.06,-0.17622 0.2186,-0.1695 0.1974,-0.17622 5e-4,-5.1e-4 0.1478,-0.19741 0.1907,-0.18345 0.2858,-0.23616 0.1726,-0.35295 0.1023,-0.20774 0.3214,-0.36742 0.4372,-0.36328 0.1551,-0.16227 0.3989,-0.38809 0.4305,-0.42685 0.3245,-0.23254 c 0.3598,-0.19474 0.6283,-0.46772 0.9064,-0.75861 l 0.3142,-0.45165 0.4444,-0.49713 0.2858,-0.42685 0.4444,-0.60719 c 1.5298,-1.6504 2.859,-3.56071 3.9403,-5.53507 l 0.2222,-0.47232 c 0.2496,-0.29112 0.4557,-0.61095 0.6635,-0.93173 0.2078,-0.30788 0.3906,-0.63044 0.5752,-0.95239 l 0.1974,-0.32453 0.2083,-0.30334 0.2713,-0.30696 0.1979,-0.35605 0.3033,-0.44132 0.2083,-0.41961 0.155,-0.0775 0.1907,-0.092 0.1442,-0.17983 0.1695,0.004 0.1762,0.28216 0.1307,0.20463 0.2398,0.20103 0.2398,0.12712 h 5e-4 l 0.3597,0.0424 0.169,-0.13797 0.1483,-0.19741 0.081,-0.27491 0.028,-0.1695 -0.1695,-0.21188 -0.2186,-0.17621 -0.2222,-0.14831 -0.2047,-0.13023 -0.2046,-0.13074 -0.1344,-0.29611 -0.014,-0.32814 0.035,-0.29662 0.1447,-0.14108 1.8665,-3.11142 0.5607,-0.73019 0.4941,-0.46922 0.1901,-0.28215 0.293,-0.30696 0.2222,-0.1695 0.095,-0.25011 0.1907,-0.27544 0.05,-0.10232 0.1514,-0.19378 0.2682,0.0176 0.1023,0.0847 0.064,0.0351 0.1871,-0.17312 0.095,-0.16898 0.028,-0.0563 -0.1271,-0.22221 -0.067,-0.0848 -0.049,-0.15193 0.078,-0.3948 0.2961,-0.61754 0.4093,-0.69143 0.2754,-0.60668 0.1866,-0.36329 v -5.1e-4 l 0.3281,-0.40204 0.1023,-0.16589 0.1168,-0.21135 0.1411,-0.28939 0.2325,-0.39533 0.2155,-0.31367 0.1654,-0.3669 0.2966,-0.45527 0.2295,-0.40205 0.1622,-0.32814 0.1375,-0.19741 0.356,-0.30695 0.2894,-0.5364 0.2997,-0.46923 0.5049,-0.74775 0.3488,-0.42685 0.339,-0.34933 0.2047,-0.25374 0.06,-0.19792 v -0.20464 l 0.014,-0.11265 0.1374,-0.17622 0.2047,-0.11679 0.1622,-0.20773 0.2191,-0.25787 0.2398,-0.48679 0.099,-0.22945 0.046,-0.0599 0.2713,-0.68781 0.1282,-0.24598 0.066,-0.12764 v -5.2e-4 l 0.095,-0.22531 0.1411,-0.23306 0.1943,-0.29301 0.293,-0.45113 0.2501,-0.28267 0.2222,-0.40876 0.279,-0.56483 c 0.2742,-0.36749 0.5339,-0.73224 0.7654,-1.12861 l 0.1162,-0.10232 0.2192,-0.25425 0.1901,-0.30334 0.1974,-0.37723 0.2579,-0.40928 c 1.395,-2.27878 0.1135,-0.31841 1.0371,-1.81333 l 0.3034,-0.3669 c 0.6024,-0.82932 1.2207,-1.64676 1.7425,-2.52956 l 0.3354,-0.52193 0.1798,-0.32091 0.1938,-0.36329 0.1023,-0.13074 0.198,-0.33176 0.2185,-0.3173 0.1907,-0.37413 0.2047,-0.38086 0.3421,-0.44803 0.3069,-0.4129 0.3881,-0.43718 0.3736,-0.4377 0.339,-0.3669 0.37,-0.35605 0.2858,-0.30024 0.057,-0.2434 -0.053,-0.16898 -0.025,-0.28577 0.3178,-0.66353 0.2574,-0.41238 0.2609,-0.44803 0.4765,-0.709 0.3984,-0.63149 0.3178,-0.27905 0.3494,-0.40204 0.3524,-0.50437 0.1731,-0.2682 0.2325,-0.37723 v -5.2e-4 l 0.1484,-0.37362 0.1199,-0.45165 0.2397,-0.53951 0.3215,-0.54001 0.4619,-0.66301 0.4305,-0.48679 c 0.6249,-1.09655 1.7479,-2.25597 1.7198,-3.56671 l -0.418,-0.0248 c -0.6816,1.33808 -1.5236,2.56321 -2.3317,3.82406 l -0.3457,0.44803 -0.3462,0.5855 -0.3065,0.47956 v 5.1e-4 l -0.1731,0.42685 -0.06,0.25373 -0.2749,0.39843 -0.3638,0.52244 -0.3561,0.51832 -0.2997,0.28939 -0.2966,0.19068 -0.416,0.56948 -0.3772,0.39739 -0.1442,0.16226 -0.1871,0.17622 -0.1622,0.0847 -0.2155,0.10955 -0.2047,0.003 -0.2501,0.0109 -0.1871,0.0212 -0.1834,0.014 -0.1943,-0.003 h -0.2222 l -0.1835,-0.0248 -0.3136,-0.22221 -0.339,-0.24391 -0.37,-0.11214 -0.1768,-0.1695 -0.169,-0.20464 -0.1447,-0.18345 -0.2434,-0.12402 -0.1379,-0.10904 -0.1375,-0.0842 -0.088,-0.31058 -0.056,-0.18345 -0.039,-0.40566 -0.088,-0.39842 -0.081,-0.30696 -0.078,-0.22221 c -0.2373,-1.35146 -0.1914,-0.035 -0.3984,-1.59112 l -0.1132,-0.40204 c -0.1636,-0.41326 -0.2053,-0.8374 -0.2892,-1.27021 l -0.042,-0.2222 -0.031,-0.19741 -0.057,-0.24029 -0.045,-0.18656 -0.039,-0.0739 -0.2294,-0.0351 -0.2398,0.046 -0.2046,0.0739 -0.099,0.0672 -0.07,0.10232 -0.05,0.14779 0.036,0.23306 0.014,0.18345 c 0.078,0.48975 0.2179,0.97312 0.3386,1.45678 l 0.1519,0.52607 c 0.075,0.6131 0.205,1.17535 0.4281,1.74614 l 0.1266,0.46923 0.011,0.22582 0.1162,0.3669 0.021,0.2186 -0.028,0.13745 -0.1167,0.23307 -0.1091,0.1974 -0.138,0.14831 -0.06,0.11989 -0.074,0.14469 -0.1834,0.11266 -0.2961,0.0496 -0.1308,0.0775 -0.2821,0.0775 -0.2966,0.11989 -0.1938,0.1235 -0.2047,-0.0176 -0.2186,-0.0496 -0.1555,-0.0599 -0.1375,-0.0739 -0.109,-0.0424 -0.1344,-0.0987 -0.141,-0.11318 -0.081,-0.14469 -0.01,-0.007 -0.042,-0.0775 -0.056,-0.22944 -0.1447,-0.15503 -0.1411,-0.13074 -0.1235,-0.13385 -0.2046,0.0103 -0.2646,0.0884 -0.2543,0.20463 -0.056,0.13023 0.05,0.15555 0.046,0.14779 0.1587,0.36018 0.1162,0.26097 0.043,0.0915 -0.021,0.10232 -0.074,0.13436 -0.077,0.0847 -0.078,0.0811 -0.155,0.1235 -0.1411,0.15503 -0.3142,0.11989 c -0.2636,0.075 -1.4697,0.44309 -2.3213,1.11831 l -0.4583,0.22221 -0.078,0.23306 -0.01,0.18345 0.046,0.26097 0.1302,0.33176 0.2046,0.18655 0.3034,0.046 c 1.1036,-0.62172 2.0496,-0.99334 2.1802,-1.04435 l 0.3282,-0.20825 0.3069,-0.18655 0.1731,-0.17312 0.074,-0.007 0.042,-0.0212 0.1091,-0.0568 0.2294,-0.0491 0.2506,-0.0672 0.1411,-0.0393 0.2331,0.0713 0.1411,0.26096 0.095,-0.0429 0.1974,-0.0212 0.201,-0.0811 0.011,-0.0884 v -0.11989 l 0.035,-0.1726 0.099,-0.1447 0.2682,-0.10955 0.2857,-0.15865 0.2962,-0.10955 0.1343,-0.0243 0.5364,-0.31781 0.3948,-0.13022 0.2506,0.0315 0.2714,-0.0393 0.1943,-0.0491 0.2258,0.0279 0.2082,-0.0212 0.2465,0.046 0.2047,0.0351 0.2155,0.0284 0.2294,0.0279 0.2997,0.10594 0.1447,0.0388 0.05,0.11628 0.013,0.11317 v 0.0599 l -0.067,0.19017 v 5.2e-4 l 0.021,0.0388 0.081,0.0351 0.035,0.0315 0.2186,0.13074 0.1308,-0.032 0.07,-0.0775 0.1059,-0.0563 0.1023,-0.0563 0.201,0.0775 0.1344,0.15142 0.07,0.1204 0.042,0.1478 -0.06,0.22221 0.039,0.14831 0.053,0.10593 0.042,0.0739 0.028,0.0987 v 5.2e-4 l -0.01,0.0951 -0.071,0.14108 -0.032,0.17984 -0.1235,0.35966 -0.1411,0.21859 -0.233,0.24753 -0.2962,0.32402 -0.1446,0.18706 -0.071,0.17312 -0.2786,0.52968 -0.2563,0.49506 -0.3023,0.58343 -0.1519,0.3638 -0.2998,0.40876 -0.1834,0.35295 c -0.7352,1.38005 -0.7776,0.95576 -1.5875,2.25413 l -0.2294,0.51521 -0.2471,0.33538 -0.2997,0.37724 -0.3984,0.56069 c -0.2979,0.50907 -0.6052,1.01057 -0.847,1.54874 l -0.1586,0.37414 -0.3142,0.39171 -0.2925,0.45475 -0.1695,0.23306 -0.1871,0.28216 c -0.484,0.95841 -0.1816,0.12039 -0.7054,1.13274 l -0.2361,0.39894 -0.293,0.43357 -0.3282,0.53588 -0.1938,0.42685 -0.2542,0.339 -0.3209,0.57464 -0.2646,0.34262 -0.2682,0.42684 -0.353,0.39481 -0.2785,0.26148 -0.4093,0.0563 -0.4196,-0.32143 -0.3669,-0.39119 -0.4764,-0.293 -0.3669,-0.17622 -0.4269,-0.17673 -0.4268,-0.16227 -0.3494,-0.18345 -0.3984,-0.11627 -0.3245,-0.0884 -0.4233,-0.21497 -0.6004,-0.22221 -0.2171,-0.11059 -0.6427,-0.32974 m -9.3797,20.45752 c 0.2731,-0.40779 0.5187,0.21131 0.8547,0.42371 0.093,0.059 0.4079,-0.12894 0.4842,-0.12268 0.065,0.005 0.1939,-0.16108 0.2455,-0.30941 0.028,-0.0789 -0.011,-0.16164 0.01,-0.19099 0.024,-0.0437 -0.5884,-1.20131 -0.5644,-1.24967 0.038,-0.0777 -0.044,-0.24701 0,-0.33716 0.028,-0.0535 0.058,-0.10966 0.091,-0.16912 0.068,-0.12429 0.248,-0.27095 0.336,-0.42872 0.03,-0.0537 0.3458,-0.21666 0.4295,-0.23837 0.176,-0.0456 0.4498,-0.01 0.7337,0.15492 0.088,0.0507 0.1894,0.19996 0.2733,0.27229 0.1719,0.14808 0.3835,0.26166 0.5515,0.26606 0.1262,0.003 0.3583,-0.19478 0.447,-0.26008 0.067,-0.0496 0.3084,-0.35849 0.46,-0.6831 0.1275,-0.273 0.1774,-0.5656 0.1513,-0.64066 -0.043,-0.12302 0,-0.22553 -0.1842,-0.40414 -0.4056,-0.38599 -0.7291,-0.34049 -1.3074,-0.82807 -0.023,-0.0195 -0.029,-0.0709 -0.01,-0.17505 0.021,-0.11584 0.1178,-0.2781 0.1505,-0.29054 0.1553,-0.059 0.3399,-0.16416 0.5197,-0.20956 l 0.1597,-0.0309 0.2261,0.25864 0.8398,0.5214 0.5175,0.11194 0.4221,-0.39338 0.2047,-0.42332 -0.049,-0.308 -0.2367,-0.16834 -0.1998,-0.0366 -0.2773,-0.23066 -0.324,-0.13709 -0.3851,-0.0196 -0.095,-0.28539 0.015,-0.34903 0.1594,-0.41122 0.3241,-0.39814 0.7146,-0.0804 0.5433,-0.18583 0.738,-0.32127 0.5799,-0.0953 0.9839,-0.11453 0.9821,-0.29356 0.2359,0.10834 -0.01,0.2222 -0.103,0.29241 -0.2739,0.40283 -0.2257,0.37568 -0.9905,1.70639 -1.1861,1.40453 -1.0998,1.75493 -1.1284,1.45485 -4.5846,7.65636 -0.3824,1.00945 -0.6013,0.4694 -0.5717,0.77147 -0.8955,1.3776 -1.1011,1.26794 -0.2939,0.18792 -0.219,0.57653 -0.1962,0.23036 -0.4609,0.1298 -0.247,-0.35607 -0.509,-0.4224 -0.6175,-1.27325 -0.1263,-0.62573 0.4083,-0.82474 0.3546,-0.65855 0.5448,-0.60635 2.8934,-4.97417 1.3567,-1.92735 z m 9.8999,-19.32596 0.5467,0.27853 0.4589,0.15503 0.3881,0.10232 0.663,0.36691 0.3173,0.15192 0.3989,0.16227 0.4868,0.28215 0.2786,0.22583 0.2857,0.2713 0.2047,0.28267 0.1235,0.27854 0.091,0.42323 0.096,0.28938 0.021,0.17622 -0.1096,0.1943 -0.2119,0.29611 -0.2289,0.47646 -0.2046,0.17621 -0.1308,0.23978 -0.1658,0.3669 -0.2011,0.27906 -0.3069,0.35605 -0.2222,0.3421 -0.2011,0.33176 -0.1198,0.25735 -0.1411,0.30334 -0.1447,0.1695 -0.1519,0.31057 -0.2011,0.33486 -0.155,0.39171 -0.1659,0.31419 -0.2186,0.3421 -0.1731,0.2682 -0.1623,0.11989 -0.099,0.0811 -0.039,0.007 -0.035,0.004 -0.3105,0.0672 -0.5256,0.0599 -0.5679,0.0879 -0.554,0.11317 -0.8046,0.13384 -0.4831,0.12351 -0.1623,-0.0176 -0.099,-0.014 -0.071,-0.0109 -0.081,-0.0315 -0.053,-0.0248 -0.077,-0.0739 -0.021,-0.0284 -0.053,-0.12661 -0.036,-0.078 -0.046,-0.12661 -0.049,-0.15193 c -0.055,-0.29628 0,-0.54568 -0.2377,-0.74106 l -0.053,-0.0419 -0.1307,-0.0568 -0.088,-0.0212 -0.1344,-0.0103 -0.1162,0.007 -0.1199,0.0176 -0.081,0.0145 -0.085,0.0351 -0.1091,0.092 -0.053,0.0667 -0.1162,0.0951 -0.021,0.10231 0.1302,0.31781 0.099,0.0951 0.1023,0.13384 0.035,0.11317 0.095,0.10904 0.099,0.10955 0.1059,0.10232 0.056,0.19431 0.014,0.0703 -0.036,0.21859 -0.4759,0.092 -0.5643,0.1447 -0.586,0.11627 -0.5571,0.22944 -0.4305,0.0847 -0.2821,-0.0145 -0.3142,0.092 -0.3809,0.17621 -0.5643,0.24702 c -0.8447,0.21676 -1.6993,0.37622 -2.5647,0.47954 l -0.5364,0.19431 -0.4692,0.0915 c -1.365,0.0419 -1.7137,0.81055 -4.2721,0.85815 l -0.1623,0.0248 -0.5979,0.38755 0.2734,-0.49355 -0.067,-0.10232 c -0.1329,-0.32717 -0.3974,-0.41367 -0.6987,-0.54312 -1.2066,-0.33574 -2.2784,-1.14276 -2.3667,-1.21026 l -0.4057,-0.40928 -0.2791,-0.22221 c -0.7279,-0.54967 -1.4805,-1.05654 -2.3068,-1.4428 l -0.4056,-0.25012 c -0.7419,-0.60814 -0.9085,-0.51021 -1.657,0.19713 -0.405,0.39924 -0.8034,0.87185 -0.8938,1.15731 l -0.1096,0.14831 -0.081,0.13385 0.032,0.20825 0.1411,0.31058 0.2295,0.1974 0.1798,0.15865 0.2114,0.16226 0.4377,0.22945 0.1586,0.0951 0.2785,0.10955 0.339,0.0951 c 0.3283,0.15596 0.6155,0.37704 0.9028,0.59635 l 0.3106,0.24701 0.4093,0.32091 0.2997,0.28577 0.3142,0.23254 0.4341,0.28939 0.2041,0.0987 0.3529,0.0744 -0.016,0.14262 -0.4211,0.16434 -0.3917,0.15864 -0.6176,0.17984 -0.5327,0.10955 -0.6982,0.22893 -0.4201,0.0956 -0.7338,0.14418 -0.5504,0.23306 -0.5643,0.10955 -0.554,0.007 -0.8748,-0.0811 c -0.3383,0.005 -0.5915,-0.1513 -0.8853,-0.29817 l 0.1411,-0.20257 0.053,-0.0424 0.1023,-0.0672 c 0.2313,-0.1546 0.5106,-0.24015 0.7695,-0.3524 0.1523,-0.0877 0.4116,-0.35557 0.7725,-0.7337 l 0.024,-0.0708 -0.014,-0.18345 -0.046,-0.1447 c -0.033,-0.12134 -0.073,-0.24027 -0.1126,-0.35966 l -0.042,-0.13436 -0.032,-0.0388 -0.025,-0.0212 -0.042,-0.007 -0.1059,0.0315 -0.091,-0.007 -0.1483,-0.0496 c -0.1547,-0.20379 -0.1148,-0.44781 -0.1279,-0.69138 v -0.11989 c 0.021,-0.22015 -0.026,-0.43168 -0.074,-0.64594 l -0.039,-0.16898 v -0.092 l 0.021,-0.0847 0.018,-0.13746 0.01,-0.14469 c -0.062,-0.38303 -0.4753,-0.63187 -0.543,-0.67027 l -0.152,-0.0563 -0.1411,-0.1695 -0.039,-0.17622 v -0.0284 l -0.014,-0.12661 -0.032,-0.18345 -0.01,-0.007 v -0.0176 l 0.01,-0.0212 0.021,-0.20826 c 0.1403,-0.36812 0.3095,-0.55124 0.586,-0.81493 l 0.169,-0.0672 0.1592,-0.10232 0.1054,-0.0739 0.1803,-0.11627 0.099,0.007 h 0.1024 l 0.085,0.007 0.1199,0.0388 0.01,0.014 0.01,0.0811 0.021,0.19431 0.042,0.1266 0.046,0.11318 0.021,0.0351 0.039,0.0424 0.064,0.0248 h 0.056 l 0.031,-0.007 0.1307,-0.13022 0.049,-0.046 0.046,-0.0744 0.06,-0.14418 0.064,-0.10232 0.053,-0.0848 v -0.17311 l -0.024,-0.0491 -0.028,-0.0496 -0.088,-0.22221 -0.056,-0.10542 -0.1623,-0.38499 -0.1199,-0.25683 -0.064,-0.0987 -0.067,-0.14469 -0.099,-0.45889 -0.039,-0.22221 0.011,-0.10955 0.081,-0.19017 -0.018,-0.14831 -0.1762,-0.34572 -0.039,-0.14107 0.014,-0.15503 -0.071,-0.10956 -0.1519,-0.1974 -0.109,-0.12712 -0.077,-0.17312 -0.039,-0.14418 -0.2889,-0.43046 -0.1556,-0.15917 -0.077,-0.17621 -0.052,-0.28577 -0.081,-0.37362 0.1236,-0.27906 c 0.082,-0.18941 0.1887,-0.3652 0.2924,-0.54311 l 0.1272,-0.23307 0.078,-0.20463 0.1586,-0.092 0.2222,-0.0279 0.3039,-0.046 0.2186,-0.004 0.1901,0.0388 0.1659,0.0884 0.1556,0.0527 0.2645,0.0176 0.1478,-0.0212 0.4377,-0.0315 0.2186,-0.0176 0.1768,0.004 0.1901,0.0248 0.056,0.1447 -0.028,0.11317 v 0.0703 l 0.025,0.15554 0.064,0.11266 0.095,0.13384 0.014,0.11679 -0.046,0.13384 -0.067,0.13746 v 0.0775 l 0.046,0.0181 0.1768,0.0703 0.1514,0.0775 0.099,0.0181 0.1834,-0.0315 0.096,-0.0956 0.028,-0.1974 0.088,-0.26459 0.032,-0.21859 0.1096,-0.27543 0.025,-0.15503 0.1126,-0.0951 0.106,-0.0114 0.1901,-0.0382 0.1835,-0.0393 0.1907,-0.031 0.1659,-0.032 0.2222,-0.0951 0.064,-0.046 0.1938,0.0527 0.201,0.14831 0.1235,0.0388 0.096,0.014 0.1514,-0.0703 0.05,-0.13074 0.053,-0.2682 0.011,-0.10904 0.064,-0.13074 0.056,-0.1447 0.045,-0.18707 0.05,-0.1018 0.05,-0.0212 0.1447,-0.0217 0.1054,0.004 0.039,0.0284 0.061,0.0527 0.095,0.0884 0.095,0.0351 0.1411,-0.0248 0.1623,-0.0527 0.1798,-0.0987 0.1943,-0.0847 0.1271,-0.0563 0.1587,-0.0739 0.1938,-0.10956 0.2893,-0.15503 0.353,-0.13022 0.2113,0.0176 0.2223,0.0279 h 0.018 l 0.1974,0.0248 h 0.187 l 0.1266,-0.0393 0.05,-0.0346 0.039,-0.0568 0.021,-0.0315 0.092,-0.0987 0.06,-0.046 0.045,-0.0176 0.067,-0.0315 0.042,-0.004 0.06,-0.0248 0.06,-0.0491 0.05,-0.0496 0.07,-0.0563 0.039,-0.032 0.3845,-0.16536 0.031,-0.0672 0.067,-0.11628 0.1338,-0.21187 0.1024,-0.16226 0.074,-0.0775 0.1447,-0.20102 0.1198,-0.16588 0.1132,-0.1943 0.1302,-0.29249 0.2543,-0.45527 0.056,-0.0879 0.1519,-0.20154 0.042,-0.0951 0.053,-0.10232 0.074,-0.0884 0.074,-0.13023 0.028,-0.11317 0.1168,-0.20774 0.035,-0.0847 0.095,-0.17311 0.1519,-0.2434 0.2047,-0.28939 0.1834,-0.22892 0.1266,-0.17312 0.1943,-0.23616 0.2083,-0.18035 0.1447,-0.13746 0.1302,-0.0636 0.1344,-0.0315 0.2541,-0.0192 0.1943,0.0103 0.2537,0.046 0.1096,-0.004 0.1446,0.0284 -0.081,0.13126 -0.1204,0.13023 -0.028,0.032 -0.1059,0.24701 -0.099,0.22893 -0.056,0.24029 -0.011,0.33848 -0.018,0.35605 -0.046,0.16588 0.032,0.18346 0.022,0.15864 0.1302,0.0424 0.1871,0.0176 v 0.004 l 0.084,-0.0248 h 0.095 l 0.1307,-0.0103 0.1447,-0.0212 0.064,-0.0672 0.035,-0.1235 -0.011,-0.11266 v -0.1943 l 0.01,-0.23978 0.014,-0.21859 0.088,-0.27905 0.085,-0.12661 0.1411,-0.18707 0.1411,-0.0951 0.1447,-0.0109 0.1374,0.0532 0.1132,0.1726 0.085,0.15865 -0.042,0.25425 -0.1023,0.20102 -0.1163,0.19068 -0.085,0.29249 -0.1023,0.2682 -0.074,0.24702 v 0.37362 l 0.018,0.18345 0.1586,0.0956 0.1799,0.0527 0.1519,0.014 0.2997,-0.0176 0.085,-0.0987 0.049,-0.15503 0.088,-0.23306 0.032,-0.28577 0.088,-0.1726 0.1096,-0.12351 0.1126,-0.15554 0.042,-0.12351 0.053,-0.23978 0.1344,-0.16588 0.1235,-0.0703 0.1411,0.0703 0.1302,0.18707 0.1199,0.2682 0.1483,0.25735 0.085,0.31057 0.031,0.28939 -0.01,0.25373 -0.056,0.339 -0.06,0.18707 -0.05,0.16226 0.8374,0.0622 0.1304,-7.2e-4 0.2339,-0.49755 0.1981,-0.28276 0.1577,-0.11772 0.2889,-0.15865 0.2853,-0.0248 0.3741,0.12351 0.3246,0.20825 0.3953,0.2434 0.571,0.20102 0.293,0.18345 0.5152,0.22221 0.3597,0.15865 0.462,0.27543 0.3881,0.15141 0.4129,0.21549 0.3142,0.20774 0.3385,0.27544 0.9885,0.35256 z m -21.0923,-2.9205 0.1344,0.0672 0.3033,0.11627 0.2646,0.293 0.4196,0.43357 0.095,0.0744 0.2083,0.13384 0.1519,0.13075 0.1375,0.10903 0.07,0.078 0.039,0.0739 0.091,0.12351 0.088,0.11989 0.045,0.0708 0.021,0.0879 -0.067,0.0744 -0.081,0.0811 -0.1307,0.0811 -0.1447,0.0599 -0.1339,0.0563 -0.077,0.0279 -0.1374,0.0636 -0.085,0.0388 -0.1024,0.0357 -0.1379,0.0951 -0.1055,0.0884 -0.1483,0.13746 -0.2573,0.11627 -0.2894,-0.014 -0.077,-0.0703 -0.1307,-0.18707 -0.1199,-0.17674 -0.099,-0.18655 -0.1168,-0.40256 -0.059,-0.13384 -0.067,-0.33176 0.018,-0.0563 -0.092,-0.51521 -0.035,-0.21859 0.078,-0.1695 0.1199,-0.20102 0.1798,-0.14108 z m -0.8698,13.53149 0.6881,0.58008 1.1728,0.85091 1.0134,0.50062 0.5443,0.44249 0.7204,0.26056 c 0.091,0.33336 0.1493,0.50852 -0.1211,0.70418 -0.422,0.18049 -0.6638,0.38815 -1.1147,0.15827 l -0.2767,-0.4467 -2.5142,-1.52111 -0.4772,-0.25093 -2.4819,-1.57349 0.3387,-0.37515 0.4041,-0.22449 0.3354,-0.0606 0.5691,0.39464 z m 8.5944,3.09798 c 0.041,0.001 0.079,0.005 0.1127,0.0103 0.1459,0.0248 0.2328,0.14764 0.1524,0.21859 l -0.1328,0.16226 -0.1447,0.16588 -0.1953,0.25012 -0.2501,0.24805 -0.1504,0.17983 -0.2305,0.27543 -0.201,0.17002 -0.2501,0.16381 -0.2052,0.1385 -0.2222,0.13694 -0.2387,0.0682 -0.2615,-0.0388 -0.215,-0.10542 c -0.2768,-0.18105 -0.5275,-0.39553 -0.8123,-0.56268 l -0.1194,-0.0196 -0.1483,0.0196 -0.1173,0.0858 c 0.001,0.2193 -0.1034,0.37451 -0.2324,0.54312 l -0.082,0.0879 -0.1292,0.14831 -0.156,-0.0289 -0.1799,-0.0315 -0.2186,-0.0879 -0.043,-0.13642 -0.1291,-0.10387 -0.1168,-0.076 -0.065,-0.15244 0.021,-0.10181 0.036,-0.11679 0.01,-0.0315 0.049,-0.10904 0.039,-0.0393 0.061,-0.0527 0.1095,-0.0605 0.1132,-0.0491 0.2677,-0.10542 0.2888,-0.0956 0.537,-0.20516 0.9549,-0.17983 0.5375,-0.16175 0.9508,-0.30076 c 0.2588,-0.0427 0.7187,-0.12936 1.0087,-0.11989 z" /><path
       id="path4-6"
       d="m 731.25057,728.01492 0.0459,0.0388 0.10581,-0.0175 0.1764,-0.0811 0.0529,-0.0564 0.14462,-0.20108 0.17288,-0.20108 0.16227,-0.13404 0.12348,-0.15171 0.13052,-0.14111 0.0811,-0.10231 0.0882,-0.10229 0.1411,-0.10231 0.10935,-0.0564 0.10232,0.004 0.0917,0.0212 0.0847,0.0565 0.0706,0.0741 0.0635,0.0953 0.0423,0.0706 0.0353,0.0459 0.0317,0.0811 0.0106,0.067 -0.0423,0.0811 -0.13404,0.16581 -0.12348,0.15875 -0.0988,0.1129 -0.0847,0.0776 -0.0917,0.0706 -0.0706,0.0811 -0.0529,0.10938 -0.0917,0.16227 -0.13758,0.10935 -0.17992,0.0917 -0.13403,0.14462 -0.10232,0.1482 -0.127,0.0776 -0.0459,0.0388 -0.10936,0.13052 -0.0529,0.0776 -0.0353,0.0423 -0.007,0.0494 -0.004,0.0212 0.014,0.16227 -0.007,0.0847 -0.0246,0.0953 -0.34729,-0.71773 z"
       style="display:inline;fill:#8d9391;fill-opacity:1;stroke:none;stroke-width:0.264999;stroke-linecap:round;stroke-linejoin:round;stroke-miterlimit:10;stroke-dasharray:none;stroke-opacity:1;filter:url(#filter593)" /><g
       id="g109"
       style="display:inline;fill:#8d9391;fill-opacity:1;stroke:none;stroke-width:1.00157;stroke-dasharray:none;stroke-opacity:1;filter:url(#filter593)"
       transform="matrix(0.26458333,0,0,0.26458333,599.6927,514.06924)"><path
         id="path5-5"
         d="m 3557.8,1804.2 11.5,-1.8 13,-0.2 14.4,-1.5 8.9,-1.4 12.7,-2.9 13,-1.9 h 8.3 l 8,-0.9 10.5,-2.9 19.6,-4.8 7.3,-0.3 11.6,-3 6.7,-0.2 14,-2.2 9.5,-4.7 5.2,-0.6 5,-2.5 1.8,-3.1 -1.7,-3.7 -1,-3.8 -2.7,-2.6 -7,-0.2 -11.5,3.5 -12,4.2 -13.2,3.2 -17.7,3.4 -11.3,3 -16.8,2.8 -15.6,1.6 -12.8,1.6 -14.4,1.4 -13.2,2.1 -5.8,0.8 -9.2,0.5 -17.9,2.8 1.4,12.2 1.4,2.1"
         style="fill:#8d9391;fill-opacity:1;stroke:none;stroke-width:7.51181;stroke-linecap:round;stroke-linejoin:round;stroke-miterlimit:10;stroke-dasharray:none;stroke-opacity:1"
         transform="matrix(0.13333333,0,0,-0.13333333,0,1066.6667)" /><path
         id="path6-5"
         d="m 3795.3,1738.9 -2.8,-3.1 -3.2,-3.6 -3.4,-2.5 -6.5,-2.4 -4.1,-1.1 -4,2.3 -3,3.4 -2.9,1.9 -5.2,1.5 -7.7,2.2 -5,2 -7.2,2.9 -5,3.7 -4.4,2.2 -3.7,1.4 -1.5,0.5 -0.2,2.9 3.4,7.3 2,4.5 1.5,3.4 1.7,3 1.6,0.8 4,-1.5 5.6,-4 5.4,-4 7.6,-5.7 6.5,-3.8 4.5,-0.8 6.5,-0.7 4.7,-1.1 4.5,-1.2 4,-0.5 2.7,-0.6 5.05,-3.05 z"
         style="fill:#8d9391;fill-opacity:1;stroke:none;stroke-width:7.51181;stroke-linecap:round;stroke-linejoin:round;stroke-miterlimit:10;stroke-dasharray:none;stroke-opacity:1"
         transform="matrix(0.13333333,0,0,-0.13333333,0,1066.6667)" /></g><g
       id="g130"
       style="display:inline;stroke:#000000;stroke-width:1.00157;stroke-dasharray:none;stroke-opacity:1;filter:url(#filter593)"
       transform="matrix(0.26458333,0,0,0.26458333,599.6927,514.06924)"><g
         id="g129"
         style="stroke:#000000;stroke-width:1.00157;stroke-dasharray:none;stroke-opacity:1"><path
           id="path109-8"
           d="m 3932.0348,2263.0305 -7.0977,6.9178 -0.8371,0.7517 -2,1.5 -2,2.3 -3.2,1.7 -2.7,1.7 -4.4,2.2 -3.6,2 -1.1,0.7 -2.2,2.6 -0.4,0.6 -2,3.2 -1.5,2.3 -1.6,3 -1.9,2.6 -2,2.1 -1.5,1.4 -1.3,0.8 -1.7,0.6 -1.9,-0.5 -3,-2.4 -1.8,-1.9 -2.2,-2.7 -1,-2.1 -1.8,-2.4 -0.3,-2.7 0.4,-3.3 0.4,-4.6 0.9,-2.3 2.9,-3 5.5,-5 4.5,-4.2 4.6,-5.3 3.7,-3.1 6.8,-9.2 2.5,-4.2 3.6,-5 3.4,-5.5 2.6,-4.1 1.9,-2.3 0.9,-2 -0.1,-2 0.1,-2.3 0.3,-4.4 0.2,-1.5 -0.5,-1.9 -2.2,-1.6 -2.8,-2 -1.8,-2 -4.4,1.5 -4.4,3.8 -4.1,3.6 -4.9,3.9 -4.6,3.6 -4,2.5 -3.2,1.7 -3.5,1.4 -5.2,3 -2.3,1.8 -1.6,1 -1.8,1.7 -1.9,-1.7 -2.4,-3.3 -2.7,-3.1 -2.1,-3.4 -1.6,-2.7 -1.4,-2.6 -1.1,-1.6 2.7,-3.5 7.5,-3.7 4.3,-2.7 6.1,-3.6 5.1,-4.2 2.2,-2.8 4.5,-4.4 5.5,-5.5 5.9,-5.8 3.2,-2.3 4.2,-2.7 6.5,-3.2 1.6,-1.3 1.5,-5.1 1.2,-3.9 1.4,-6.5 0.7,-3.3 0.4,-3.6 0.3,-1.8 -0.2,-2.9 -0.5,-2.2 -1,-2.9 -1,-3 -0.3,-2.9 0.1,-1.5 -0.4,-2.3 -0.9,-2.1 0.1,-1.1 12.005,64.3164 z"
           style="fill:#8d9391;fill-opacity:1;stroke:none;stroke-width:7.51181;stroke-linecap:round;stroke-linejoin:round;stroke-miterlimit:10;stroke-dasharray:none;stroke-opacity:1"
           transform="matrix(0.13333333,0,0,-0.13333333,0,1066.6667)" /></g></g><path
       d="m 714.768,748.9147 -0.2155,0.19378 -0.0667,0.0532 0.0667,-0.0527 z"
       style="display:inline;fill:#999999;stroke-width:0.2;stroke-linecap:round;stroke-linejoin:round"
       id="path131-1" /><path
       d="m 714.87548,754.07045 -0.20101,-0.0884 -0.47283,-0.26458 0.47283,0.26511 z"
       style="display:inline;fill:#999999;stroke-width:0.2;stroke-linecap:round;stroke-linejoin:round"
       id="path132-4" /><path
       d="m 748.72354,740.96895 -0.33898,0.34933 -0.34883,0.42685 0.34933,-0.42685 z"
       style="display:inline;fill:#999999;stroke-width:0.2;stroke-linecap:round;stroke-linejoin:round"
       id="path133-7" /><path
       d="m 750.50948,737.73143 -0.12814,0.24595 -0.2713,0.68781 0.27181,-0.68781 z"
       style="display:inline;fill:#999999;stroke-width:0.2;stroke-linecap:round;stroke-linejoin:round"
       id="path134-1" /><path
       d="m 746.89265,738.31949 0.47647,0.293 v 0 z"
       style="display:inline;fill:#999999;stroke-width:0.2;stroke-linecap:round;stroke-linejoin:round"
       id="path135-3" /><path
       d="m 734.28102,728.75935 -0.13435,0.17262 -0.16227,0.22942 0.16277,-0.22942 z"
       style="display:inline;fill:#999999;stroke-width:0.2;stroke-linecap:round;stroke-linejoin:round"
       id="path136-8" /><path
       d="m 736.2282,725.5947 -0.0672,0.13435 -0.11266,0.17259 0.11316,-0.17259 z"
       style="display:inline;fill:#999999;stroke-width:0.2;stroke-linecap:round;stroke-linejoin:round"
       id="path137-4" /><path
       id="path138-8"
       style="display:inline;fill:none;stroke:none;stroke-width:0.302001;stroke-linecap:round;stroke-linejoin:round;stroke-miterlimit:10;stroke-dasharray:none"
       d="m 736.17116,756.60196 0.15864,0.0672 0.0284,0.26096 -0.11316,0.34936 -0.26768,0.33173 -0.30697,0.57518 -0.27906,0.47956 -0.32091,0.48678 -0.32814,0.57155 -0.4196,0.46921 -0.54004,0.6563 -0.35243,0.48678 -0.39531,0.5147 -0.39844,0.59637 -0.40566,0.71982 -0.29662,0.45167 -0.21135,0.35243 -0.29662,0.36689 -0.28578,0.56121 -0.33123,0.55399 -0.40619,0.59944 -0.28578,0.58909 -0.24648,0.42326 -0.28268,0.45886 -0.20773,0.46924 -0.40928,0.59944 -0.37052,0.60669 -0.38447,0.55758 -0.3633,0.57515 -0.35655,0.5328 -0.6594,0.96633 -0.2718,0.52917 -0.24342,0.64908 -0.50435,0.50435 -0.63148,0.76946 -0.35658,0.60669 -0.22892,0.36327 -0.49403,0.61031 -0.45526,0.57153 -0.50438,0.50797 -0.26096,0.17624 -0.12713,0.31779 -0.10231,0.18656 -0.23977,0.2403 -0.38809,0.10231 -0.0315,-0.0109 -0.032,-0.0103 -0.0212,-0.0108 -0.004,-0.004 -0.0393,-0.0563 -0.0915,-0.12713 -0.0708,-0.0739 -0.0636,-0.0496 -0.17984,-0.11991 -0.22219,-0.22582 -0.12713,-0.27853 -0.16537,-0.33901 -0.13798,-0.29247 -0.1974,-0.38809 -0.15865,-0.50797 0.1483,-0.49766 0.16899,-0.26458 0.19793,-0.38447 0.1478,-0.24701 0.11316,-0.23617 h 0.007 l 0.0744,-0.0744 0.21498,-0.2713 0.22944,-0.293 0.21498,-0.38087 0.25064,-0.40204 0.34933,-0.60719 0.24701,-0.4372 0.25011,-0.36327 0.2894,-0.5116 0.2222,-0.37414 0.23667,-0.40566 0.19378,-0.31729 0.17314,-0.33176 0.28216,-0.43408 0.25011,-0.35605 0.27905,-0.39534 0.57462,-0.88159 0.2367,-0.32454 0.35296,-0.54673 0.13382,-0.22273 0.10957,-0.21497 0.10903,-0.19741 0.11626,-0.16949 0.0393,-0.0351 0.0879,-0.0145 0.12351,0.0393 0.11988,0.0599 0.13436,0.1266 0.0739,0.10594 0.19741,0.22944 0.18346,-0.0315 0.15915,-0.0605 0.18346,-0.10234 0.13383,-0.13385 0.0884,-0.10592 -0.0145,-0.20775 -0.12351,-0.22944 -0.1266,-0.27181 -0.0811,-0.19741 -0.092,-0.22944 -0.11266,-0.28578 -0.0351,-0.31729 0.24648,-0.39171 0.23305,-0.24699 0.2119,-0.16227 0.21495,-0.0775 0.26099,0.007 0.28215,0.078 0.19791,0.11266 0.21497,0.18706 0.20103,0.1695 0.18346,0.0951 0.19066,0.0491 0.22585,-0.1302 0.19738,-0.11991 0.42685,-0.57877 0.15505,-0.35968 0.0672,-0.37774 -0.11628,-0.37 -0.1695,-0.10594 -0.13745,-0.12713 -0.15557,-0.0847 -0.23977,-0.0708 -0.29972,-0.12298 -0.37052,-0.35658 -0.0212,-0.19741 0.11317,-0.21187 0.20462,-0.15502 0.16899,-0.0744 0.20826,-0.063 0.1411,0.004 0.11263,0.11681 0.13798,0.13383 0.58912,0.38086 0.23977,0.12349 0.47646,0.13747 0.4408,-0.50437 0.0739,-0.14468 0.0987,-0.22582 -0.0599,-0.22894 -0.0599,-0.0744 -0.15865,-0.12661 -0.22584,-0.0847 -0.16587,-0.11319 -0.10232,-0.0847 -0.15504,-0.0703 -0.15502,-0.0636 -0.10957,0.014 -0.21857,-0.0284 -0.0357,-0.0563 -0.0739,-0.25373 -0.0109,-0.16587 0.004,-0.13748 0.14829,-0.37774 0.32814,-0.43717 0.27183,-0.0387 0.46562,-0.0496 0.42682,-0.1447 0.39844,-0.17981 0.40928,-0.15867 0.60667,-0.13436 0.45167,-0.0599 0.53276,-0.0667 0.43408,-0.14108 0.33126,-0.10594 z" /></g></svg>
