<?xml version="1.0" encoding="UTF-8" standalone="no"?>
<!-- Created with Inkscape (http://www.inkscape.org/) -->

<svg
   width="29.46385mm"
   height="20.154455mm"
   viewBox="0 0 29.46385 20.154455"
   version="1.1"
   id="svg1"
   xml:space="preserve"
   xmlns="http://www.w3.org/2000/svg"
   xmlns:svg="http://www.w3.org/2000/svg"><defs
     id="defs1"><filter
       style="color-interpolation-filters:sRGB"
       id="filter2002"
       x="0"
       y="0"
       width="1"
       height="1"><feMorphology
         radius="4.3"
         in="SourceAlpha"
         result="result91"
         id="feMorphology2001" /><feComposite
         operator="out"
         in="SourceGraphic"
         in2="result91"
         id="feComposite2001" /><feGaussianBlur
         result="result0"
         stdDeviation="1.2"
         id="feGaussianBlur2001" /><feDiffuseLighting
         diffuseConstant="1"
         id="feDiffuseLighting2001"><feDistantLight
           elevation="66"
           azimuth="225"
           id="feDistantLight2001" /></feDiffuseLighting><feBlend
         mode="multiply"
         in2="SourceGraphic"
         id="feBlend2001" /><feComposite
         operator="in"
         in2="SourceAlpha"
         id="feComposite2002" /></filter></defs><g
     id="layer-oc3"
     transform="matrix(0.26458333,0,0,0.26458335,104.45553,-506.93161)"
     style="display:inline;mix-blend-mode:normal"><path
       id="path1913"
       style="display:inline;opacity:1;fill:#c8cbce;fill-opacity:1;stroke:none;stroke-width:0.793701;stroke-linecap:round;stroke-miterlimit:10;stroke-dasharray:none;filter:url(#filter2002)"
       d="m -354.65384,1915.9618 -0.70313,0.4277 -0.83984,0.5586 -0.95899,0.8809 0.23828,0.8008 0.8418,1.039 0.1543,0.168 0.4043,0.2324 c 2.79799,2.3443 0.71599,1.065 5.12109,5.7207 1.3555,0.998 1.05616,1.0916 0.53516,1.8262 -0.4372,0.6164 -1.0576,1.518 -2.0918,1.8476 -1.8288,0.7273 -3.41251,2.3758 -5.00391,3.5645 -0.6788,0.3626 -1.545,1.0427 -2.7207,2.041 l -0.47852,0.3203 -0.88086,0.7598 -2.36328,1.25 -6.95703,5.1308 -1.03906,-2.1191 -2,-1.6797 -2.56055,-1.6797 h -0.0801 l -1.08007,-1.6816 -0.59961,-0.9199 -2.16016,-1.959 -2.08008,-1.2813 c -1.3179,-0.4346 -2.25812,-0.7951 -3.01172,-1.3925 -0.798,-0.6325 -1.38634,-1.5308 -1.99414,-3.0586 l -0.17968,-0.1543 -0.36133,-0.4395 -0.19922,-0.6406 -7.08985,-1.0039 1.95899,1.1211 1.20117,1.039 c 3.5906,4.0161 7.71754,7.7942 11.51953,11.8008 l 0.48047,0.5196 0.32031,0.4394 0.0391,0.2402 1.35937,1.5606 0.40039,0.6797 -0.63867,0.6797 -0.32031,0.2402 -0.80078,0.6797 -1.35938,-1.5996 -1.12109,-1.3203 -0.5586,-0.5996 -0.67968,-0.879 -0.56055,-0.2402 -0.7207,-0.1601 -0.32032,0.2793 -0.24023,0.5195 c -0.4559,0.8536 -0.62065,1.5565 -0.43945,2.4805 1.75219,6.9507 2.34259,3.7111 3.12109,8.08 l 0.11914,0.4395 0.24023,0.5215 0.2793,0.4785 0.40039,0.5215 0.48047,0.7597 c 1.4056,5.0903 4.30949,4.0527 1.2793,9.1602 l -0.32031,0.4394 c -1.1824,2.1964 -2.42788,4.398 -3.63868,6.5997 l -0.12109,0.8398 0.64062,1 0.48047,0.1602 c 0.8276,0.4539 2.90962,0.3839 4.07422,0.3105 l 0.88477,-0.5918 0.40039,-0.4414 0.40039,-0.6797 c 0.9973,-2.2683 2.71901,-3.7451 4.59961,-5.1992 v -0.2793 c -0.5163,-1.0409 0.23919,0.3915 -0.32031,-1 0.1347,-0.972 0.60752,-1.5823 1.14062,-2.543 l 5.42383,2.1739 2.69726,-5.2325 -7.92382,-2.4922 0.72851,-4.2871 3.18163,-2.2537 2.64929,1.4802 2.4601,1.1446 4.07226,-5.3457 -4.58984,-3.8984 15.27344,-10.2598 c 7.5144,-1.4842 10.91142,0.9465 11.89062,1.8457 l 0.16016,0.6406 c 0.04,1.5748 -1.28055,2.8265 -2.12109,4.1192 l -11.97461,12.791 -9.76954,-4.8848 -3.48815,5.2109 6.41784,1.8399 c 0.6941,0.7451 0.92599,1.3237 0.95899,2.4004 l 0.12109,0.8008 c 0.079,1.4489 -0.074,2.8678 -1.20117,3.8398 l -0.67969,0.5586 c -4.99104,-1.0155 -5.44678,-3.7041 -7.76758,-3.1777 -0.4268,0.097 -1.4486,3.4669 -2.1914,3.6113 -0.9299,2.8472 4.11838,2.2666 5.08398,3.4668 0.91154,1.1354 0.17379,3.2643 -1.67773,5.4278 l -0.32032,0.5585 -0.24023,0.2813 c -2.5746,7.2722 -0.67535,0.841 -1.71875,4.3594 -0.4433,1.5958 -1.20695,3.0936 -1.28125,4.7597 -0.2698,2.5766 0.94717,4.517 2.20117,6.6797 1.0611,1.0804 2.0697,2.1999 3,3.4414 5.15514,3.0801 10.62304,2.1216 16.03906,-0.08 2.18254,-1.3547 4.70459,-2.2751 6.83985,-3.6797 l 0.60156,-0.2813 1,-0.4004 0.63867,-0.4785 0.67969,-0.4414 15.7207,-7.1992 h 0.32032 l 4.35546,-2.5078 2.96485,1.2285 0.63867,-0.1602 0.7207,-0.4004 0.64063,-0.1211 c 2.1435,0.4117 4.27523,0.7795 6.35937,1.4004 0.7216,0.8157 1.65703,1.3001 2.64063,1.7598 l 0.8789,-0.08 0.92383,0.096 4.39649,-3.0175 -0.48047,-0.3184 -1.19922,-0.2012 -0.2793,-0.039 c -2.36659,-0.7292 -4.19852,-2.4412 -6.60156,-3 l -0.83984,-0.6407 c -2.31372,-1.6001 18.93708,-8.5777 21.36523,-10.3672 l -4.4668,-4.9941 -5.86328,1.9219 -4.67968,-7.1973 -7.91016,-5.7871 -0.58984,-1.998 -1.35938,-0.096 -2.53906,-1.9727 -4.11133,-1.5527 -2.27734,1.1211 1.23437,0.6855 -2.41797,3.0332 2.0332,1.8984 -2.43164,2.8653 -1.96289,1.3222 -5.3164,-3.9511 c 0.10986,-0.2119 -3.71712,-3.9985 -4.75586,-3.752 -0.38013,0.09 -1.97764,2.3896 -1.67774,3.0645 0.0309,0.07 1.49472,0.9025 2.86719,1.8633 l 2.31055,1.4003 -1.50391,3.043 c -0.91814,-1.0142 -0.83606,-2.2152 -1.82422,-2.5371 -1.44811,-0.4719 -2.68356,1.834 -3.51758,2.8457 -0.0829,0.3171 -0.12993,0.6647 -0.13867,1.0566 l -0.62304,-0.3476 c -0.22368,0.5537 0.5067,1.8526 1.20507,3.0254 l -0.21679,2.3633 2.16406,1.3632 3.21289,-0.914 c 5.57994,1.179 8.07362,4.3116 12.02344,8.2695 l 0.52148,1 1.03906,1.1992 -0.24023,0.5996 -0.0801,0.4004 -0.51953,0.2403 -0.24023,0.1191 -0.43946,0.1211 c -5.18485,1.8949 0.38222,0.061 -3.80078,1.9199 l -0.51953,0.2793 -7.67969,2.961 c -1.3119,0.8378 -4.78938,2.9967 -6.23828,3.2402 l -0.24023,0.2793 c -5.56341,2.345 -10.41726,5.3575 -16.08008,7.2402 -1.679,0.4309 -3.11677,0.2076 -4.75977,-0.1601 l -0.7207,-0.1602 -0.31836,-0.2402 -0.36133,-0.2793 c -0.7087,-0.9089 -1.36164,-1.8585 -2.11914,-2.7207 l -0.56054,-0.5996 -0.48047,-0.4395 c -0.2214,-0.5078 -0.51328,-1.7335 -0.63868,-2.3613 0.049,-0.3677 0.0381,-0.7319 0.19727,-1.0801 l -0.0371,-0.3984 v -0.3614 l 0.23828,-0.4804 c 0.661,-1.7438 1.16147,-3.4867 1.75977,-5.2383 l 0.23828,-0.7207 0.32031,-0.7598 c 0.5948,-1.9384 3.74244,-5.8139 3.96094,-6.8008 1.638,-1.194 7.52207,-9.3374 7.63867,-9.4394 l 0.91992,-1.4805 0.041,-0.1992 0.43945,-0.5605 1.08008,-0.3594 1.40039,-0.4414 0.32031,-0.1192 0.87891,-0.1992 0.83984,-0.08 1.52149,-0.4414 4.33008,2.4141 c 0.0456,-0.1128 0.11503,-0.2059 0.25,-0.2481 0.14494,-0.045 0.32196,-0.2308 0.51171,-0.4609 0.23306,-0.8921 0.76617,-1.5293 1.65625,-2.1269 l -0.59179,-0.7071 -4.32227,-3.6855 1.9668,-2.1914 2.18945,-3.795 2.49805,-3.791 0.48047,0.2637 0.35937,-0.023 c 1.2977,0.4791 2.38421,1.165 3.44141,2.08 l 1.11914,1.0782 0.67969,0.3613 0.67968,0.2402 1.48047,1.0391 0.88477,0.7617 0.0762,0.039 3.16016,2.4199 0.0215,-0.025 -0.20508,-0.1934 1.02344,-3.3457 0.36524,-0.1796 -0.56641,-0.3145 -1.24024,-0.959 -0.31835,-0.4004 -1.56055,-0.9199 c -1.4749,-1.0423 -0.84111,-0.9615 -3.43945,-2.7207 l -0.56055,-0.4805 c -0.8118,-0.6651 -1.68207,-1.2471 -2.48047,-1.9199 l -0.40039,-0.4805 -0.19922,-0.3984 0.0391,-0.2402 0.16016,-0.5606 0.48047,-0.8789 -1.19531,-2.6152 c -1.31209,0.8549 -2.70073,1.5671 -4.24415,2.1348 l -0.20117,-0.1622 -1.19922,-1.0781 v -0.012 l -1.63671,-0.7129 c -2.5952,-1.5191 -4.89814,-2.9588 -7.27344,-4.3535 l -1.34961,-0.6152 c -4.04477,-3.2794 -5.69355,-3.4004 -8.25196,-5.7422 l -0.4375,-0.3574 -0.80078,-0.3204 z m 48.59179,35.0391 c 4.5113,1.6641 5.66502,5.2649 8.32032,8.6796 l -0.67969,0.1192 -0.35938,0.2012 c -9.21877,5.011 -14.83776,7.5327 -14.75976,2.4003 l 0.39844,-1.041 0.0801,-0.2402 2.28125,-6.4004 0.56055,-0.7988 0.91992,-1 1.67969,-1.8809 z m -16.59765,1.0371 c 3.34788,2.9246 4.97927,3.6833 7.45117,6.832 l -0.52539,3.3496 -7.59961,-5.166 z" /></g></svg>
