
<svg width="91" height="65" viewBox="0 0 91 65" fill="none" xmlns="http://www.w3.org/2000/svg">
<path fillRule="evenodd" clipRule="evenodd" d="M68.4303 53.8102H67.3744V53.8336H46.9779H26.5813V53.8102H24.8293C24.4989 53.8298 24.0387 53.8336 23.4052 53.8336H21.3129L21.2827 45.5623L21.2376 37.2764L20.8011 36.8364C20.5753 36.6018 20.1989 36.3231 19.9732 36.2351C19.6871 36.1325 17.7002 36.0885 13.4703 36.1178L7.38901 36.1618L6.57616 36.6018C5.1612 37.3644 4.81498 37.8923 2.96349 42.16C2.04527 44.2864 1.1722 46.3249 1.03673 46.6769C0.690515 47.5862 0.570093 52.8951 0.886202 53.3057C1.08189 53.5697 1.06684 53.6283 0.780832 53.8483C0.494829 54.0683 0.464723 54.2736 0.419565 55.7255C0.374406 57.1334 0.404512 57.4413 0.675462 57.984C0.856096 58.3359 0.991571 58.8639 0.991571 59.1572C0.991571 59.4945 1.11199 59.8171 1.35284 60.0958L1.71411 60.5064L4.75477 60.6531L7.79544 60.7997L8.18681 61.6063C8.68355 62.6476 9.79746 63.7181 10.8963 64.2168C11.649 64.5687 11.935 64.6127 13.2596 64.6127C14.5993 64.6127 14.8552 64.5687 15.6078 64.2021C16.6314 63.7035 17.7002 62.6622 18.227 61.6357C18.5732 60.9757 18.6786 60.873 19.0549 60.873C19.7925 60.873 20.6806 60.4478 21.0118 59.9198C21.2225 59.5972 21.3129 59.1865 21.3129 58.6146V57.7933H22.0655H22.8181V58.7466C22.8181 59.8465 23.074 60.4478 23.646 60.6971C24.2481 60.961 27.5297 60.9317 28.0866 60.6531C28.5834 60.4038 28.8844 59.6118 28.8393 58.6879C28.8151 58.2091 28.8039 57.9866 28.9094 57.8832C29.001 57.7933 29.1808 57.7933 29.5166 57.7933H30.194V58.7466C30.194 59.8465 30.4499 60.4478 31.0219 60.6971C31.5337 60.9317 40.5202 60.9464 41.1223 60.7264C41.7847 60.4771 41.9201 60.1691 41.9352 58.9225V57.7933H42.8082H43.6813V59.1425C43.6813 60.2278 43.7415 60.6824 44.0125 61.3423C44.4942 62.5156 45.5027 63.5422 46.722 64.1288C47.6402 64.5687 47.8359 64.6127 49.1605 64.6127C50.4099 64.6127 50.711 64.5541 51.5088 64.2021C52.6076 63.7035 53.6463 62.7209 54.2333 61.6063C54.6096 60.873 54.6548 60.6531 54.6548 59.3038V57.7933H55.4827H56.3106V59.2159C56.3106 60.4917 56.3558 60.7557 56.7471 61.5623C57.274 62.6769 58.3126 63.6741 59.5169 64.2168C60.2544 64.5541 60.5706 64.6127 61.8049 64.6127C63.1145 64.6127 63.3252 64.5687 64.2284 64.1434C65.4175 63.5715 66.3358 62.6476 66.8927 61.489C67.254 60.7557 67.2992 60.4624 67.2992 59.2159V57.7933H67.7808H68.2475L68.3077 59.4212C68.3679 61.3277 68.4582 61.4597 69.7377 61.4597C70.7161 61.4597 70.8366 61.2837 70.8366 59.8171C70.8366 58.5119 70.6559 58.1893 69.8732 58.1746L69.3313 58.1599V56.4441C69.3313 54.5669 69.1808 54.0243 68.6238 53.8923C68.543 53.8704 68.4795 53.8446 68.4303 53.8102ZM20.4097 37.819L19.9732 37.3937L19.5366 36.9684L13.9069 36.9831C7.73523 36.9831 7.38901 37.0271 6.36542 37.863C5.67299 38.4203 5.49236 38.7576 3.50539 43.3479C2.46675 45.753 1.86463 47.3369 1.75926 47.9675C1.50337 49.434 1.54852 52.5284 1.81948 52.8657C2.13558 53.2764 2.10548 53.9216 1.74421 54.2736C1.29263 54.7136 1.30768 57.104 1.75926 57.9546C1.92484 58.2919 2.04527 58.7466 2.01516 59.0105C1.99683 59.2011 1.98593 59.3143 2.03489 59.3874C2.10649 59.4943 2.30616 59.5156 2.79791 59.5678C3.24949 59.6265 4.51393 59.6998 5.59773 59.7438L7.56964 59.8318L7.65996 58.8785C7.76533 57.896 8.24702 56.6347 8.81903 55.9161C9.45124 55.1389 10.535 54.4203 11.5887 54.0976C14.9756 53.0857 18.498 55.3882 18.7238 58.7759L18.799 59.8465H19.2657C20.3043 59.8465 20.4097 59.5092 20.4097 56.4148V53.8483L18.799 53.8043C17.6097 53.7721 17.2905 53.7635 17.2048 53.6176C17.1733 53.5641 17.1733 53.4921 17.1733 53.3937C17.1733 53.2953 17.1733 53.2233 17.2048 53.1697C17.2905 53.0239 17.6097 53.0152 18.799 52.983L20.4097 52.9391V45.3864V37.819ZM17.64 58.0426C17.2185 56.6494 15.9541 55.3588 14.6896 55.0215C12.7328 54.5083 11.2275 54.8896 9.93293 56.2094C9.01471 57.1334 8.77387 57.6906 8.6986 59.0839C8.63839 60.2131 8.6685 60.3598 9.10503 61.2397C9.61683 62.2516 10.2791 62.8822 11.378 63.3955C12.3263 63.8501 14.0273 63.8501 15.0208 63.4102C17.1583 62.4569 18.2722 60.1691 17.64 58.0426ZM22.8181 56.7667V55.7401V54.7136H22.1709C21.8096 54.7136 21.4634 54.7576 21.4182 54.8162C21.358 54.8602 21.3129 55.3295 21.3129 55.8428V56.7667H22.0655H22.8181ZM27.7856 57.368C27.7856 55.2415 27.7554 54.8749 27.5447 54.8016C27.2587 54.6989 24.3385 54.6989 24.0675 54.8162C23.917 54.8602 23.8718 55.5202 23.8718 57.368V59.8465H25.8287H27.7856V57.368ZM30.194 56.7667V55.7401V54.7136H29.5317C28.8543 54.7136 28.7188 54.7869 28.779 55.1095C28.7941 55.2122 28.8091 55.6228 28.8242 56.0335L28.8393 56.7667H29.5166H30.194ZM41.0019 57.368C41.032 55.5348 40.9869 54.9335 40.8514 54.8309C40.6406 54.7136 31.7595 54.6842 31.4434 54.8162C31.2929 54.8602 31.2477 55.5202 31.2477 57.368V59.8465L36.1098 59.8171L40.9568 59.7731L41.0019 57.368ZM45.4876 55.2122C45.6833 55.0802 45.8489 54.9189 45.8489 54.8456C45.8489 54.7722 44.9759 54.7136 43.8921 54.7136H41.9352V55.7401V56.7667H43.0641H44.1781L44.6447 56.1068C44.9006 55.7401 45.2769 55.3295 45.4876 55.2122ZM53.3302 57.324C52.8184 56.3121 51.7948 55.3882 50.8464 55.0949C49.3713 54.6402 48.2574 54.6989 47.0682 55.2855C43.7415 56.9427 43.8168 61.7236 47.1736 63.3222C48.2875 63.8501 49.8981 63.8941 50.997 63.4102C51.9905 62.9702 52.9839 62.0316 53.3904 61.1224C53.9172 59.9785 53.8871 58.4386 53.3302 57.324ZM57.9664 55.3148C58.2524 55.0655 58.4933 54.8309 58.4933 54.7869C58.4933 54.7429 57.1235 54.7136 55.4677 54.7136H52.427L53.1044 55.4175C53.4807 55.8135 53.8721 56.2681 53.9624 56.4441C54.128 56.7374 54.2484 56.7667 55.4827 56.7667H56.8074L57.1385 56.2681C57.3041 55.9895 57.6804 55.5642 57.9664 55.3148ZM66.3809 59.3332C66.396 57.5293 65.4778 56.0628 63.8671 55.3148C62.3167 54.5962 60.977 54.6256 59.5319 55.4028C58.0417 56.1801 57.2288 57.544 57.2288 59.2599C57.2288 60.5504 57.56 61.3863 58.418 62.3103C59.7426 63.7475 62.0156 64.1728 63.7919 63.3222C65.4326 62.5302 66.3659 61.1077 66.3809 59.3332ZM68.2776 56.7667V55.7401V54.7136H66.697C65.7487 54.7136 65.1165 54.7722 65.1165 54.8602C65.1165 54.9335 65.1918 55.0069 65.267 55.0069C65.3573 55.0069 65.7337 55.4028 66.125 55.8868C66.8024 56.7521 66.8325 56.7667 67.5551 56.7667H68.2776ZM69.6323 60.5797C69.8882 60.5797 69.9334 60.4771 69.9334 59.8465C69.9334 59.2159 69.8882 59.1132 69.6323 59.1132C69.3764 59.1132 69.3313 59.2159 69.3313 59.8465C69.3313 60.4771 69.3764 60.5797 69.6323 60.5797ZM7.03917 39.271C6.75317 39.403 6.42201 39.667 6.30159 39.8576C5.85 40.5176 3.24587 46.6771 3.24587 47.0584C3.24587 47.5863 3.57703 48.0263 4.11893 48.2463C4.41999 48.3636 5.85 48.4076 9.10141 48.3783L13.6624 48.3343L14.0989 47.8503L14.5355 47.381V43.7733C14.5355 39.9603 14.4602 39.5203 13.7979 39.1684C13.6172 39.0804 12.2775 39.0217 10.5164 39.0217C8.06276 39.0217 7.4456 39.0657 7.03917 39.271ZM13.3915 40.1363C13.6022 40.3269 13.6323 40.8549 13.6323 43.5827C13.6323 45.5332 13.5721 46.9264 13.4818 47.1024C13.3312 47.3663 13.1205 47.381 8.83046 47.381C5.09736 47.381 4.31462 47.3517 4.25441 47.1757C4.20925 47.0584 4.82641 45.4745 5.60916 43.6413C6.76822 41.0016 7.14454 40.2829 7.4456 40.1216C8.04771 39.799 13.0753 39.8137 13.3915 40.1363ZM3.79321 53.6121C3.74805 53.4948 3.74805 53.2896 3.79321 53.1723C3.86847 52.9816 4.28995 52.9523 6.62314 52.9816L9.34769 53.0256V53.3922V53.7588L6.62314 53.8027C4.28995 53.8321 3.86847 53.8027 3.79321 53.6121ZM11.9072 56.7221C10.8535 57.2647 10.3266 58.1153 10.3266 59.2592C10.3266 61.5323 12.6598 62.8375 14.722 61.723C15.55 61.2683 16.1972 60.2271 16.1972 59.3472C16.1972 58.3499 15.4295 57.1474 14.5264 56.6781C13.9694 56.3994 12.4792 56.4288 11.9072 56.7221ZM14.6468 57.998C15.0683 58.4526 15.1435 58.6286 15.1435 59.2738C15.1435 59.9485 15.0833 60.0804 14.5565 60.5937C14.0748 61.0777 13.8791 61.1657 13.3522 61.1657C12.5394 61.1657 11.8921 60.843 11.5309 60.2418C10.3266 58.3206 13.0963 56.3408 14.6468 57.998ZM46.5133 60.4766C45.8058 58.834 46.7993 56.8542 48.5003 56.5022C49.1024 56.3849 50.1561 56.5022 50.6528 56.7515C51.3904 57.1475 52.1732 58.4381 52.1732 59.2593C52.1732 60.1539 51.3754 61.4005 50.5324 61.8258C49.0723 62.559 47.1154 61.8991 46.5133 60.4766ZM51.1195 59.3913C51.1195 58.57 50.8786 58.1154 50.2314 57.6901C49.3884 57.1328 48.1089 57.3528 47.5821 58.1447C46.6638 59.494 47.6122 61.1658 49.2981 61.1658C49.855 61.1658 50.0357 61.0778 50.5324 60.5939C51.0442 60.1099 51.1195 59.9339 51.1195 59.3913ZM60.4799 56.7223C59.3058 57.2796 58.5983 58.7608 58.9445 59.978C59.1252 60.6526 59.8326 61.5179 60.4347 61.8259C62.6174 62.9258 65.1613 61.0193 64.6495 58.6875C64.4689 57.8662 63.7614 56.9569 63.069 56.6783C62.3916 56.3997 61.0971 56.429 60.4799 56.7223ZM62.7228 57.5729C63.6862 58.0715 64.0324 59.3327 63.4604 60.242C63.0991 60.8286 62.4518 61.1659 61.654 61.1659C61.1723 61.1659 60.9315 61.0633 60.51 60.682C58.8241 59.1861 60.6906 56.561 62.7228 57.5729Z" fill="#84CC16"/>
<path fillRule="evenodd" clipRule="evenodd" d="M35.4535 1.8105C35.7526 1.93407 38.4587 3.5477 41.462 5.41105C44.4775 7.28309 47.5542 9.27194 48.3089 9.8316C49.6244 10.8118 49.7035 10.905 50.1362 11.8165C50.6882 12.941 50.7995 13.9315 50.5448 15.4061C50.399 16.2668 50.4259 16.5775 50.6485 16.9012C50.8559 17.1957 55.932 20.8922 68.5863 29.9709C84.707 41.5368 86.2617 42.6704 86.3824 43.0302C86.6639 43.8696 86.5096 44.1232 82.7607 49.0829L79.2707 53.7002L79.1926 54.7187C79.1163 55.6111 79.0163 55.8671 78.4489 56.7167C77.8368 57.6254 77.7712 57.6875 77.266 57.7622C76.6346 57.8556 76.3259 57.6705 75.913 56.9554C75.6775 56.5497 75.1404 56.0732 73.3248 54.716L71.0211 52.9904L70.9392 53.0988L70.2119 52.5771L70.276 52.4923L53.8522 40.709L37.4284 28.9257L37.3643 29.0105L36.4036 28.3212C36.3482 28.18 36.2483 28.006 36.118 27.8399C35.6159 27.2429 35.3988 26.5408 35.4949 25.8448C35.572 25.3719 36.0087 24.7199 39.9054 19.4656L44.2274 13.6239L44.1908 12.9055C44.1844 12.5184 44.0286 11.9331 43.8601 11.6119C43.5901 11.054 43.3324 10.8508 38.3105 7.1568C33.2643 3.44538 33.043 3.26834 33.0339 2.93403C33.035 2.04233 34.3723 1.43548 35.4535 1.8105ZM49.5747 15.3293C49.7879 13.9343 49.6485 12.8326 49.1591 11.9714C48.5937 11.0377 47.9028 10.542 41.4024 6.47924C35.2955 2.66248 34.7087 2.3507 34.2189 2.80073C34.0398 2.96358 34.3945 3.23627 39.2524 6.77624C44.074 10.2901 44.5014 10.615 44.7286 11.1058C45.1639 11.9645 45.2733 13.0811 45.0279 13.925C44.803 14.6925 44.5652 15.0319 40.6646 20.1924C36.7105 25.4237 36.5441 25.6686 36.4977 26.1999C36.4703 26.5081 36.4487 26.7841 36.4519 26.8046C36.4583 26.8456 45.3647 33.2901 56.2346 41.1433L56.2954 41.1873C75.9229 55.3598 76.0081 55.4213 76.5232 56.1729L77.0266 56.9166L77.6157 56.1372C78.1245 55.4641 78.1978 55.2435 78.2339 54.5773C78.2542 54.1548 78.3574 53.5731 78.4632 53.2847C78.5779 52.9846 80.0646 50.9187 82.073 48.2616C85.0453 44.3292 85.4762 43.7096 85.4226 43.4343C85.3778 43.1473 83.6018 41.8366 67.6628 30.4012L49.9421 17.6874L49.6747 17.0767C49.466 16.6355 49.4378 16.1782 49.5747 15.3293ZM42.2834 21.7557C44.0686 19.3939 45.6313 17.4007 45.739 17.3323C45.9457 17.2073 46.3061 17.4477 48.9306 19.3671L51.8856 21.5418L48.4944 26.1025C45.832 29.6744 45.0369 30.6521 44.8653 30.6565C44.7448 30.6428 43.4 29.7509 41.8849 28.6639C39.5456 26.9855 39.1271 26.6488 39.0945 26.3705C39.0408 26.0952 39.4539 25.4992 42.2834 21.7557ZM44.8369 29.5069L47.7825 25.6099L50.728 21.713L48.425 20.0607L46.122 18.4084L43.1765 22.3054L40.231 26.2024L42.534 27.8546L44.8369 29.5069ZM53.5897 22.8004C53.5144 22.801 51.9161 24.8415 50.0327 27.3332C47.0068 31.3365 46.6383 31.8734 46.7634 32.0542C46.8457 32.1679 48.1159 33.1338 49.6067 34.2035C51.9097 35.8557 52.3639 36.1452 52.6465 36.0929C52.9322 36.0611 53.3849 35.5117 56.1608 31.8391C57.9103 29.5246 59.4002 27.4791 59.4799 27.2995L59.6035 26.9875L56.6703 24.8831C55.0461 23.7178 53.6618 22.7793 53.5897 22.8004ZM55.4195 31.0887L52.4739 34.9856L50.171 33.3334L47.868 31.6811L50.8135 27.7841L53.759 23.8872L56.062 25.5394L58.365 27.1917L55.4195 31.0887ZM57.7233 32.7525C59.5799 30.2962 61.1605 28.2794 61.2446 28.2669C61.3199 28.2663 62.7074 29.2253 64.3348 30.4111L67.2898 32.5858L63.9432 37.0875C61.5365 40.2964 60.5125 41.6016 60.3352 41.6383C60.128 41.69 59.5073 41.2993 57.3497 39.7514C55.7134 38.5774 54.5734 37.6866 54.4815 37.5114C54.3526 37.2368 54.4743 37.051 57.7233 32.7525ZM60.2412 40.5509L63.1446 36.6602L66.027 32.7726L63.7871 31.1109L61.5263 29.4525L58.5807 33.3494L55.6352 37.2464L57.9382 38.8986L60.2412 40.5509ZM68.7091 34.0101C68.4636 34.1618 67.2433 35.7268 65.1789 38.5075C62.4929 42.1353 62.0351 42.7904 62.1213 42.9979C62.2323 43.2961 67.5809 47.1516 67.8972 47.1783C68.0688 47.1739 68.8638 46.1962 71.5263 42.6243L74.9174 38.0636L71.9988 35.915L69.0834 33.7869L68.7091 34.0101ZM70.8143 42.1317L67.8688 46.0287L65.5658 44.3764L63.2629 42.7242L66.2084 38.8272L69.1539 34.9302L71.4569 36.5825L73.7599 38.2348L70.8143 42.1317ZM73.1192 43.7847C74.9669 41.3402 76.5474 39.3234 76.6227 39.3227C76.6947 39.3016 78.0791 40.2401 79.7033 41.4054C82.2608 43.2403 82.6308 43.5422 82.5664 43.751C82.5225 43.8834 81.0414 45.917 79.2563 48.2788C76.4268 52.0222 75.9652 52.5835 75.6794 52.6152C75.3969 52.6675 74.9427 52.3781 72.5912 50.691C70.6155 49.2735 69.8302 48.6555 69.8015 48.4709C69.7727 48.2864 70.6289 47.0794 73.1192 43.7847ZM75.5069 51.508L78.4524 47.611L81.398 43.714L79.095 42.0618L76.792 40.4095L73.8465 44.3065L70.901 48.2034L73.2039 49.8557L75.5069 51.508Z" fill="#9EA0A5"/>
</svg>
