<?xml version="1.0" encoding="UTF-8" standalone="no"?>
<!-- Created with Inkscape (http://www.inkscape.org/) -->

<svg
   width="105.58658mm"
   height="68.370636mm"
   viewBox="0 0 105.58658 68.370636"
   version="1.1"
   id="svg1"
   xml:space="preserve"
   xmlns="http://www.w3.org/2000/svg"
   xmlns:svg="http://www.w3.org/2000/svg"><defs
     id="defs1"><filter
       style="color-interpolation-filters:sRGB"
       id="filter593"
       x="0"
       y="0"
       width="1"
       height="1"><feMorphology
         radius="4.3"
         in="SourceAlpha"
         result="result91"
         id="feMorphology592" /><feComposite
         operator="out"
         in="SourceGraphic"
         in2="result91"
         id="feComposite592" /><feGaussianBlur
         result="result0"
         stdDeviation="1.2"
         id="feGaussianBlur592" /><feDiffuseLighting
         diffuseConstant="1"
         id="feDiffuseLighting592"><feDistantLight
           elevation="66"
           azimuth="225"
           id="feDistantLight592" /></feDiffuseLighting><feBlend
         mode="multiply"
         in2="SourceGraphic"
         id="feBlend592" /><feComposite
         operator="in"
         in2="SourceAlpha"
         id="feComposite593" /></filter></defs><g
     id="layer1"
     transform="translate(-621.4582,-699.01771)"><path
       id="path592"
       style="fill:#8d9391;stroke-width:1.85365;stroke-linecap:round;stroke-linejoin:round;filter:url(#filter593)"
       d="m 606.7825,653.49718 0.26458,0.66146 0.39687,0.79375 v 0.39687 l 0.52917,0.66146 0.13229,0.79375 0.26459,0.92604 0.39687,0.92605 0.13229,0.79375 0.26459,0.66145 v 0.79375 l 0.13229,0.52917 0.13229,0.26458 0.26458,0.66146 v 0.92604 0.66146 0.52917 0.66146 l 0.39688,0.39687 0.26458,0.39688 0.13229,0.39687 v 0.52917 0.66146 0.52916 l 0.13229,0.66146 0.26459,0.39688 v 0.92604 l 0.13229,0.79375 0.13229,1.32292 0.26458,1.19062 v 1.5875 1.71979 l 0.26459,1.32292 0.13229,1.19062 0.26458,0.92605 0.26459,1.32291 0.26458,1.19063 0.39687,0.79375 v 1.32291 l 0.39688,1.45521 0.13229,1.19063 0.52917,1.19062 0.39687,1.32292 0.13229,1.32292 0.39688,0.92604 v 1.19062 l -0.39688,0.92604 -0.79375,0.1323 -0.92604,-0.1323 -0.79375,-0.66145 -0.66146,-0.52917 -0.66145,-0.66146 -0.79375,-0.39687 -0.79375,-0.66146 -0.66146,-0.66146 -0.79375,-0.52917 h -0.92604 l -0.66146,0.26459 -1.19063,-0.26459 -0.92604,-0.39687 -1.19062,-0.39688 -1.19063,-0.39687 -0.92604,-0.39688 -1.05833,-0.39687 -1.05834,-0.52917 -1.19062,-0.52917 -0.79375,-0.26458 -1.05834,-0.26458 -1.19062,-0.13229 -0.79375,-0.26459 h -1.19063 l -0.92604,0.26459 -0.13229,0.92604 -0.26458,0.79375 -0.13229,0.79375 0.39687,0.79375 0.79375,0.66146 1.05833,0.39687 1.19063,0.26458 1.19062,0.52917 1.05834,0.79375 0.79375,0.66146 0.66146,0.66146 0.52916,0.66146 0.26459,0.66145 0.52916,0.66146 0.39688,0.66146 0.39687,0.66146 0.92604,0.66146 1.05834,0.52916 1.05833,0.39688 0.92604,0.52917 1.05834,0.52916 1.32291,0.39688 1.19063,0.26458 1.05833,0.13229 1.19063,0.52917 0.79375,0.13229 h 1.19062 1.05833 l 0.52917,0.52917 h 0.92604 l 1.05834,0.66146 0.66145,0.92604 0.52917,0.92604 0.13229,1.05833 v 0.79375 l -0.39687,0.66146 -0.52917,0.39688 -0.66146,0.52916 -0.26458,0.26459 -0.52917,0.39687 -0.52916,0.39688 -0.39688,0.52916 -0.52917,0.52917 -0.52916,0.26458 -0.39688,0.39688 -0.79375,0.66146 -0.52916,0.52916 -0.52917,0.79375 -0.66146,0.66146 -0.79375,0.66146 -0.39687,0.39687 -0.66146,0.39688 h -0.66146 l -0.52917,-0.26458 -0.92604,-0.39688 -1.32292,-0.66146 -1.05833,-0.79375 -0.39687,-0.39687 -0.66146,-0.52917 -0.39688,-0.79375 -0.66146,-0.92604 -0.79375,-0.39688 -1.19062,-0.26458 -1.71979,-0.79375 -0.52917,-0.66146 -0.39687,-0.92604 -0.39688,-0.66146 -0.52917,-0.79375 -0.66145,-0.39687 -0.79375,-0.66146 -0.79375,-0.66146 -0.79375,-0.66146 -0.39688,-0.52916 -0.66146,-0.66146 -1.05833,-0.66146 -0.66146,-0.66146 -0.79375,-0.66146 -1.05833,-0.52916 -1.45521,-0.92605 -0.79375,-0.52916 -0.92604,-0.39688 -0.79375,-0.52916 -0.79375,-0.39688 -0.92604,-0.39687 -1.05834,-0.52917 -0.79375,-0.39688 -0.79375,-0.26458 -0.79375,-0.52917 -0.79375,-0.52916 -0.92604,-0.66146 -0.52917,-0.26458 -0.66145,-0.52917 -0.79375,-0.52917 -0.52917,-0.52916 -0.26458,-0.1323 -0.79375,-0.52916 -0.92605,-0.52917 -1.05833,-0.52917 -1.05833,-0.52916 -0.79375,-0.66146 -0.79375,-0.39688 -0.79375,-0.26458 -0.92604,-0.52917 -0.66146,-0.52916 -0.79375,-0.79375 -0.79375,-0.52917 -0.52917,-0.66146 -0.26458,-0.39687 -0.52917,-0.26459 -0.79375,-0.52916 -0.92604,-0.92604 -0.79375,-0.66146 -1.05833,-0.79375 -0.52917,-0.39688 -0.39688,-0.39687 -1.05833,-0.52917 -0.66146,-0.52917 -0.92604,-0.52916 -0.39687,-0.26459 -0.52917,-0.26458 -0.39688,-0.26458 -0.79375,-0.39688 -0.66145,-0.26458 -0.66146,-0.26458 -0.52917,-0.1323 -0.79375,-0.39687 -0.66146,-0.39688 v 6.61459 l 0.39688,0.39687 0.79375,0.39688 0.66146,0.52916 0.52916,0.1323 0.66146,0.39687 0.52917,0.39688 0.52916,0.52916 0.52917,0.39688 0.52917,0.39687 0.66146,0.39688 0.52916,0.52916 0.79375,0.52917 0.52917,0.26458 0.66146,0.39688 0.66146,0.39687 0.79375,0.39688 1.19062,0.79375 0.79375,0.66146 0.79375,0.66146 0.52917,0.66145 0.52916,0.52917 0.26459,0.52917 0.79375,0.79375 0.52916,0.39687 0.92605,0.13229 0.92604,0.26459 0.79375,0.26458 0.79375,0.39688 1.05833,0.79375 0.79375,0.66145 0.66146,0.66146 0.79375,0.66146 0.79375,0.79375 0.52917,0.52917 0.92604,0.52916 h 0.52916 l 0.66146,0.26459 1.05834,0.26458 1.32291,0.39688 1.05834,0.66145 1.4552,0.66146 1.19063,0.79375 0.66146,0.39688 0.92604,0.66146 0.66146,0.52916 0.52916,0.39688 0.79375,0.66146 0.79375,0.92604 0.66146,0.66146 0.66146,0.79375 0.52917,0.66145 0.52916,0.79375 0.26459,0.79375 0.52916,0.66146 0.39688,0.66146 0.52917,0.52917 0.66145,0.39687 0.66146,0.39688 1.05834,0.52916 0.79375,0.52917 0.79375,0.52917 0.79375,0.66146 0.79375,0.79375 0.66145,0.66145 0.66146,0.52917 0.79375,0.92604 0.79375,0.79375 0.52917,0.79375 0.39687,0.79375 0.39688,1.05834 0.39687,0.79375 0.1323,0.79375 -0.39688,0.79375 -0.39687,0.92604 -0.66146,1.05833 -0.79375,1.05833 -0.79375,0.92605 -0.66146,0.79375 -0.79375,0.92604 -0.66146,1.32291 -0.92604,1.05834 -0.79375,1.05833 -0.92604,1.45521 -0.52917,0.92604 -0.79375,1.05833 -0.66146,1.05834 -0.92604,1.5875 -0.66146,1.45521 -0.79375,1.4552 -0.66146,1.32292 -0.52916,1.32292 v 1.32291 l 0.26458,0.66146 0.52917,0.92604 1.5875,0.79375 h 1.32291 l 0.79375,-0.26458 0.26459,-0.52917 0.52916,-0.66145 0.79375,-0.92605 0.66146,-1.05833 0.66146,-0.79375 H 595.67 l 0.79375,0.79375 0.66145,0.39688 0.79375,0.26458 0.66146,0.39687 0.79375,0.66146 0.52917,0.92604 0.52917,0.92605 0.79375,0.79375 0.26458,0.66145 0.39687,0.79375 0.92605,0.52917 0.92604,1.19063 0.79375,0.79375 0.52916,0.26458 1.05834,-0.13229 0.79375,-0.13229 0.92604,-0.26459 1.05833,0.39688 0.20516,0.0253 -0.0729,-0.28991 0.39688,-0.52916 0.52917,-0.83406 0.39687,-0.75344 0.52917,-0.79375 0.26458,-0.66146 0.39688,-0.66146 0.52916,-0.79375 0.39688,-0.66146 0.30282,0.0755 -0.17053,-0.34003 -0.13229,-0.66146 -0.39688,-0.92604 -0.66146,-0.79375 -0.66145,-0.79375 -0.79375,-1.05833 -0.66146,-0.52917 h -1.05834 l -0.39687,-0.52917 -0.39688,-0.92604 -0.39687,-0.52917 -0.79375,-0.13229 -0.66146,-0.66146 -1.05833,-0.52916 -1.19063,-0.66146 -0.92604,-0.92604 -0.52917,-1.05834 -0.13229,-0.79375 v -0.79375 l 0.66146,-1.05833 0.66146,-1.19062 1.71979,-2.38125 0.92604,-1.45521 0.66146,-0.92604 h 1.19063 l 1.32291,0.26458 h 1.05834 l 1.32291,0.13229 0.79375,0.92604 0.26459,1.05834 0.26458,0.79375 0.79375,0.39687 0.92604,0.92604 0.79375,0.79375 1.32292,0.92604 1.19062,0.52917 1.71979,0.52917 1.65572,0.11007 1.38699,-3.15278 2.38125,-2.11667 0.68058,-0.68058 -0.0191,-0.11317 0.13229,-0.92604 -0.79375,-0.79375 -0.92604,-0.79375 -1.32292,-0.92604 -0.92604,-0.79375 -0.66146,-0.79375 -0.92604,-0.26458 -0.92604,-0.39688 -0.92604,-0.52917 -0.79375,-0.52916 -0.79375,-0.79375 -0.66146,-0.79375 -0.52917,-0.66146 -0.79375,-1.19063 -0.26458,-0.66145 v -0.66146 l -0.13229,-0.52917 0.52917,-0.66146 0.66145,-0.52916 0.92605,-0.92605 0.79375,-0.66145 0.92604,-0.66146 0.26458,-0.66146 0.39688,-0.39688 1.32291,-0.79375 0.92604,-0.79375 0.66146,-0.92604 1.19063,-0.92604 0.92604,-0.79375 1.19062,-1.05833 0.92605,-1.05834 0.66145,-0.66145 1.45521,-0.66146 1.45521,-1.19063 1.19063,-1.05833 0.92604,-0.92604 0.79375,-0.66146 1.5875,-0.66146 1.5875,-0.52917 1.71979,-1.05833 1.32292,-1.45521 h 1.4552 l 1.05834,-0.52916 1.32291,-0.79375 h 1.85209 l 1.45521,-0.52917 1.19062,-0.52917 2.51354,-0.39687 h 2.24896 l 2.24896,0.39687 8.99583,3.83646 h 1.19063 l 1.19062,1.05833 0.79375,1.5875 -0.79375,1.19063 -1.19062,0.66146 -1.19063,0.92604 -1.45521,1.45521 -1.32291,0.52916 -0.66146,1.32292 -0.79375,1.5875 -1.19063,0.79375 -0.79375,0.92604 -1.19062,1.5875 -0.92604,1.05834 -1.45521,1.32291 -1.19063,1.45521 -1.19062,1.5875 -1.32292,1.05833 -1.19062,1.32292 -1.32292,2.11667 -1.19062,1.71979 -1.45521,2.11667 -1.19063,1.5875 -1.45521,2.11666 -1.5875,2.11667 -1.4552,1.85208 -0.79375,0.66146 -0.52917,0.79375 -0.52917,0.79375 h -0.52916 l -1.5875,-1.5875 h -0.66146 l -8.06979,-5.68854 -0.37776,0.37775 0.11317,0.68058 0.52917,1.05834 -0.26458,1.05833 -0.66146,1.05833 -0.79375,0.92604 -0.52917,0.1323 -0.39687,0.66145 -1.19063,0.39688 h -0.92604 l -0.32866,-0.0222 -0.0682,0.15451 1.45521,0.79375 2.38125,1.45521 1.71979,1.71979 1.85209,2.11667 0.66146,2.11666 v 2.91042 l -0.66146,3.30729 -1.05834,1.85209 -1.4552,1.98437 -1.05834,0.66146 -1.71979,-0.66146 -1.32292,-0.92604 h -0.79375 l -1.71979,-1.05833 -2.11666,-1.32292 -1.98438,-1.45521 -2.11667,-1.32292 -0.22634,-0.0568 0.094,0.18914 0.26459,0.52916 0.26458,0.92604 -0.13229,1.19063 -0.52917,0.92604 -0.66146,0.79375 -0.92604,0.66146 -1.19062,0.79375 -0.85318,-0.10697 0.0594,0.23926 0.66145,0.39688 0.92605,0.79375 1.32291,1.05833 0.79375,0.39687 0.79375,0.66146 0.92604,0.39688 0.79375,0.39687 0.92605,0.52917 0.52916,0.52917 0.39688,0.52916 0.26458,0.52917 0.26458,0.79375 0.26459,0.52917 0.26458,0.52916 0.52917,0.52917 0.13229,0.66146 v 0.66146 l -0.26458,0.79375 -0.1323,0.79375 -0.26458,0.39687 -0.39687,0.66146 -0.52917,0.66146 -0.39688,0.66146 -0.52916,0.66145 -0.39688,0.39688 -0.26458,0.52917 -0.39688,0.52916 -0.39687,0.79375 -0.39688,0.92604 -0.39687,1.05834 -0.26458,0.92604 -0.26459,0.92604 -0.39687,0.66146 -0.66146,0.92604 -0.26458,0.92604 -0.26459,0.92604 -0.26458,0.79375 -0.26458,0.92605 -0.26459,0.79375 -0.26458,0.79375 -0.26458,0.79375 -0.1323,0.52916 -0.26458,0.79375 -0.26458,0.52917 -0.26459,0.66146 -0.13229,0.79375 v 0.66146 0.66145 0.52917 l 0.13229,0.66146 -0.13229,0.39687 v 0.39688 0.52917 0.79375 0.92604 l 0.13229,0.52916 0.52917,0.79375 0.39688,0.79375 0.39687,0.66146 0.26458,0.52917 v 0.92604 l 0.1323,0.92604 0.52916,0.52917 0.52917,0.52917 0.79375,0.79375 0.52917,0.79375 0.66145,0.92604 0.66146,0.52916 0.79375,0.79375 0.79375,0.79375 0.66146,0.79375 0.52917,0.66146 0.66146,0.79375 0.39687,0.66146 0.79375,0.39688 1.05833,0.26458 0.92605,0.52917 0.92604,0.39687 1.05833,0.26458 0.92604,0.26459 1.05834,0.39687 0.92604,0.52917 0.79375,0.13229 1.05833,0.13229 h 0.79375 0.79375 1.19063 0.92604 l 0.66146,0.26459 0.52916,0.39687 0.52917,0.13229 0.39687,-0.13229 0.52917,-0.26458 0.66146,-0.26459 1.19062,-0.13229 h 0.79375 0.92605 1.05833 l 0.66146,-0.26458 0.79375,-0.39688 0.79375,-0.39687 1.19062,-0.39688 0.66146,-0.39687 0.92604,-0.52917 0.92604,-0.52916 0.92605,-0.26459 0.79375,-0.39687 0.52916,-0.26459 0.79375,-0.13229 0.79375,-0.26458 0.79375,-0.26458 0.66146,-0.52917 0.92604,-0.79375 1.19063,-0.79375 1.19062,-0.66146 1.19063,-0.79375 1.32291,-0.52917 1.05834,-0.39687 0.92604,-0.39688 0.92604,-0.66145 0.92604,-0.39688 1.32292,-0.66146 1.05833,-0.52916 0.92604,-0.66146 0.79375,-0.66146 0.79375,-0.39688 1.19063,-0.39687 1.05833,-0.26458 0.92604,-0.52917 0.66146,-0.52917 0.92604,-0.39687 0.79375,-0.26459 0.79375,-0.52916 0.79375,-0.39688 0.66146,-0.39687 1.19063,-0.39688 1.05833,-0.39687 0.79375,-0.26459 0.52917,-0.52916 0.79375,-0.26459 1.05833,-0.13229 0.92604,-0.39687 1.32292,-0.39688 0.92604,-0.52916 0.79375,-0.26459 0.92604,-0.52916 0.79375,-0.39688 0.79375,-0.52917 0.79375,-0.52916 0.92604,-0.39688 0.39688,-0.13229 h 0.39687 l 0.26459,0.26458 0.52916,-0.13229 0.52917,-0.39687 0.66146,-0.52917 0.66146,-0.52917 0.92604,-0.52916 1.05833,-0.52917 1.19063,-0.26458 1.19062,-0.92604 1.05834,-0.92605 1.05833,-0.52916 0.79375,0.13229 0.79375,-0.26458 1.19062,-0.39688 0.66146,-0.66146 0.92604,-0.66146 1.05834,-0.39687 h 0.66146 l 0.79375,0.39687 0.66145,0.39688 0.92605,0.52917 0.52916,0.52916 0.52917,0.39688 h 0.92604 l 0.92604,-0.39688 0.52917,-0.39687 0.66146,-0.39688 h 0.79375 0.79375 l 0.66146,0.26459 0.66145,0.13229 0.79375,-0.13229 h 0.52917 l 0.66146,0.39687 0.66146,0.26458 h 0.66146 l 0.79375,0.26459 0.66145,0.13229 0.66146,-0.13229 0.92604,0.13229 0.66146,0.26458 0.66146,0.52917 0.66146,0.13229 1.05833,0.13229 0.66146,0.52917 0.79375,0.79375 0.79375,0.66146 1.05833,0.66146 1.32292,0.52916 h 1.05833 1.05834 1.5875 l 1.19062,0.26459 0.79375,0.13229 1.05834,0.39687 0.66145,0.39688 0.92605,0.26458 0.92604,0.39688 0.66146,0.52916 0.66145,0.39688 1.05834,0.26458 0.92604,0.26458 0.92604,0.26459 0.92604,0.52916 0.66146,0.39688 0.79375,0.52917 0.92604,0.39687 0.66146,0.52917 0.79375,0.52916 0.52917,0.52917 0.39687,0.79375 0.26459,0.79375 0.26458,0.66146 v 0.79375 0.66146 l 0.13229,0.79375 -0.13229,0.79375 -0.26458,0.66146 -0.52917,0.79375 v 0.66145 l -0.13229,0.52917 -0.39688,0.52917 -0.52916,0.66146 -0.52917,0.52916 -0.26458,0.52917 -0.39688,0.52917 -0.39687,0.66145 -0.39688,0.39688 -0.39687,0.26458 -0.39688,0.39688 -0.39687,0.39687 -0.52917,0.39688 -0.92604,0.66146 -0.66146,0.26458 -0.66146,0.39687 -0.92604,0.1323 -0.92604,0.39687 -1.19063,0.39688 -0.66146,0.26458 -1.05833,0.52917 -0.92604,0.26458 -1.19063,0.26458 -1.32291,0.52917 -0.79375,0.39687 -0.79375,0.26459 -0.66146,0.39687 -0.66146,0.26459 -0.66146,0.26458 -0.66146,0.39687 -0.66145,0.39688 h -0.57258 l -0.75034,0.13229 -0.52917,0.39688 -0.66146,0.66145 -0.66145,0.52917 -0.66146,0.39688 -0.92604,0.39687 h 17.85937 l 0.66146,-0.39687 0.92604,-0.26459 1.05833,-0.39687 1.19063,-0.26459 1.32292,-0.66145 1.19062,-0.52917 0.92604,-0.79375 0.66146,-0.52917 0.66146,-0.66146 0.66146,-0.92604 0.66146,-0.79375 0.66145,-0.92604 0.66146,-0.92604 0.92604,-0.92604 0.79375,-0.92604 0.66146,-0.52917 0.52917,-0.66146 0.26458,-0.92604 0.13229,-0.66146 0.26459,-0.66146 0.39687,-0.79375 0.39688,-0.52916 0.52916,-0.66146 0.79375,-0.52917 0.92605,-0.39687 0.79375,-0.39688 0.79375,-0.26458 0.79375,-0.13229 h 0.66145 0.92605 1.19062 0.66146 l 0.92604,-0.1323 1.19063,0.1323 0.66145,0.39687 0.66146,0.39688 0.52917,0.26458 0.52917,-0.13229 0.26458,-0.26459 h 0.66146 l 0.66146,0.1323 0.79375,0.66145 1.19062,0.39688 0.79375,0.39687 0.66146,0.26459 0.92604,0.13229 0.92604,0.26458 1.05834,0.26459 0.52916,0.26458 0.92604,0.39687 0.79375,0.26459 0.66146,0.13229 0.52917,0.26458 0.79375,0.39688 1.19062,0.52916 0.66146,0.39688 0.52917,0.13229 0.79375,0.52917 0.66146,0.13229 h 1.45521 l 0.92604,0.13229 0.79375,0.26458 0.52916,0.26459 0.92605,0.26458 0.66145,0.52917 1.05834,0.39687 0.79375,0.39688 h 0.92604 0.92604 0.66146 l 0.39687,0.13229 0.66146,0.39687 1.32292,0.39688 1.32292,0.52917 0.79375,0.39687 h 0.26458 l 0.39687,0.26458 0.39688,0.1323 v 5.95312 h 5.2e-4 V 653.36489 h -5.2e-4 v 71.70208 l -0.52917,0.26459 -0.52916,0.39687 -0.92605,0.52917 -0.79375,0.66146 -0.66145,0.13229 -0.92605,0.13229 -0.66145,0.39687 -1.19063,0.1323 -0.66146,0.79375 -0.39687,0.39687 -0.52917,0.52917 -0.79375,0.39687 -0.79375,0.39688 -0.79375,0.39687 -1.19062,0.39688 -0.79375,0.39687 -0.79375,0.39688 -0.92605,0.52916 -0.66145,0.39688 -0.66146,0.26458 -0.52917,0.26459 -0.79375,0.26458 -1.05833,0.52917 -0.52917,0.26458 -0.52917,0.26458 -0.66145,0.39688 -0.66146,0.52916 -0.52917,0.26459 -0.52917,0.26458 -0.52916,0.13229 -0.52917,0.26459 -0.66146,0.39687 -0.66146,0.26458 -0.52916,0.26459 -0.66146,0.13229 -0.39688,0.13229 -0.66145,0.26458 -0.52917,0.1323 -0.52917,0.26458 -0.39687,0.26458 -0.66146,0.13229 -0.66146,0.26459 -0.52917,0.26458 -0.66145,0.26458 -0.66146,0.39688 h -0.79375 l -0.52917,0.26458 -0.79375,0.26459 -0.66146,0.13229 -0.52916,0.13229 h -0.66146 l -0.52917,0.26458 -0.66146,-0.13229 -0.52916,-0.39687 -0.1323,-0.92605 0.1323,-0.66145 v -0.79375 l 0.26458,-0.52917 0.13229,-0.79375 0.13229,-0.52917 0.13229,-1.05833 v -0.79375 l 0.1323,-0.79375 v -1.32292 -1.45521 l 0.13229,-1.5875 v -1.19062 -1.05833 l -0.13229,-1.45521 0.13229,-1.45521 v -0.52917 l 0.39687,-1.05833 0.13229,-1.5875 v -1.19063 l -0.13229,-1.19062 v -1.05833 l 0.13229,-0.79375 0.26459,-0.79375 0.39687,-1.19063 v -1.45521 -1.5875 -1.5875 -1.05833 l 0.13229,-1.05833 v -1.5875 l 0.26459,-1.5875 0.13229,-1.32292 v -1.5875 l 0.26458,-1.19063 0.39688,-0.92604 0.26458,-1.32291 0.26458,-1.19063 0.26459,-1.05833 0.26458,-1.05834 0.13229,-1.4552 v -1.5875 l 0.13229,-1.45521 0.26459,-0.92604 0.13229,-1.45521 -0.26458,-0.92604 v -1.05834 l -0.1323,-0.52916 v -0.79375 l 0.1323,-0.92605 0.26458,-1.05833 0.79375,-1.05833 v -1.45521 -1.5875 -0.52917 -1.05833 l 0.39687,-1.05833 0.1323,-2.11667 0.39687,-2.24896 0.52917,-1.05833 v -1.5875 -1.85209 -1.19062 -1.19063 l 0.66146,-2.24895 0.39687,-0.92605 0.39688,-1.19062 0.39687,-1.05833 0.39688,-1.32292 0.26458,-0.79375 0.39687,-0.92604 v -1.19063 l 0.39688,-1.5875 v -0.26458 h -24.34167 l -0.39687,0.26458 -0.79375,0.39688 -0.92604,0.39687 -0.79375,0.39688 -0.92605,0.66146 -0.79375,0.92604 -0.52916,0.52916 -0.79375,0.52917 -0.66146,0.52917 -0.79375,0.39687 -0.66146,0.39688 -0.92604,0.26458 -0.66146,0.52917 -0.79375,0.39687 -0.66146,0.26459 -0.92604,0.26458 -0.92604,0.39687 -0.79375,0.39688 -0.66146,0.26458 -1.05833,0.39688 -0.66146,0.39687 -0.66146,0.26459 -0.92604,0.39687 -0.66146,0.39688 h -0.66146 l -0.66146,0.26458 -0.66145,0.26458 h -0.66146 l -0.66146,0.26459 -0.79375,0.26458 -0.79375,0.13229 -0.66146,0.13229 -0.52917,0.52917 -0.39687,0.26458 -0.52917,0.39688 -0.52916,0.52916 -0.52917,0.52917 -0.52917,0.52917 -0.66146,0.52916 -0.52916,0.52917 -0.52917,0.52917 -0.66146,0.66146 -0.79375,0.66145 -0.79375,0.66146 -0.52916,0.39688 -0.79375,0.26458 -0.79375,0.39688 -0.66146,0.52916 -0.39688,0.39688 -0.66146,0.39687 -0.79375,0.26459 -0.92604,0.39687 -0.66146,0.39688 -0.66145,0.39687 -0.66146,0.39688 -0.92604,0.13229 -0.79375,0.66146 -0.79375,0.52916 -0.79375,0.39688 -0.52917,0.13229 -0.52917,0.26458 -0.79375,0.39688 -0.92604,0.26458 -0.79375,0.52917 -0.79375,0.66146 -0.66146,0.52916 -0.79375,0.26459 -0.66146,0.26458 -0.66145,0.52917 -0.79375,0.52916 -0.52917,0.26459 -0.66146,0.66145 -0.92604,0.39688 -0.66146,0.39687 -0.79375,0.52917 -0.79375,0.66146 -0.66146,0.52917 -0.66146,0.52916 -0.39687,0.39688 -0.92604,0.52916 -0.66146,0.39688 -0.66146,0.52917 -0.79375,0.26458 -0.66146,0.52917 -0.79375,0.39687 -0.92604,0.79375 -0.92604,0.39688 -0.66146,0.52916 -0.92604,0.52917 -0.52917,0.39687 -1.05833,0.52917 -0.79375,0.52917 -0.79375,0.39687 -0.79375,0.39688 -0.79375,0.52916 -0.79375,0.39688 -0.66146,0.52917 -0.79375,0.52916 -0.52917,0.39688 -0.66145,0.26458 -0.26459,0.26458 h -0.39687 -0.52917 -0.39687 -0.39688 l -0.79375,0.39688 -0.79375,-0.13229 -0.66146,-0.52917 -0.79375,-0.66146 -0.52916,-0.66146 -0.39688,-0.52916 -0.39687,-0.52917 -0.66146,-0.13229 -0.66146,-0.26458 -0.66146,-0.52917 -0.79375,-0.66146 -0.52917,-0.52917 -1.05833,-0.39687 -1.05833,-0.39688 -1.19063,-0.52916 -0.79375,-0.66146 -0.66146,-0.52917 -0.79375,-0.52916 -0.66145,-0.39688 -0.79375,-0.39687 -0.66146,-0.52917 -0.13229,-0.39688 0.13229,-0.52916 0.26458,-0.52917 v -0.39687 l -0.39687,-0.66146 -0.52917,-0.39688 h -1.05833 l -0.92605,0.39688 h -1.19062 l -1.19063,-0.39688 -1.05833,-0.79375 -0.79375,-0.79375 -0.52917,-1.5875 -0.13229,-0.52916 0.13229,-0.26459 0.39688,-0.52916 0.52917,-0.66146 0.39687,-0.52917 0.39688,-0.52917 0.52916,-0.66145 0.13229,-0.39688 0.26459,-0.26458 0.39687,-0.52917 0.26459,-0.39687 0.26458,-0.52917 0.26458,-0.66146 0.39688,-0.66146 0.39687,-0.52916 0.26459,-0.52917 0.52916,-0.92604 0.39688,-0.39688 0.26458,-0.52916 0.39688,-0.52917 0.39687,-0.26458 0.39688,-0.52917 0.39687,-0.52917 0.26458,-0.52916 0.26459,-0.39688 v -0.52917 l -0.13229,-0.39687 -0.1323,-0.39688 -0.13229,-0.39687 -0.13229,-0.39688 -0.13229,-0.26458 -0.26458,-0.52917 v -0.39687 -0.52917 l 0.39687,-0.66146 0.52917,-0.39687 0.66146,-0.39688 0.66145,-0.13229 0.52917,0.26459 0.52917,0.26458 0.66146,0.39687 0.52916,0.26459 0.79375,0.66146 0.26459,0.39687 0.52916,0.39688 0.39688,0.26458 0.66146,0.39687 0.66145,0.39688 0.66146,0.26458 0.66146,0.13229 0.92604,0.26459 0.79375,0.39687 0.79375,0.52917 0.66146,0.52917 0.66146,0.52916 0.92604,0.39688 0.52917,0.26458 0.79375,0.39688 0.79375,0.26458 0.66146,0.52917 0.66145,0.39687 0.66146,0.26458 0.52917,-0.13229 0.66146,-0.52916 0.39687,-0.52917 0.79375,-0.66146 0.92604,-1.05833 0.66146,-0.92604 0.39688,-0.52917 0.79375,-0.79375 -0.39688,-1.45521 v -1.32292 -0.92604 -0.92604 l -0.66146,-2.11667 -0.52916,-0.79375 -0.39688,-1.05833 -0.13229,-1.05833 -0.26458,-0.79375 -0.66146,-1.19063 -0.26458,-0.79375 v -0.26458 h -5.82084 v 0.39687 l 0.13229,0.66146 0.26459,0.52917 0.13229,0.66146 0.39687,0.52916 0.26459,0.79375 0.26458,0.39688 v 0.66146 l 0.26458,0.52916 v 0.52917 l 0.1323,0.52917 -0.26459,0.52916 -0.39687,0.39688 -0.52917,0.13229 -0.52917,-0.13229 -0.66145,-0.26458 -0.52917,-0.26459 -0.66146,-0.39687 -0.52917,-0.26459 -0.66145,-0.52916 -0.66146,-0.52917 -0.52917,-0.39687 -0.52917,-0.52917 -0.66145,-0.39688 -0.66146,-0.39687 -0.39688,-0.52917 -0.52916,-0.52916 -0.39688,-0.39688 -0.26458,-0.52917 -0.39688,-0.52916 -0.13229,-0.13229 v -0.26459 l 0.13229,-0.26458 z m 37.04166,0 1.19063,0.13229 0.66146,0.39688 0.66145,0.52916 0.52917,0.26459 h 0.79375 l 1.05833,0.13229 h 0.79375 l 0.92605,0.13229 0.66145,0.26458 0.52917,0.26459 0.26458,0.52916 v 0.52917 l -0.13229,0.52917 v 0.66146 l -0.13229,0.52916 -0.26458,0.66146 -0.13229,0.52917 -0.26459,0.13229 h -0.26458 l -0.79375,-0.52917 -0.66146,0.39688 -0.66146,0.39687 -0.39687,0.26459 -0.13229,0.13229 -0.26459,0.66146 -0.13229,0.66145 -0.66146,0.66146 -0.52916,0.52917 -0.52917,0.79375 -0.39688,0.66146 -0.26458,0.79375 -0.26458,0.66146 -0.39688,0.52916 -0.39687,0.39688 -0.66146,0.39687 -0.52917,0.79375 -0.52916,0.66146 -0.26459,0.92604 -0.52916,1.05834 -0.52917,0.79375 h -0.92604 -1.5875 -1.32292 l -0.92604,-0.39688 -0.52917,-0.52917 -0.52916,-0.52916 -0.52917,-0.52917 -0.52917,-0.39687 -0.92604,-0.26459 -0.66146,-0.26458 -0.52916,-0.39688 -0.52917,-0.52916 -0.39688,-0.39688 -0.52916,-0.39687 -0.52917,-0.39688 -0.66146,-0.39687 -0.66146,-0.39688 h -0.52916 l -0.52917,0.26459 -0.66146,0.26458 h -0.79375 l -0.79375,0.26458 -0.66146,0.79375 -0.79375,0.66146 -0.52916,0.79375 -0.26459,0.79375 0.1323,0.39688 0.26458,0.66145 0.66146,0.52917 0.66146,0.66146 0.79375,0.66146 0.66145,0.39687 0.52917,0.39688 0.79375,0.66146 0.92604,0.39687 0.66146,0.39688 0.79375,0.52916 0.66146,0.52917 0.52917,0.52917 0.39687,0.39687 0.52917,0.66146 0.52916,0.66146 0.26459,0.52916 0.39687,0.39688 0.26459,0.79375 0.39687,0.52917 0.39688,0.66145 0.26458,0.66146 0.13229,0.79375 v 0.79375 0.79375 l -0.13229,0.66146 -0.13229,0.66146 -0.52917,0.66146 -0.39687,0.66146 -0.52917,0.79375 -0.39688,0.52916 -0.52916,0.79375 -0.39688,0.52917 -0.52916,0.79375 -0.39688,0.92604 -0.26458,0.66146 -0.13229,0.66146 -0.39688,0.39687 -0.52917,0.52917 -0.39687,0.52917 -0.66146,-0.1323 -0.66146,-0.26458 -0.52916,-0.13229 h -0.52917 l -0.39688,0.52917 -0.26458,1.19062 v 0.92604 l -0.26458,0.66146 -0.26459,0.79375 -0.52916,0.13229 h -0.66146 l -0.66146,-0.52916 -0.66146,-0.66146 -0.52916,-0.79375 -0.66146,-1.05834 -0.52917,-0.79375 -0.13229,-0.52916 -0.13229,-0.79375 v -0.79375 -0.79375 L 621.07,689.7451 v -0.66146 l -0.1323,-0.66146 -0.26458,-0.66146 -0.13229,-0.79375 -0.13229,-0.66146 -0.26459,-0.66145 -0.13229,-0.66146 -0.13229,-0.52917 -0.39687,-1.05833 -0.26459,-0.79375 -0.26458,-0.79375 -0.13229,-0.66146 v -0.79375 l -0.26459,-0.79375 -0.39687,-1.32292 v -0.92604 l -0.26458,-1.32292 -0.26459,-1.05833 v -1.19062 l -0.26458,-1.5875 v -1.19063 l -0.13229,-0.92604 0.13229,-0.92604 -0.13229,-0.92604 -0.26459,-0.66146 v -0.66146 -0.92604 -0.79375 l -0.13229,-0.79375 v -0.92604 -0.79375 -0.92605 l 0.26459,-1.05833 0.39687,-0.66146 0.66146,-0.39687 0.52917,-0.39688 0.79375,-0.39687 0.79375,-0.39688 0.79375,-0.13229 0.92604,-0.39687 1.05833,-0.26459 h 1.32292 l 1.5875,-0.13229 h 1.32291 1.45521 l 0.92604,-0.13229 1.19063,-0.26458 h 1.05833 1.05834 1.19062 l 0.92604,-0.39688 0.92604,-0.26458 0.92605,-0.52917 1.19062,-0.39687 0.92604,-0.39688 1.05834,-0.26458 1.05833,-0.26459 0.79375,-0.26458 0.79375,-0.39687 z m 116.81354,2.91042 h 0.92605 l 0.52916,0.39687 0.52917,0.66146 0.52917,0.52917 0.26458,0.39687 0.13229,0.66146 -0.13229,0.39688 v 1.32291 l -0.26458,0.92604 -0.26459,0.92605 -0.26458,1.19062 -0.39688,1.05833 -0.13229,1.19063 -0.26458,0.92604 v 0.79375 l -0.26458,0.92604 -0.1323,1.05834 v 0.92604 l -0.26458,1.05833 v 0.92604 l -0.26458,0.92604 -0.13229,0.66146 -0.1323,0.92604 -0.13229,0.66146 -0.13229,0.66146 -0.13229,0.66146 -0.13229,0.52917 -0.13229,0.52916 -0.1323,0.52917 -0.13229,0.92604 v 1.05833 l -0.13229,0.79375 -0.26458,0.52917 -0.26459,0.39688 -0.39687,0.66145 -0.13229,0.92605 v 0.52916 l 0.26458,0.66146 0.26458,0.52917 v 0.52916 l -0.39687,0.39688 -0.52917,0.39687 -0.66146,0.26459 -0.52916,0.26458 -0.39688,0.52917 -0.13229,0.79375 0.26458,0.66146 0.39688,0.52916 0.26458,0.39688 0.39688,0.79375 0.26458,0.79375 0.39688,0.66146 0.13229,0.79375 0.13229,1.05833 v 1.19062 1.32292 l -0.13229,0.66146 v 1.19062 l -0.13229,1.5875 v 0.92605 1.19062 l -0.1323,1.19063 -0.13229,0.92604 -0.26458,0.79375 -0.13229,0.52916 -0.26459,1.05834 -0.26458,1.32291 -0.13229,1.05834 -0.13229,1.05833 -0.13229,1.32292 v 0.92604 l -0.1323,0.92604 -0.13229,0.79375 -0.13229,1.32292 -0.13229,0.66146 -0.13229,0.79375 -0.13229,0.92604 v 0.92604 l -0.1323,1.05833 v 1.19063 l -0.26458,1.05833 v 1.05833 l -0.13229,1.19063 v 1.71979 1.32292 1.19062 0.79375 l -0.13229,1.19063 v 0.79375 l -0.26459,0.92604 v 1.19062 l -0.13229,0.92605 v 0.79375 0.79375 l -0.26458,0.39687 -0.52917,0.52917 -0.66146,0.66146 -0.39687,0.66145 -0.39688,0.79375 -0.26458,0.66146 -0.39687,0.92604 -0.1323,0.79375 v 1.45521 1.32292 l -0.39687,1.05833 -0.26458,0.52917 -0.52917,0.52917 -0.66146,0.39687 -0.79375,0.52917 -0.86145,0.39687 -0.72605,0.52917 -1.19062,0.39687 -0.92605,0.1323 -0.92604,-0.1323 -0.66146,-0.39687 -0.52916,-0.39688 -0.79375,-0.26458 -0.66146,-0.13229 h -0.66146 l -0.66146,0.26458 -0.79375,0.39688 -0.79375,0.26458 H 738.545 l -0.52917,-0.52917 -0.39688,-0.66145 -0.52916,-0.66146 -0.52917,-0.66146 -0.52917,-0.52917 -0.52916,-0.66146 -0.26459,-0.66145 -0.26458,-0.79375 v -0.52917 l -0.26458,-0.52917 -0.39688,-0.52916 -0.45785,-0.39688 -0.46819,-0.52917 -0.13229,-0.52916 v -0.52917 -0.52917 l -0.52917,-0.66145 -0.66146,-0.52917 -0.52916,-0.66146 -0.52917,-0.52917 -0.52917,-0.52916 -0.39687,-0.39688 -0.26458,-0.39687 -0.52917,-0.52917 -0.52917,-0.66146 -0.39687,-0.52916 -0.39688,-0.52917 -0.52916,-0.66146 -0.52917,-0.52917 -0.39688,-0.52916 -0.52916,-0.52917 -0.52917,-0.52917 -0.52917,-0.26458 h -0.79375 l -0.79375,-0.26458 -0.79375,-0.26459 -0.39687,-0.52916 -0.13229,-0.52917 -0.13229,-0.66146 -0.1323,-0.52916 v -0.52917 -0.52917 -0.79375 -0.39687 -0.66146 l -0.26458,-0.39688 -0.52917,-0.39687 -0.39687,-0.13229 -0.66146,-0.13229 h -0.79375 -0.79375 l -0.79375,-0.1323 -0.26458,-0.52916 -0.26459,-0.52917 -0.26458,-0.66146 -0.39687,-0.52916 -0.39688,-0.52917 -0.39687,-0.66146 -0.26459,-0.39687 -0.39687,-0.79375 -0.79375,-0.66146 -0.66146,-0.52917 -1.05833,-0.52917 -0.92605,-0.13229 -0.92604,-0.13229 -0.92604,0.13229 -1.05833,0.13229 -0.79375,0.39688 -1.05834,0.13229 h -0.66145 l -0.66146,-0.52917 -0.66146,-0.66145 -0.79375,-0.39688 -0.66146,-0.39687 -0.92604,-0.1323 -0.79375,-0.39687 -0.66146,-0.52917 -0.39687,-0.39687 -0.52917,-0.52917 -0.66146,-0.39687 -0.52917,-0.39688 -0.66145,-0.39687 -0.66146,-0.26459 -0.52917,-0.26458 -0.66146,-0.66146 -0.52916,-0.52917 -0.52917,-0.26458 -0.66146,-0.13229 -0.52917,-0.13229 -0.52916,-0.26459 -0.66146,-0.39687 -0.52917,-0.39688 -0.52916,-0.26458 -0.79375,-0.39687 -0.66146,-0.52917 -0.52917,-0.39688 -0.52917,-0.52916 -0.52916,-0.52917 -0.52917,-0.52917 -0.39687,-0.39687 -0.39688,-0.39688 -0.39687,-0.26458 -0.39688,-0.39687 -0.39687,-0.26459 -0.39688,-0.39687 -0.39687,-0.13229 -0.39688,-0.39688 -0.52917,-0.26458 -0.39687,-0.26459 -0.52917,-0.26458 -0.39687,-0.39687 -0.52917,-0.39688 -0.26458,-0.26458 v -0.52917 l 0.13229,-0.52917 0.39687,-0.39687 0.39688,-0.26458 0.66146,-0.39688 0.52916,-0.26458 0.52917,-0.13229 0.66146,-0.39688 0.79375,-0.39687 0.66146,-0.39688 0.66146,-0.39687 0.52916,-0.39688 0.66146,-0.52917 0.52917,-0.39687 0.66146,-0.39688 0.66145,-0.39687 0.66146,-0.39688 0.66146,-0.52916 0.39688,-0.39688 0.52916,-0.52916 0.52917,-0.39688 h 0.79375 l 0.52917,-0.26458 0.66145,-0.66146 0.79375,-0.52917 0.92605,-0.79375 1.05833,-0.79375 1.05833,-0.66146 0.79375,-0.66145 0.79375,-0.39688 0.79375,-0.79375 0.92604,-0.52917 0.79375,-0.66145 1.19063,-0.79375 0.66146,-0.39688 0.79375,-0.39687 0.52916,-0.52917 0.66146,-0.13229 0.92604,-0.52917 0.79375,-0.39687 0.79375,-0.39688 0.52917,-0.39687 0.52917,-0.26459 0.52916,-0.13229 0.52917,-0.39687 0.66146,-0.1323 0.52917,-0.26458 0.66145,-0.26458 0.52917,-0.39688 0.52917,-0.26458 0.52916,-0.26458 0.66146,-0.39688 0.92604,-0.26458 0.66146,-0.39688 0.66146,-0.66146 0.66146,-0.26458 0.66146,-0.39687 0.92604,-0.52917 0.39687,-0.26458 0.66146,-0.1323 0.66146,-0.26458 0.79375,-0.52917 0.66146,-0.52916 0.66146,-0.66146 1.05833,-0.66146 0.79375,-0.39687 0.79375,-0.26459 1.05833,-1.05833 0.66146,-0.39688 1.05834,-0.66145 1.19062,-0.66146 0.92604,-0.52917 0.66146,-0.39687 1.19063,-0.39688 1.32291,-0.66146 1.45521,-0.66146 1.45521,-0.79375 2.38125,-1.19062 1.98437,-0.52917 1.5875,-1.32291 1.5875,-1.05834 1.7198,-1.05833 1.71979,-0.66146 0.92604,-0.66146 1.05833,-0.79375 1.05834,-0.52916 1.19062,-0.66146 1.32292,-0.66146 2.11666,-0.66146 1.45521,-0.66146 1.45521,-0.26458 z m -87.57708,49.74166 0.79375,0.39688 0.52917,0.52917 0.66146,0.79375 h 1.05833 l 1.05833,0.52916 1.19063,0.66146 0.92604,0.79375 1.45521,0.92604 0.92604,0.52917 0.79375,0.26458 1.19062,0.92604 1.05834,0.92605 1.19062,0.79375 1.19063,0.79375 1.32291,1.05833 1.45521,0.92604 1.19063,0.92604 1.71979,0.52917 1.05833,0.13229 1.05834,0.79375 1.05833,0.79375 0.92604,0.66146 1.05833,0.79375 1.32292,0.52917 1.32292,1.32291 0.26458,0.79375 0.39688,1.05834 0.39687,1.19062 0.26458,1.19063 v 0.66145 l -0.52916,0.52917 -0.13229,0.79375 -0.39688,1.05833 -0.52917,0.79375 -0.92604,0.26459 -1.45521,0.26458 -1.05833,-0.26458 -0.92604,-0.52917 -0.66146,-0.52917 -0.79375,-0.52916 -0.66146,-0.79375 -0.79375,-0.52917 -0.79375,-0.66146 -0.39687,-0.66146 -0.79375,-0.52916 -0.79375,-0.79375 h -0.92604 l -0.92605,-0.13229 -0.79375,-0.66146 -0.79375,-0.66146 -0.66145,-0.52917 -1.19063,-0.66146 -0.79375,-0.66145 -0.92604,-0.66146 -0.79375,-0.66146 -1.05833,-1.05833 -0.66146,-0.52917 -0.79375,-0.66146 -0.92604,-0.79375 -1.19063,-0.66146 -0.79375,-0.66146 -0.92604,-0.66145 -0.66146,-0.52917 -1.19062,-0.52917 -0.92605,-0.52916 -0.92604,-0.52917 h -0.79375 l -0.79375,0.79375 -0.39687,0.79375 -0.52917,0.92604 -0.39687,0.92604 -0.1323,0.66146 0.1323,0.79375 0.52916,0.79375 0.39688,0.66146 v 0.79375 l 0.66146,0.66146 0.66145,0.39687 1.19063,0.66146 1.32292,0.79375 1.19062,0.66146 1.19063,0.52917 0.52916,0.52916 v 0.92604 l -0.13229,0.79375 -0.39687,0.66146 -0.92605,0.39688 h -1.05833 l -0.79375,-0.39688 -0.79375,-0.39687 -0.39687,-0.39688 -0.66146,-0.26458 -0.39688,0.52917 -0.79375,0.66145 -0.92604,1.05834 -1.19062,0.79375 -0.79375,0.39687 -0.34107,0.0971 -3.83232,5.07256 0.0723,0.25425 0.1323,1.05833 0.26458,0.66146 0.52917,1.32292 v 0.92604 l -0.26459,1.05833 v 1.32292 l 0.52917,1.19063 1.05833,0.92604 0.79375,0.79375 0.66146,0.79375 1.32292,0.92604 h 1.19062 1.85209 1.19062 l 1.05833,0.26458 0.79375,0.52917 1.05834,0.26458 1.05833,0.39688 1.5875,0.39687 1.19063,0.26459 1.19062,0.26458 1.05833,0.39687 1.45521,0.52917 0.92604,0.52917 0.92605,0.52916 0.92604,0.52917 0.79375,0.52917 0.66146,0.26458 0.92604,0.52917 0.66146,0.66146 0.92604,0.79375 0.79375,0.52916 0.66146,0.66146 0.79375,0.66146 0.66145,0.66146 0.39688,0.92604 0.52917,0.79375 0.52916,0.66146 v 0.66146 l 0.52917,0.66145 0.52917,0.66146 0.66145,1.05834 0.66146,0.66145 0.39688,0.79375 0.13229,0.79375 0.39687,0.92605 0.39688,0.79375 0.39687,0.52916 0.66146,0.79375 0.39688,0.79375 v 0.66146 l -0.26459,0.79375 -0.39687,0.52917 -1.19063,0.52916 -1.05833,0.66146 -1.19062,0.26459 -1.05834,0.39687 -0.79375,0.52917 -0.66146,0.66146 -0.66145,0.39687 -1.05834,0.39688 -1.05833,0.52916 -1.05833,0.39688 -0.92605,0.39687 -1.32291,0.26459 -1.19063,0.26458 -0.79375,0.26458 -0.79375,0.52917 -0.39687,0.52917 -0.92604,0.39687 -1.05834,0.52917 h -1.05833 l -0.79375,0.26458 -0.92604,0.39688 -0.66146,0.26458 -0.92604,0.13229 -1.05834,0.39688 -0.52916,0.66145 -0.79375,0.52917 -0.92604,0.39688 -0.79375,0.52916 -0.92605,0.13229 -0.52916,0.52917 -0.52917,0.52917 -0.66146,0.39687 -0.66146,0.39688 -0.79375,0.52916 -1.05833,0.52917 -0.79375,0.52917 -0.79375,0.39687 -1.19062,0.13229 -0.66146,0.39688 -0.92604,0.39687 -0.79375,0.39688 -0.92605,0.52917 -1.05833,0.39687 -1.19062,0.39688 -1.05834,0.39687 -0.92604,0.52917 -0.79375,0.26458 -0.52917,0.13229 -0.79375,0.39688 -1.05833,0.66146 -0.92604,0.39687 -0.92604,0.52917 -1.19063,0.52916 -0.92604,0.39688 -1.05833,0.39687 -1.19063,0.39688 -0.92604,0.39687 -0.92604,0.66146 -1.19063,0.92604 -0.52916,0.66146 -0.79375,0.39688 -1.05834,0.39687 -1.05833,0.39688 h -1.19062 l -1.5875,0.66146 -1.32292,0.66145 -0.92604,0.66146 -1.45521,0.52917 -1.32292,0.13229 h -1.19062 l -1.32292,-0.13229 h -1.32292 l -1.05833,-0.26458 -0.79375,-0.26459 -0.92604,-0.13229 -0.79375,-0.13229 -0.66146,-0.13229 -0.79375,-0.52917 -0.79375,-0.39687 -0.79375,-0.39688 -0.79375,-0.66146 -0.66146,-0.52916 -0.13229,-0.52917 0.13229,-0.52917 v -0.39687 l -0.26458,-0.52917 -0.26458,-0.39687 -0.79375,-0.52917 -0.39688,-0.52917 -0.66146,-0.66146 -0.66146,-0.79375 -0.39687,-0.52916 -0.26458,-0.66146 v -0.52917 l -0.26459,-0.92604 -0.13229,-0.66146 v -0.79375 l -0.13229,-0.66146 0.13229,-1.05833 v -0.79375 -0.39687 -0.52917 l 0.26458,-0.79375 0.26459,-0.79375 0.39687,-0.66146 0.39688,-1.05833 0.39687,-0.79375 0.39688,-0.92604 0.26458,-0.79375 0.26458,-0.92605 0.1323,-0.79375 0.13229,-0.79375 0.39687,-0.79375 0.26459,-0.66145 0.13229,-0.66146 0.13229,-0.66146 0.39687,-0.79375 0.39688,-0.66146 0.26458,-0.79375 0.13229,-0.52917 0.26459,-0.79375 0.39687,-0.52916 0.52917,-0.92604 0.26458,-0.66146 0.52917,-0.52917 0.39687,-0.39687 0.66146,-0.26459 0.26459,-0.39687 0.39687,-0.92604 v -0.66146 l 0.13229,-0.79375 0.26459,-0.52917 0.52916,-0.66146 0.66146,-0.66146 0.39688,-0.79375 0.52916,-0.52916 0.52917,-0.79375 0.39687,-0.52917 0.66146,-0.66146 0.66146,-0.66146 0.13229,-0.79375 0.13229,-0.66145 0.66146,-0.79375 0.66146,-0.66146 1.05833,-0.39688 0.92605,-0.52916 0.79375,-0.66146 0.79375,-0.79375 0.39687,-1.19063 0.39688,-0.79375 0.52916,-0.66146 0.26459,-0.79375 0.66145,-0.66145 0.39688,-0.66146 0.52917,-0.92604 0.52916,-0.52917 0.39688,-0.66146 0.52916,-0.66146 0.66146,-0.52916 0.52917,-0.66146 0.66146,-0.92604 0.79375,-0.92605 0.39687,-0.66145 0.52917,-0.79375 0.26458,-0.52917 0.39688,-0.79375 0.52916,-0.52917 0.66146,-0.39687 1.05834,-0.26459 1.05833,-0.26458 1.19062,-0.26458 1.19063,-0.52917 1.32292,-0.13229 1.19062,-0.26458 0.92604,-0.26459 1.05834,-0.26458 0.92604,-0.26458 h 1.05833 l 1.32292,0.26458 1.05833,0.26458 h 1.19063 l 0.92604,-0.13229 h 1.05833 l 0.19224,-0.25425 -0.19224,-0.67179 0.26458,-1.19063 0.39688,-0.92604 1.05833,-0.79375 0.66146,-0.66146 1.05833,-0.66145 0.58498,-0.16744 0.47336,-0.62631 -0.79375,-0.39688 -0.52917,-0.26458 -0.79375,-0.39688 -0.66146,-0.39687 -0.66146,-0.39688 -0.52916,-0.39687 -0.79375,-0.52917 -0.79375,-0.52917 -0.79375,-0.39687 -0.79375,-0.39688 -0.66146,-0.39687 -0.52917,-0.39688 -0.66146,-0.39687 -0.52916,-0.52917 -0.52917,-0.39687 -0.39687,-0.79375 -0.26459,-0.39688 -0.13229,-0.39687 0.13229,-0.52917 0.26459,-0.52917 0.39687,-0.39687 0.66146,-0.39688 0.52917,-0.66145 0.66145,-0.79375 0.66146,-0.52917 0.52917,-0.52917 0.39687,-0.52916 0.66146,-0.79375 0.66146,-0.66146 0.52917,-0.66146 0.52916,-0.79375 0.79375,-0.66146 0.39688,-0.92604 0.26458,-0.92604 0.79375,-0.39688 1.19063,-0.79375 0.79375,-0.92604 0.26458,-0.39687 0.66146,-0.79375 0.92604,-0.66146 1.19063,-0.92604 1.05833,-0.66146 z m 11.50938,23.9448 h 0.26458 l 0.26458,0.13229 0.26459,0.39687 0.52916,0.39688 0.39688,0.39687 0.79375,0.39688 0.52916,0.26458 0.92605,0.66146 0.79375,0.66146 0.66145,0.52916 0.66146,0.39688 0.66146,0.52917 0.52917,0.52916 0.66146,0.52917 0.79375,0.52917 0.79375,0.39687 0.79375,0.66146 0.66145,0.52917 0.79375,0.52916 0.66146,0.66146 0.79375,0.66146 0.66146,0.39687 0.66146,0.52917 0.39687,0.52917 0.26459,0.66146 0.66146,0.92604 0.79375,0.92604 0.39687,0.66146 0.26458,0.52916 v 1.45521 0.92604 0.79375 l -0.13229,0.66146 -0.13229,0.92604 -0.26458,0.39688 -0.26459,0.66146 -0.39687,0.39687 -0.39688,0.39688 -0.66145,0.13229 -0.66146,-0.13229 -0.79375,-0.52917 -0.66146,-0.52917 -0.66146,-0.52916 -0.52917,-0.39688 -0.66145,-0.13229 -0.66146,-0.39687 -0.52917,-0.52917 -0.66146,-0.66146 -0.66146,-0.39687 -0.66145,-0.66146 -0.79375,-0.52917 -0.66146,-0.13229 -0.52917,-0.13229 -0.92604,-0.66146 -0.79375,-0.39688 -0.52917,-0.52916 -0.39687,-0.52917 -0.66146,-0.26458 h -0.92604 l -0.66146,-0.52917 -0.66146,-0.79375 -0.92604,-0.79375 -0.52917,-0.52917 -0.26458,-0.52916 v -1.19063 l -0.13229,-0.92604 v -1.19062 l 0.13229,-0.92605 v -0.92604 -1.19062 l 0.26458,-1.45521 0.66146,-1.19063 0.26458,-1.32291 z m 112.97708,4.23333 v 64.02917 l -0.66146,-0.1323 -0.39687,-0.13229 -0.66146,-0.26458 -0.39688,-0.39688 -0.26458,0.1323 -0.52917,0.13229 -0.39687,0.26458 h -0.66146 l -0.39688,-0.39687 -0.39687,-0.26459 -0.52917,-0.26458 -0.66146,-0.52917 -0.52916,-0.39687 -0.26459,-0.26459 -0.39687,-0.26458 -0.52917,-0.13229 -0.52916,-0.26458 -0.52917,-0.26459 -0.52917,-0.26458 -0.39687,-0.39688 -0.52917,-0.26458 -0.66146,-0.39687 -0.52916,-0.26459 -0.66146,-0.39687 -0.39688,-0.13229 -0.52916,-0.26459 h -0.52917 l -0.66146,-0.13229 -0.66146,-0.39687 -0.66146,-0.26459 -0.26458,-0.26458 -0.79375,-0.13229 -0.92604,-0.13229 -0.66146,-0.1323 -0.66146,-0.26458 -0.66146,-0.13229 -0.66145,-0.26458 -0.66146,-0.1323 h -0.66146 l -0.66146,0.1323 -0.52917,-0.1323 -0.52916,-0.39687 -0.66146,-0.13229 -0.66146,-0.26459 h -0.52917 l -0.79375,-0.13229 -0.52916,-0.13229 -0.66146,-0.26458 -0.66146,-0.52917 h -0.66146 l -0.79375,-0.26458 -0.52916,-0.26459 -0.66146,-0.39687 -0.39688,-0.39688 -0.26458,-0.39687 -0.39688,-0.26458 -0.39687,-0.39688 -0.52917,-0.39687 -0.26458,-0.39688 -0.39688,-0.66146 -0.26458,-0.39687 -0.26458,-0.52917 -0.26459,-0.52917 -0.52916,-0.39687 -0.52917,-0.39688 -0.39687,-0.39687 -0.52917,-0.26458 -0.39688,-0.39688 -0.66145,-0.26458 -0.26459,-0.52917 v -0.39687 -0.66146 l 0.13229,-0.39688 0.1323,-0.52916 0.13229,-0.39688 0.13229,-0.52917 0.13229,-0.52916 0.13229,-0.39688 0.13229,-0.66146 0.26459,-0.52916 0.13229,-0.52917 0.13229,-0.52917 0.13229,-0.92604 0.39688,-0.39687 0.13229,-0.52917 0.26458,-0.39687 0.13229,-0.39688 0.26459,-0.66146 v -0.79375 l 0.13229,-0.92604 v -0.92604 -1.19063 l 0.39687,-0.92604 0.52917,-0.92604 -0.13229,-0.92604 0.13229,-0.92604 0.13229,-0.66146 0.13229,-0.66146 0.1323,-0.52917 -0.26459,-0.79375 -0.39687,-0.79375 -0.39688,-0.66145 v -0.79375 l 0.26459,-0.66146 0.26458,-0.79375 0.13229,-1.05834 -0.39687,-0.92604 -0.39688,-0.66146 -0.13229,-0.66145 v -0.79375 l 0.13229,-0.66146 v -0.79375 l -0.26458,-0.66146 v -0.52917 l 0.26458,-0.66146 0.52917,-0.52916 0.92604,-0.52917 0.79375,-0.39687 0.52917,-0.26459 0.66145,-0.26458 0.52917,-0.13229 0.52917,-0.26459 0.92604,-0.39687 0.66146,-0.13229 0.92604,-0.26459 0.66146,-0.13229 0.66146,0.13229 0.52916,-0.26458 0.66146,-0.39687 0.92604,-0.39688 1.32292,-0.52917 0.79375,-0.52916 0.79375,-0.79375 0.66146,-0.66146 0.66146,-0.66146 0.52916,-0.79375 0.66146,-0.52917 0.79375,-0.13229 0.92604,-0.26458 1.19063,-0.26458 0.92604,-0.1323 0.66146,-0.13229 0.92604,-0.26458 0.79375,-0.79375 0.79375,-0.66146 1.19062,-0.52917 0.79375,-0.52916 0.92605,-0.26459 0.92604,-0.13229 1.19062,-0.26458 0.79375,-0.13229 0.92604,-0.26459 0.92605,-0.66145 1.05833,-0.79375 0.92604,-0.26459 0.66146,-0.13229 z m -80.30104,3.70417 h 0.26458 l 0.13229,0.13229 0.39688,0.52916 0.39687,0.39688 0.66146,0.52917 0.39688,0.13229 0.79375,0.52916 0.66145,0.39688 0.79375,0.26458 0.79375,0.26459 0.92605,0.39687 0.52916,0.26458 0.52917,0.52917 0.39687,0.66146 0.52917,0.66146 0.52917,0.66146 0.39687,0.66145 0.52917,0.66146 0.66146,0.66146 0.52916,0.79375 0.52917,0.66146 0.52917,0.66146 0.52916,0.79375 0.1323,0.66146 v 0.66145 l 0.13229,0.66146 0.39687,0.39688 0.66146,0.39687 0.66146,0.52917 0.52917,0.52917 0.66145,0.79375 0.1323,0.52916 v 0.39688 l -0.52917,0.39687 h -0.52917 l -0.79375,0.13229 -0.66146,0.26459 -0.92604,0.52916 -0.92604,0.26459 -0.66146,0.26458 -0.52916,0.39688 -0.39688,0.52916 -0.52917,0.52917 -0.79375,0.52917 -0.79375,0.26458 -0.79375,0.39687 -0.79375,0.26459 -0.66145,0.26458 -0.92605,0.52917 -0.66145,0.39687 -0.92605,0.26459 -0.79375,0.39687 -0.79375,0.39688 -0.52916,0.26458 -0.66146,0.52917 -0.79375,0.39687 -0.92604,0.39688 -0.66146,0.26458 -0.79375,0.26458 -0.79375,0.26459 -0.66146,0.26458 -0.66146,0.39687 -0.92604,0.26459 -0.79375,0.13229 -0.79375,-0.26458 h -0.92604 l -0.66146,-0.26459 -0.52917,-0.52916 -0.79375,-0.39688 -0.39687,-0.39687 -0.26458,-0.52917 -0.39688,-0.79375 -0.13229,-0.79375 -0.13229,-0.92604 v -0.79375 l 0.39687,-0.92604 0.26459,-0.66146 0.39687,-0.52917 0.52917,-0.66146 0.39687,-0.39687 0.66146,-0.66146 0.66146,-0.66146 0.52917,-0.39687 0.26458,-0.39688 0.39687,-0.39687 0.26459,-0.39688 0.26458,-0.52917 -0.26458,-0.66145 -0.26459,-0.52917 -0.13229,-0.39688 -0.26458,-0.39687 0.13229,-0.92604 v -0.66146 l 0.26458,-0.52917 v -0.52916 l 0.1323,-0.79375 0.13229,-0.66146 0.26458,-0.66146 0.26458,-0.66146 0.39688,-0.52917 0.26458,-0.39687 0.39688,-0.66146 0.52916,-0.52917 0.52917,-0.52916 0.52917,-0.52917 0.52916,-0.52917 0.26459,-0.39687 0.39687,-0.26458 0.26459,-0.39688 0.26458,-0.39687 0.52917,-0.52917 0.39687,-0.52917 0.26458,-0.26458 0.52917,-0.66146 z m 33.60208,17.85937 h 1.05833 0.79375 l 0.79375,0.13229 0.79375,0.52917 0.79375,0.39687 0.79375,0.52917 0.52917,0.39688 0.52917,0.66145 0.13229,0.66146 0.13229,0.66146 0.13229,0.66146 -0.13229,1.05833 -0.13229,1.05834 -0.13229,0.66145 -0.13229,0.66146 -0.1323,0.52917 -0.13229,0.79375 -0.39687,0.66146 -0.13229,0.66146 -0.26459,0.66145 -0.13229,0.66146 v 0.66146 0.92604 l -0.13229,0.92604 -0.13229,0.79375 -0.26459,0.52917 -0.39687,0.52917 -0.26458,0.66146 v 0.52916 l -0.26459,0.79375 v 0.52917 l -0.26458,0.66146 -0.39688,0.52916 -0.52916,0.66146 -0.26459,0.52917 -0.52916,0.79375 -0.26459,0.66146 -0.39687,0.66146 -0.39688,0.66145 -0.39687,0.52917 -0.66146,0.66146 -0.79375,0.26458 -0.79375,0.39688 -0.92604,0.13229 h -0.92604 l -0.79375,-0.26458 -0.79375,-0.26459 -0.79375,-0.26458 -0.66146,-0.39688 -0.79375,-0.26458 -0.52917,-0.26458 h -1.19062 l -0.92604,-0.26459 -0.79375,-0.52916 -0.66146,-0.39688 -0.66146,-0.26458 -0.66146,-0.26458 -0.66146,-0.39688 -0.79375,-0.39687 h -0.79375 -1.45521 l -0.66145,-0.39688 -1.32292,-0.66146 -0.92604,-0.66146 -1.05834,-0.26458 -0.79375,-0.39687 -0.79375,-0.1323 -0.92604,-0.52916 -1.19062,-0.79375 -0.92604,-0.66146 -0.52917,-0.39688 -0.92604,-0.39687 -1.05834,-0.26458 -1.05833,-0.39688 -1.05833,-0.79375 -0.66146,-0.66146 -0.13229,-0.39687 0.13229,-0.66146 0.39687,-0.26458 0.79375,-0.39688 0.79375,-0.26458 0.92605,-0.39688 0.66145,-0.39687 0.92605,-0.13229 0.79375,-0.1323 1.05833,-0.26458 1.19062,-0.26458 0.66146,-0.52917 0.92604,-0.39687 0.79375,-0.52917 0.79375,-0.52917 0.79375,-0.26458 0.79375,-0.52917 0.92605,-0.52916 0.79375,-0.26459 0.66145,-0.39687 0.79375,-0.13229 1.05834,-0.52917 0.92604,-0.52917 0.79375,-0.39687 0.92604,-0.66146 0.66146,-0.39688 0.39687,-0.26458 1.19063,-0.39687 0.52917,-0.39688 0.92604,-0.39687 0.92604,-0.26459 h 1.05833 l 0.66146,-0.26458 0.52917,-0.26458 0.79375,-0.26459 1.05833,-0.52916 0.26458,-0.1323 0.39688,-0.13229 0.52917,-0.26458 0.39687,-0.13229 0.79375,-0.39688 z"
       transform="matrix(0.42818323,0,0,0.42818323,385.5483,419.25775)" /></g></svg>
