<?xml version="1.0" encoding="UTF-8" standalone="no"?>
<!-- Created with Inkscape (http://www.inkscape.org/) -->

<svg
   width="20.746296mm"
   height="14.027342mm"
   viewBox="0 0 20.746296 14.027342"
   version="1.1"
   id="svg1"
   xml:space="preserve"
   xmlns="http://www.w3.org/2000/svg"
   xmlns:svg="http://www.w3.org/2000/svg"><defs
     id="defs1"><filter
       style="color-interpolation-filters:sRGB"
       id="filter2056"
       x="0"
       y="0"
       width="1"
       height="1"><feMorphology
         radius="4.3"
         in="SourceAlpha"
         result="result91"
         id="feMorphology2055" /><feComposite
         operator="out"
         in="SourceGraphic"
         in2="result91"
         id="feComposite2055" /><feGaussianBlur
         result="result0"
         stdDeviation="1.2"
         id="feGaussianBlur2055" /><feDiffuseLighting
         diffuseConstant="1"
         id="feDiffuseLighting2055"><feDistantLight
           elevation="66"
           azimuth="225"
           id="feDistantLight2055" /></feDiffuseLighting><feBlend
         mode="multiply"
         in2="SourceGraphic"
         id="feBlend2055" /><feComposite
         operator="in"
         in2="SourceAlpha"
         id="feComposite2056" /></filter></defs><g
     id="layer-oc10-9"
     transform="matrix(0.26458333,0,0,0.26458334,1285.0883,-508.84714)"><path
       id="path2003"
       style="display:inline;opacity:1;mix-blend-mode:normal;fill:#8d9391;fill-opacity:1;stroke:none;stroke-width:0.794488;stroke-linecap:round;stroke-miterlimit:10;stroke-opacity:1;filter:url(#filter2056)"
       d="m -4828.5386,1923.2017 -0.499,0.2977 -0.5961,0.3888 -0.6806,0.6131 0.1691,0.5574 0.5974,0.7231 0.1096,0.1169 0.2868,0.1617 c 1.9859,1.6317 -0.7418,-1.6962 2.3848,1.5441 0.962,0.6946 0.2495,1.041 -0.1202,1.5524 -0.3103,0.4289 -0.9695,0.4002 -1.266,1.3171 -1.2979,0.5061 -1.7031,2.591 -2.8326,3.4183 -0.4817,0.2524 -1.0965,0.7257 -1.9309,1.4206 l -0.3396,0.2228 -0.6253,0.5289 -1.6773,0.87 -4.1251,4.7585 -0.7375,-1.4749 -1.4195,-1.1691 -1.8172,-1.169 h -0.057 l -0.7666,-1.1705 -0.4254,-0.6402 -1.5333,-1.3634 -1.4762,-0.8918 c -0.9354,-0.3025 -1.6027,-0.5534 -2.1376,-0.9691 -0.5664,-0.4403 -0.9838,-1.0654 -1.4153,-2.1288 l -0.1274,-0.1074 -0.2565,-0.3059 -0.1414,-0.4458 -5.032,-0.6988 1.3904,0.7803 0.8526,0.7231 c 2.5483,2.7953 5.4772,5.4248 8.1758,8.2134 l 0.341,0.3617 0.2273,0.3057 0.028,0.1672 0.9647,1.0862 0.2841,0.473 -0.4532,0.4731 -0.2273,0.1672 -0.5683,0.473 -0.9649,-1.1133 -0.7957,-0.9189 -0.3964,-0.4173 -0.4824,-0.6118 -0.3978,-0.1671 -0.5116,-0.1116 -0.2273,0.1946 -0.1705,0.3615 c -0.3236,0.5941 -0.4405,1.0833 -0.3119,1.7264 1.2436,4.8376 1.6627,2.5829 2.2152,5.6236 l 0.085,0.3059 0.1703,0.363 0.1983,0.333 0.2842,0.363 0.341,0.5286 c 0.9976,3.543 3.0587,2.8207 0.908,6.3755 l -0.2273,0.3059 c -0.8393,1.5287 -1.7232,3.0609 -2.5825,4.5933 l -0.086,0.5845 0.4546,0.696 0.341,0.1114 c 0.5875,0.316 2.0651,0.2673 2.8916,0.2162 l 0.6281,-0.4119 0.2841,-0.3072 0.2842,-0.4731 c 0.7078,-1.5787 1.9298,-2.6066 3.2645,-3.6186 v -0.1944 c -0.3664,-0.7244 0.1697,0.2725 -0.2274,-0.696 0.096,-0.6765 0.4312,-1.1013 0.8097,-1.7699 l 3.8493,1.513 1.9144,-3.6418 -5.6238,-1.7345 0.5171,-2.9838 2.258,-1.5686 1.8803,1.0302 1.746,0.7967 1.9528,-3.8768 -3.0389,-1.9321 -0.1239,-1.278 1.4752,-1.6746 2.6103,-2.0863 2.8416,-2.6066 3.1619,-1.3389 c 1.426,-0.2762 3.0036,-1.0838 4.3691,-1.0244 0.8918,0.039 1.4902,0.5553 2.2502,0.9354 1.4916,0.7459 3.0259,1.2118 3.4137,1.5611 l -2.2302,2.2583 c 0.029,1.096 -2.19,2.061 -2.7865,2.9606 l -2.078,2.364 -1.6145,2.6381 -2.6502,3.5567 -6.4024,-4.0872 -1.5382,3.7829 3.305,0.7806 c 0.4926,0.5186 1.2197,1.3587 1.2431,2.1081 l 0.086,0.5574 c 0.056,1.0084 0.6355,2.0585 -0.165,2.735 l -0.4825,0.3887 c -3.5423,-0.7067 -3.8658,-2.5781 -5.5129,-2.2117 -0.3029,0.068 -1.0281,2.413 -1.5554,2.5136 -0.6599,1.9816 2.9231,1.5774 3.6084,2.4128 0.6469,0.7902 0.1233,2.2719 -1.1908,3.7777 l -0.2273,0.3887 -0.1705,0.1957 c -1.8272,5.0615 -0.4794,0.5855 -1.2198,3.0342 -0.3146,1.1106 -0.8567,2.1531 -0.9094,3.3127 -0.1915,1.7933 0.6722,3.1439 1.5623,4.649 0.753,0.7521 1.4689,1.5312 2.1291,2.3952 3.6588,2.1437 7.5396,1.4766 11.3836,-0.055 1.5489,-0.9428 3.339,-1.5835 4.8545,-2.5611 l 0.4268,-0.1957 0.7098,-0.2787 0.4532,-0.3331 0.4825,-0.3072 11.1574,-5.0105 h 0.2274 l 3.0912,-1.7455 2.1044,0.855 0.4531,-0.1115 0.5115,-0.2786 0.4548,-0.085 c 1.5213,0.2865 3.0342,0.5425 4.5134,0.9747 0.5121,0.5677 1.1761,0.9048 1.8742,1.2248 l 0.6238,-0.055 0.6556,0.067 3.1204,-2.1002 -0.341,-0.2216 -0.8512,-0.14 -0.1981,-0.028 c -1.6798,-0.5075 -2.9799,-1.699 -4.6855,-2.088 l -0.5961,-0.4459 c -1.642,-1.1137 12.8154,-6.1262 14.5387,-7.3717 l -3.6078,-1.6009 -3.7238,0.025 -3.3212,-5.5716 -4.9008,-2.2585 -0.507,-3.0037 -0.8973,-0.9537 -0.8084,-0.5082 -0.9543,-0.014 -0.7488,0.086 -0.5426,0.05 -0.7601,0.4846 -0.7494,0.1524 -0.6694,1.8835 0.1834,1.8958 -0.5774,1.2298 -1.5903,-0.3627 -2.4097,-1.7534 -3.7732,-2.2196 c 0.078,-0.1475 -2.6383,-2.7835 -3.3754,-2.6114 -0.1638,0.038 -0.6461,0.6431 -0.9521,1.2176 -0.198,0.3717 0.3424,1.4043 0.4464,1.5782 0.9281,1.5515 1.5911,1.1584 2.5652,1.8271 l 0.2921,0.5549 -0.8354,0.4605 c -0.6516,-0.7059 -0.4866,-0.6482 -1.2174,-0.5504 -0.8429,0.113 -2.8929,2.2183 -3.4448,2.8672 -0.3246,0.3819 1.1051,1.4096 0.873,1.7696 -0.06,0.092 -0.2233,0.3202 -0.2773,0.4273 -0.2699,0.5245 -0.058,1.4272 0.3523,2.1022 l 0.2008,0.4488 2.9563,0.1107 1.3522,0.8444 c 2.3169,0.48 4.9365,1.764 6.1909,3.1152 0.8898,0.9584 0.4449,1.8409 1.6082,2.984 l 0.3701,0.696 0.7374,0.8346 -0.1704,0.4173 -1.0101,0.7475 c -3.6201,1.5178 -1.8604,0.8912 -7.6804,3.1141 -0.9311,0.5832 -3.3992,2.0857 -4.4276,2.2552 l -0.1703,0.1944 c -3.9486,1.6321 -7.3936,3.7288 -11.4126,5.0391 -1.1917,0.2999 -2.2122,0.1446 -3.3782,-0.1114 l -0.5116,-0.1115 -0.2259,-0.1672 -0.2565,-0.1944 c -0.503,-0.6326 -0.9663,-1.2934 -1.504,-1.8936 l -0.3979,-0.4172 -0.3409,-0.306 c -0.1572,-0.3533 -0.3643,-1.2065 -0.4533,-1.6433 0.034,-0.256 0.027,-0.5095 0.1399,-0.7518 l -0.027,-0.2773 v -0.2516 l 0.169,-0.3343 c 0.4692,-1.2137 0.8244,-2.4268 1.2491,-3.6458 l 0.1691,-0.5016 0.2273,-0.5288 c 0.4222,-1.3492 2.656,-4.0465 2.8112,-4.7334 1.1625,-0.8311 5.0887,-6.1551 5.1714,-6.2261 l 0.6529,-1.0304 0.029,-0.1386 0.3119,-0.3901 0.7667,-0.2502 0.9938,-0.3072 0.2273,-0.083 0.6238,-0.1386 0.5961,-0.055 1.0797,-0.3072 2.0141,0.2701 1.1446,1.0433 c 0.6729,-0.4307 1.1186,-1.5249 1.9434,-2.0968 l -0.4827,-0.3461 -4.599,-3.6587 2.1147,-2.7127 2.2727,-2.7351 1.6793,-1.0447 0.9035,0.4367 -0.026,0.5733 c 0.9211,0.3335 1.9075,0.3737 2.6577,1.0105 l 0.7943,0.7505 0.4825,0.2513 0.7253,0.3883 2.5092,1.2093 0.628,0.5301 0.054,0.028 2.2429,1.6843 0.015,-0.018 -0.1456,-0.1346 0.742,-2.0364 0.1025,-0.4172 -0.2609,-0.2189 -0.8803,-0.6674 -0.226,-0.2787 -1.1074,-0.6403 c -1.0468,-0.7254 0.076,-0.1313 -1.7679,-1.3557 l -0.3978,-0.3344 c -0.5762,-0.4628 -2.4091,-1.8623 -2.9758,-2.3306 l -0.2842,-0.3344 -0.1414,-0.2773 0.028,-0.1672 0.1137,-0.3902 1.6223,-1.2054 -2.7563,-1.9873 c -0.9313,0.595 -1.4776,1.3828 -2.573,1.778 l -0.1428,-0.1129 -1.82,-1.2818 v -0.01 l -1.1615,-0.4961 c -1.842,-1.0573 -1.414,-3.4968 -4.5373,-3.3113 l -0.9579,-0.4281 c -2.8707,-2.2825 -4.9784,-0.9604 -6.7941,-2.5903 l -0.3106,-0.2487 -0.5683,-0.2231 z m 36.3876,27.0606 c 1.1991,0.4338 0.9701,0.7311 1.364,1.2793 0.4703,0.6545 0.5744,1.5492 1.3034,2.524 0.2908,0.3889 1.0898,0.7533 1.4259,1.1772 l -0.4824,0.083 -0.2551,0.1399 c -6.5428,3.4876 -10.3541,5.7952 -10.2986,2.2231 l 0.2826,-0.7245 0.056,-0.1673 1.7411,-1.9265 -0.4942,-1.0148 0.6594,-2.4414 0.3978,-0.556 0.653,-0.696 1.192,-1.3091 z m -12.8626,-2.7694 c 3.5913,2.5216 4.5283,2.9393 4.4707,5.5727 l -0.373,2.3312 -5.5704,-4.5899 -1.2738,-0.9614 -0.3001,-2.0452 0.7621,-1.7524 z" /></g></svg>
