<svg width="611" height="240" viewBox="0 0 611 240" fill="none" xmlns="http://www.w3.org/2000/svg">
<path d="M305 239.667C306.473 239.667 307.667 238.473 307.667 237C307.667 235.527 306.473 234.333 305 234.333C303.527 234.333 302.333 235.527 302.333 237C302.333 238.473 303.527 239.667 305 239.667ZM305 5.66667C306.473 5.66667 307.667 4.47276 307.667 3C307.667 1.52724 306.473 0.333337 305 0.333337C303.527 0.333337 302.333 1.52724 302.333 3C302.333 4.47276 303.527 5.66667 305 5.66667ZM305.5 237L305.5 3L304.5 3L304.5 237L305.5 237Z" fill="#3F3F3F"/>
<path d="M0.333333 120C0.333333 121.473 1.52724 122.667 3 122.667C4.47276 122.667 5.66667 121.473 5.66667 120C5.66667 118.527 4.47276 117.333 3 117.333C1.52724 117.333 0.333333 118.527 0.333333 120ZM605.333 120C605.333 121.473 606.527 122.667 608 122.667C609.473 122.667 610.667 121.473 610.667 120C610.667 118.527 609.473 117.333 608 117.333C606.527 117.333 605.333 118.527 605.333 120ZM3 120.5L608 120.5L608 119.5L3 119.5L3 120.5Z" fill="#3F3F3F"/>
</svg>
