<svg width="77" height="34" viewBox="0 0 77 34" fill="none" xmlns="http://www.w3.org/2000/svg">
<path fill-rule="evenodd" clip-rule="evenodd" d="M68.7013 22.9827H67.644V23.005H47.2474H26.8509V22.9827H25.0811C24.752 23.0014 24.297 23.005 23.6747 23.005H21.5824L21.5523 14.7337L21.5071 6.44776L21.0706 6.0078C20.8448 5.77315 20.4685 5.49451 20.2427 5.40652C19.9567 5.30386 17.9697 5.25986 13.7399 5.28919L7.65854 5.33319L6.84569 5.77315C5.43073 6.53575 5.08451 7.06371 3.23302 11.3313C2.3148 13.4578 1.44174 15.4963 1.30626 15.8483C0.960046 16.7576 0.839624 22.0664 1.15573 22.4771C1.35142 22.7411 1.33637 22.7997 1.05036 23.0197C0.76436 23.2397 0.734255 23.445 0.689096 24.8969C0.643938 26.3048 0.674043 26.6127 0.944994 27.1553C1.12563 27.5073 1.2611 28.0353 1.2611 28.3286C1.2611 28.6659 1.38152 28.9885 1.62237 29.2672L1.98364 29.6778L5.0243 29.8245L8.06497 29.9711L8.45634 30.7777C8.95308 31.819 10.067 32.8895 11.1658 33.3882C11.9185 33.7401 12.2045 33.7841 13.5291 33.7841C14.8688 33.7841 15.1247 33.7401 15.8774 33.3735C16.901 32.8749 17.9697 31.8336 18.4966 30.807C18.8428 30.1471 18.9481 30.0444 19.3245 30.0444C20.062 30.0444 20.9502 29.6191 21.2813 29.0912C21.4921 28.7685 21.5824 28.3579 21.5824 27.786V26.9647H22.335H23.0877V27.9179C23.0877 29.0179 23.3436 29.6191 23.9156 29.8685C24.5177 30.1324 27.7992 30.1031 28.3561 29.8245C28.8529 29.5751 29.1539 28.7832 29.1088 27.8593C29.0846 27.3805 29.0734 27.158 29.1789 27.0546C29.2706 26.9647 29.4503 26.9647 29.7862 26.9647H30.4635V27.9179C30.4635 29.0179 30.7194 29.6191 31.2914 29.8685C31.8032 30.1031 40.7898 30.1178 41.3919 29.8978C42.0542 29.6485 42.1897 29.3405 42.2047 28.0939V26.9647H43.0778H43.9508V28.3139C43.9508 29.3992 44.0111 29.8538 44.282 30.5137C44.7637 31.687 45.7722 32.7135 46.9915 33.3002C47.9097 33.7401 48.1054 33.7841 49.4301 33.7841C50.6794 33.7841 50.9805 33.7255 51.7783 33.3735C52.8772 32.8749 53.9158 31.8923 54.5029 30.7777C54.8792 30.0444 54.9243 29.8245 54.9243 28.4752V26.9647H55.7522H56.5801V28.3872C56.5801 29.6631 56.6253 29.9271 57.0167 30.7337C57.5435 31.8483 58.5822 32.8455 59.7864 33.3882C60.524 33.7255 60.8401 33.7841 62.0744 33.7841C63.384 33.7841 63.5947 33.7401 64.4979 33.3148C65.6871 32.7429 66.6053 31.819 67.1623 30.6604C67.5235 29.9271 67.5687 29.6338 67.5687 28.3872V26.9647H68.0504H68.517L68.5772 28.5926C68.6374 30.4991 68.7278 30.6311 70.0072 30.6311C70.9857 30.6311 71.1061 30.4551 71.1061 28.9885C71.1061 27.6833 70.9255 27.3607 70.1427 27.346L69.6008 27.3313V25.6155C69.6008 23.7383 69.4503 23.1957 68.8933 23.0637C68.8133 23.042 68.7503 23.0165 68.7013 22.9827ZM20.6792 6.99038L20.2427 6.56508L19.8062 6.13979L14.1764 6.15445C8.00476 6.15445 7.65854 6.19845 6.63495 7.03438C5.94252 7.59167 5.76189 7.92897 3.77492 12.5193C2.73628 14.9244 2.13416 16.5082 2.0288 17.1389C1.7729 18.6054 1.81806 21.6998 2.08901 22.0371C2.40512 22.4477 2.37501 23.093 2.01374 23.445C1.56216 23.885 1.57721 26.2754 2.0288 27.126C2.19438 27.4633 2.3148 27.9179 2.28469 28.1819C2.26636 28.3725 2.25547 28.4857 2.30442 28.5588C2.37603 28.6657 2.57569 28.6869 3.06744 28.7392C3.51902 28.7979 4.78346 28.8712 5.86726 28.9152L7.83918 29.0032L7.92949 28.0499C8.03486 27.0674 8.51655 25.8061 9.08856 25.0875C9.72078 24.3103 10.8046 23.5916 11.8583 23.269C15.2452 22.2571 18.7675 24.5596 18.9933 27.9473L19.0686 29.0179H19.5352C20.5738 29.0179 20.6792 28.6806 20.6792 25.5861V23.0197L19.0686 22.9757C17.4429 22.9317 17.4429 22.9317 17.4429 22.5651C17.4429 22.1984 17.4429 22.1984 19.0686 22.1544L20.6792 22.1104V14.5577V6.99038ZM17.9095 27.214C17.488 25.8208 16.2236 24.5302 14.9592 24.1929C13.0023 23.6796 11.497 24.0609 10.2025 25.3808C9.28424 26.3048 9.0434 26.862 8.96814 28.2553C8.90792 29.3845 8.93803 29.5311 9.37456 30.4111C9.88636 31.423 10.5487 32.0536 11.6475 32.5669C12.5959 33.0215 14.2968 33.0215 15.2903 32.5816C17.4278 31.6283 18.5417 29.3405 17.9095 27.214ZM23.0877 25.9381V24.9115V23.885H22.4404C22.0791 23.885 21.7329 23.929 21.6877 23.9876C21.6275 24.0316 21.5824 24.5009 21.5824 25.0142V25.9381H22.335H23.0877ZM28.0551 26.5394C28.0551 24.4129 28.025 24.0463 27.8142 23.9729C27.5282 23.8703 24.608 23.8703 24.337 23.9876C24.1865 24.0316 24.1414 24.6916 24.1414 26.5394V29.0179H26.0982H28.0551V26.5394ZM30.4635 25.9381V24.9115V23.885H29.8012C29.1238 23.885 28.9884 23.9583 29.0486 24.2809C29.0636 24.3836 29.0787 24.7942 29.0937 25.2048L29.1088 25.9381H29.7862H30.4635ZM41.2714 26.5394C41.3015 24.7062 41.2564 24.1049 41.1209 24.0023C40.9102 23.885 32.029 23.8556 31.7129 23.9876C31.5624 24.0316 31.5172 24.6916 31.5172 26.5394V29.0179L36.3793 28.9885L41.2263 28.9445L41.2714 26.5394ZM45.7572 24.3836C45.9529 24.2516 46.1184 24.0903 46.1184 24.0169C46.1184 23.9436 45.2454 23.885 44.1616 23.885H42.2047V24.9115V25.9381H43.3337H44.4476L44.9142 25.2782C45.1701 24.9115 45.5464 24.5009 45.7572 24.3836ZM53.5997 26.4954C53.0879 25.4835 52.0643 24.5596 51.116 24.2663C49.6408 23.8116 48.5269 23.8703 47.3377 24.4569C44.0111 26.1141 44.0863 30.895 47.4431 32.4936C48.557 33.0215 50.1676 33.0655 51.2665 32.5816C52.26 32.1416 53.2535 31.203 53.6599 30.2937C54.1867 29.1498 54.1566 27.61 53.5997 26.4954ZM58.236 24.4862C58.522 24.2369 58.7628 24.0023 58.7628 23.9583C58.7628 23.9143 57.393 23.885 55.7372 23.885H52.6965L53.3739 24.5889C53.7502 24.9849 54.1416 25.4395 54.2319 25.6155C54.3975 25.9088 54.5179 25.9381 55.7522 25.9381H57.0769L57.408 25.4395C57.5736 25.1608 57.9499 24.7356 58.236 24.4862ZM66.6505 28.5046C66.6655 26.7007 65.7473 25.2342 64.1366 24.4862C62.5862 23.7676 61.2465 23.797 59.8014 24.5742C58.3112 25.3515 57.4984 26.7154 57.4984 28.4312C57.4984 29.7218 57.8295 30.5577 58.6875 31.4816C60.0122 32.9189 62.2852 33.3442 64.0614 32.4936C65.7021 31.7016 66.6354 30.2791 66.6505 28.5046ZM68.5471 25.9381V24.9115V23.885H66.9666C66.0182 23.885 65.386 23.9436 65.386 24.0316C65.386 24.1049 65.4613 24.1783 65.5366 24.1783C65.6269 24.1783 66.0032 24.5742 66.3946 25.0582C67.0719 25.9235 67.1021 25.9381 67.8246 25.9381H68.5471ZM69.9019 29.7511C70.1578 29.7511 70.2029 29.6485 70.2029 29.0179C70.2029 28.3872 70.1578 28.2846 69.9019 28.2846C69.646 28.2846 69.6008 28.3872 69.6008 29.0179C69.6008 29.6485 69.646 29.7511 69.9019 29.7511ZM7.3087 8.44188C7.0227 8.57387 6.69154 8.83785 6.57112 9.0285C6.11953 9.68844 3.5154 15.8479 3.5154 16.2292C3.5154 16.7572 3.84656 17.1971 4.38846 17.4171C4.68952 17.5344 6.11953 17.5784 9.37094 17.5491L13.9319 17.5051L14.3685 17.0212L14.805 16.5519V12.9442C14.805 9.13115 14.7297 8.69119 14.0674 8.33922C13.8868 8.25123 12.5471 8.19257 10.7859 8.19257C8.3323 8.19257 7.71513 8.23656 7.3087 8.44188ZM13.661 9.30714C13.8717 9.49779 13.9018 10.0257 13.9018 12.7535C13.9018 14.704 13.8416 16.0972 13.7513 16.2732C13.6008 16.5372 13.39 16.5519 9.09999 16.5519C5.36689 16.5519 4.58415 16.5225 4.52394 16.3465C4.47878 16.2292 5.09594 14.6454 5.87869 12.8122C7.03775 10.1724 7.41407 9.45379 7.71513 9.29247C8.31724 8.96983 13.3449 8.9845 13.661 9.30714ZM4.06274 22.7835C4.01758 22.6662 4.01758 22.461 4.06274 22.3436C4.13801 22.153 4.55948 22.1237 6.89267 22.153L9.61723 22.197V22.5636V22.9302L6.89267 22.9741C4.55948 23.0035 4.13801 22.9741 4.06274 22.7835ZM12.1767 25.8935C11.123 26.4361 10.5962 27.2867 10.5962 28.4306C10.5962 30.7037 12.9293 32.0089 14.9916 30.8944C15.8195 30.4397 16.4668 29.3985 16.4668 28.5186C16.4668 27.5213 15.6991 26.3188 14.7959 25.8495C14.2389 25.5708 12.7487 25.6001 12.1767 25.8935ZM14.9163 27.1693C15.3378 27.624 15.4131 27.8 15.4131 28.4452C15.4131 29.1198 15.3528 29.2518 14.826 29.7651C14.3443 30.2491 14.1486 30.3371 13.6218 30.3371C12.8089 30.3371 12.1617 30.0144 11.8004 29.4132C10.5962 27.492 13.3659 25.5122 14.9163 27.1693ZM46.7829 29.6479C46.0754 28.0054 47.0689 26.0256 48.7698 25.6736C49.3719 25.5563 50.4256 25.6736 50.9224 25.9229C51.66 26.3189 52.4427 27.6094 52.4427 28.4307C52.4427 29.3253 51.6449 30.5719 50.802 30.9972C49.3418 31.7304 47.385 31.0705 46.7829 29.6479ZM51.389 28.5627C51.389 27.7414 51.1482 27.2868 50.5009 26.8615C49.6579 26.3042 48.3785 26.5242 47.8516 27.3161C46.9334 28.6654 47.8817 30.3372 49.5676 30.3372C50.1246 30.3372 50.3052 30.2492 50.802 29.7653C51.3137 29.2813 51.389 29.1053 51.389 28.5627ZM60.7494 25.8937C59.5753 26.451 58.8678 27.9322 59.2141 29.1494C59.3947 29.824 60.1022 30.6893 60.7043 30.9972C62.8869 32.0972 65.4309 30.1906 64.9191 27.8588C64.7384 27.0376 64.0309 26.1283 63.3385 25.8497C62.6611 25.571 61.3666 25.6004 60.7494 25.8937ZM62.9923 26.7443C63.9557 27.2429 64.3019 28.5041 63.7299 29.4134C63.3686 30 62.7214 30.3373 61.9236 30.3373C61.4419 30.3373 61.201 30.2346 60.7795 29.8533C59.0936 28.3575 60.9602 25.7324 62.9923 26.7443Z" fill="#84CC16"/>
<path fill-rule="evenodd" clip-rule="evenodd" d="M8.9389 1.43606C9.25501 1.36273 12.4161 1.09875 15.9686 0.864107C19.5361 0.62946 23.224 0.453473 24.1723 0.468139C25.8281 0.49747 25.9486 0.526801 26.8517 1.01076C27.9807 1.59738 28.6731 2.33065 29.3656 3.6652C29.772 4.44247 29.9827 4.67712 30.359 4.80911C30.7053 4.92643 37.0425 4.97042 52.7576 4.97042C72.7778 4.97042 74.7196 4.98509 75.0358 5.20507C75.7733 5.71836 75.8034 6.01167 75.8034 12.1712V17.9053L76.3604 18.7706C76.8421 19.5332 76.9174 19.7972 76.9776 20.8091C77.0378 21.8943 77.0227 21.9823 76.6615 22.3343C76.2099 22.7743 75.8486 22.8036 75.0809 22.4663C74.6444 22.2756 73.9218 22.2023 71.6338 22.1583L68.7286 22.0996V22.23H67.8255V22.129H47.4289H27.0324V22.23H25.8324C25.7022 22.1497 25.5187 22.0692 25.3164 22.0117C24.5487 21.821 23.9465 21.381 23.6003 20.7651C23.3745 20.3398 23.3294 19.5625 23.2692 13.0804L23.1939 5.87968L22.7273 5.3224C22.4864 5.01442 22.0047 4.63312 21.6736 4.4718C21.1166 4.17849 20.7855 4.16383 14.4934 4.0905C8.17121 4.01717 7.88521 4.00251 7.67447 3.73853C7.13257 3.01992 7.84005 1.7587 8.9389 1.43606ZM28.5377 4.16383C27.8603 2.91726 27.0775 2.11067 26.1593 1.70004C25.1357 1.27474 24.2777 1.27474 16.5707 1.7587C9.33028 2.21333 8.66795 2.30132 8.54753 2.9466C8.50237 3.18124 8.95396 3.19591 15.0202 3.2399C21.0414 3.2839 21.5833 3.29857 22.0649 3.56254C22.938 4.00251 23.7057 4.83844 24.0218 5.6597C24.3078 6.40764 24.3229 6.81827 24.3229 13.2271C24.3229 19.7238 24.3379 20.0172 24.6239 20.4718C24.7895 20.7358 24.94 20.9704 24.9551 20.9851C24.9852 21.0144 36.0791 21.0584 49.6116 21.1024L49.6869 21.1026C74.1177 21.1757 74.2238 21.176 75.096 21.4837L75.954 21.7917V20.8238C75.954 19.9878 75.8787 19.7678 75.5024 19.2106C75.2615 18.8586 74.9906 18.3306 74.9003 18.0373C74.81 17.7293 74.7497 15.2069 74.7497 11.9072C74.7497 7.02359 74.7196 6.27565 74.5089 6.085C74.2982 5.87968 72.0703 5.85035 52.2759 5.85035H30.2687L29.6817 5.51305C29.2451 5.2784 28.9441 4.92643 28.5377 4.16383ZM26.5832 13.5499C26.5832 10.6168 26.6283 8.10904 26.6735 7.99172C26.7638 7.77174 27.2003 7.75707 30.4819 7.7864L34.1848 7.8304L34.23 13.4619C34.2601 17.8762 34.2149 19.1228 34.0795 19.2254C33.9741 19.2841 32.3484 19.3428 30.4668 19.3428C27.5616 19.3428 27.0197 19.3134 26.824 19.1081C26.6133 18.9175 26.5832 18.1989 26.5832 13.5499ZM33.3569 18.3162V13.4766V8.637H30.4969H27.6369V13.4766V18.3162H30.4969H33.3569ZM36.3151 7.85973C36.2549 7.90372 36.2097 10.4702 36.2097 13.5646C36.2097 18.5362 36.2398 19.1814 36.4506 19.2548C36.5861 19.2988 38.1967 19.3428 40.0482 19.3428C42.9082 19.3428 43.4501 19.3134 43.6458 19.1081C43.8566 18.9175 43.8867 18.2135 43.8867 13.6526C43.8867 10.7781 43.8415 8.27036 43.7963 8.07971L43.706 7.75707H40.0633C38.0462 7.75707 36.3603 7.80106 36.3151 7.85973ZM42.833 13.4766V18.3162H39.9729H37.1129V13.4766V8.63699H39.9729H42.833V13.4766ZM45.6982 13.4886C45.6982 10.4381 45.7434 7.90103 45.8036 7.84236C45.8638 7.79837 47.5648 7.76904 49.5969 7.7837L53.2999 7.8277L53.345 13.3859C53.3601 17.3602 53.33 19.0028 53.2096 19.1347C53.0741 19.2961 52.3365 19.3401 49.6571 19.3401C47.625 19.3401 46.1649 19.2814 45.9842 19.1934C45.7133 19.0468 45.6982 18.8268 45.6982 13.4886ZM52.472 18.3135L52.4419 13.5032L52.3967 8.70763L49.5818 8.66363L46.7519 8.6343V13.4739V18.3135H49.6119H52.472ZM55.3161 8.15206C55.2107 8.41604 55.1806 10.3812 55.2107 13.8129C55.2559 18.2859 55.286 19.0778 55.4817 19.1951C55.7526 19.3711 62.4059 19.3858 62.6769 19.2245C62.8124 19.1218 62.8575 17.8752 62.8274 13.4609L62.7823 7.82943L59.1244 7.78543L55.4817 7.7561L55.3161 8.15206ZM61.9544 13.4756V18.3152H59.0943H56.2343V13.4756V8.63602H59.0943H61.9544V13.4756ZM64.8176 13.4766C64.8176 10.4408 64.8627 7.90372 64.9229 7.85973C64.9681 7.80106 66.654 7.75707 68.6711 7.75707C71.8472 7.75707 72.3289 7.7864 72.4042 7.99172C72.4493 8.1237 72.4945 10.6168 72.4945 13.5499C72.4945 18.1989 72.4644 18.9175 72.2537 19.1081C72.058 19.3134 71.5161 19.3428 68.5958 19.3428C66.1422 19.3428 65.1337 19.2988 64.9982 19.1668C64.8627 19.0348 64.8176 17.5682 64.8176 13.4766ZM71.4408 18.3162V13.4766V8.63699H68.5808H65.7207V13.4766V18.3162H68.5808H71.4408Z" fill="#9EA0A5"/>
</svg>
