<svg width="93" height="37" viewBox="0 0 93 37" fill="none" xmlns="http://www.w3.org/2000/svg">
<path fill-rule="evenodd" clip-rule="evenodd" d="M68.4315 25.4536H67.3744V25.4762H46.9779H26.5813V25.4536H24.8153C24.4859 25.4725 24.0298 25.4762 23.4052 25.4762H21.3129L21.2827 17.2049L21.2376 8.91895L20.8011 8.47899C20.5753 8.24434 20.1989 7.9657 19.9732 7.87771C19.6871 7.77505 17.7002 7.73105 13.4703 7.76039L7.38901 7.80438L6.57616 8.24434C5.1612 9.00694 4.81498 9.5349 2.96349 13.8025C2.04527 15.929 1.1722 17.9675 1.03673 18.3195C0.690515 19.2287 0.570093 24.5376 0.886202 24.9483C1.08189 25.2122 1.06684 25.2709 0.780832 25.4909C0.494829 25.7109 0.464723 25.9162 0.419565 27.3681C0.374406 28.7759 0.404512 29.0839 0.675462 29.6265C0.856096 29.9785 0.991571 30.5065 0.991571 30.7998C0.991571 31.1371 1.11199 31.4597 1.35284 31.7384L1.71411 32.149L4.75477 32.2956L7.79544 32.4423L8.18681 33.2489C8.68355 34.2901 9.79746 35.3607 10.8963 35.8593C11.649 36.2113 11.935 36.2553 13.2596 36.2553C14.5993 36.2553 14.8552 36.2113 15.6078 35.8447C16.6314 35.3461 17.7002 34.3048 18.227 33.2782C18.5732 32.6183 18.6786 32.5156 19.0549 32.5156C19.7925 32.5156 20.6806 32.0903 21.0118 31.5624C21.2225 31.2397 21.3129 30.8291 21.3129 30.2572V29.4359H22.0655H22.8181V30.3891C22.8181 31.489 23.074 32.0903 23.646 32.3396C24.2481 32.6036 27.5297 32.5743 28.0866 32.2956C28.5834 32.0463 28.8844 31.2544 28.8393 30.3305C28.8151 29.8517 28.8039 29.6292 28.9094 29.5257C29.001 29.4359 29.1808 29.4359 29.5166 29.4359H30.194V30.3891C30.194 31.489 30.4499 32.0903 31.0219 32.3396C31.5337 32.5743 40.5202 32.589 41.1223 32.369C41.7847 32.1197 41.9201 31.8117 41.9352 30.5651V29.4359H42.8082H43.6813V30.7851C43.6813 31.8703 43.7415 32.325 44.0125 32.9849C44.4942 34.1582 45.5027 35.1847 46.722 35.7714C47.6402 36.2113 47.8359 36.2553 49.1605 36.2553C50.4099 36.2553 50.711 36.1966 51.5088 35.8447C52.6076 35.3461 53.6463 34.3635 54.2333 33.2489C54.6096 32.5156 54.6548 32.2956 54.6548 30.9464V29.4359H55.4827H56.3106V30.8584C56.3106 32.1343 56.3558 32.3983 56.7471 33.2049C57.274 34.3195 58.3126 35.3167 59.5169 35.8593C60.2544 36.1966 60.5706 36.2553 61.8049 36.2553C63.1145 36.2553 63.3252 36.2113 64.2284 35.786C65.4175 35.2141 66.3358 34.2901 66.8927 33.1316C67.254 32.3983 67.2992 32.105 67.2992 30.8584V29.4359H67.7808H68.2475L68.3077 31.0638C68.3679 32.9703 68.4582 33.1022 69.7377 33.1022C70.7161 33.1022 70.8366 32.9263 70.8366 31.4597C70.8366 30.1545 70.6559 29.8319 69.8732 29.8172L69.3313 29.8025V28.0867C69.3313 26.2095 69.1808 25.6669 68.6238 25.5349C68.5436 25.5132 68.4805 25.4876 68.4315 25.4536ZM20.4097 9.46157L19.9732 9.03628L19.5366 8.61098L13.9069 8.62565C7.73523 8.62565 7.38901 8.66964 6.36542 9.50557C5.67299 10.0629 5.49236 10.4002 3.50539 14.9904C2.46675 17.3956 1.86463 18.9794 1.75926 19.61C1.50337 21.0766 1.54852 24.171 1.81948 24.5083C2.13558 24.9189 2.10548 25.5642 1.74421 25.9162C1.29263 26.3561 1.30768 28.7466 1.75926 29.5972C1.92484 29.9345 2.04527 30.3891 2.01516 30.6531C1.99683 30.8437 1.98593 30.9568 2.03489 31.03C2.10649 31.1369 2.30616 31.1581 2.79791 31.2104C3.24949 31.2691 4.51393 31.3424 5.59773 31.3864L7.56964 31.4744L7.65996 30.5211C7.76533 29.5385 8.24702 28.2773 8.81903 27.5587C9.45124 26.7814 10.535 26.0628 11.5887 25.7402C14.9756 24.7283 18.498 27.0308 18.7238 30.4185L18.799 31.489H19.2657C20.3043 31.489 20.4097 31.1517 20.4097 28.0573V25.4909L18.799 25.4469C17.6097 25.4147 17.2905 25.4061 17.2048 25.2602C17.1733 25.2067 17.1733 25.1347 17.1733 25.0363C17.1733 24.9378 17.1733 24.8658 17.2048 24.8123C17.2905 24.6665 17.6097 24.6578 18.799 24.6256L20.4097 24.5816V17.0289V9.46157ZM17.64 29.6852C17.2185 28.292 15.9541 27.0014 14.6896 26.6641C12.7328 26.1508 11.2275 26.5321 9.93293 27.852C9.01471 28.7759 8.77387 29.3332 8.6986 30.7264C8.63839 31.8557 8.6685 32.0023 9.10503 32.8823C9.61683 33.8942 10.2791 34.5248 11.378 35.0381C12.3263 35.4927 14.0273 35.4927 15.0208 35.0527C17.1583 34.0995 18.2722 31.8117 17.64 29.6852ZM22.8181 28.4093V27.3827V26.3561H22.1709C21.8096 26.3561 21.4634 26.4001 21.4182 26.4588C21.358 26.5028 21.3129 26.9721 21.3129 27.4854V28.4093H22.0655H22.8181ZM27.7856 29.0106C27.7856 26.8841 27.7554 26.5175 27.5447 26.4441C27.2587 26.3415 24.3385 26.3415 24.0675 26.4588C23.917 26.5028 23.8718 27.1627 23.8718 29.0106V31.489H25.8287H27.7856V29.0106ZM30.194 28.4093V27.3827V26.3561H29.5317C28.8543 26.3561 28.7188 26.4295 28.779 26.7521C28.7941 26.8548 28.8091 27.2654 28.8242 27.676L28.8393 28.4093H29.5166H30.194ZM41.0019 29.0106C41.032 27.1774 40.9869 26.5761 40.8514 26.4735C40.6406 26.3561 31.7595 26.3268 31.4434 26.4588C31.2929 26.5028 31.2477 27.1627 31.2477 29.0106V31.489L36.1098 31.4597L40.9568 31.4157L41.0019 29.0106ZM45.4876 26.8548C45.6833 26.7228 45.8489 26.5615 45.8489 26.4881C45.8489 26.4148 44.9759 26.3561 43.8921 26.3561H41.9352V27.3827V28.4093H43.0641H44.1781L44.6447 27.7494C44.9006 27.3827 45.2769 26.9721 45.4876 26.8548ZM53.3302 28.9666C52.8184 27.9547 51.7948 27.0308 50.8464 26.7374C49.3713 26.2828 48.2574 26.3415 47.0682 26.9281C43.7415 28.5853 43.8168 33.3662 47.1736 34.9648C48.2875 35.4927 49.8981 35.5367 50.997 35.0527C51.9905 34.6128 52.9839 33.6742 53.3904 32.7649C53.9172 31.621 53.8871 30.0812 53.3302 28.9666ZM57.9664 26.9574C58.2524 26.7081 58.4933 26.4735 58.4933 26.4295C58.4933 26.3855 57.1235 26.3561 55.4677 26.3561H52.427L53.1044 27.0601C53.4807 27.4561 53.8721 27.9107 53.9624 28.0867C54.128 28.38 54.2484 28.4093 55.4827 28.4093H56.8074L57.1385 27.9107C57.3041 27.632 57.6804 27.2067 57.9664 26.9574ZM66.3809 30.9758C66.396 29.1719 65.4778 27.7054 63.8671 26.9574C62.3167 26.2388 60.977 26.2682 59.5319 27.0454C58.0417 27.8227 57.2288 29.1866 57.2288 30.9024C57.2288 32.193 57.56 33.0289 58.418 33.9528C59.7426 35.3901 62.0156 35.8153 63.7919 34.9648C65.4326 34.1728 66.3659 32.7503 66.3809 30.9758ZM68.2776 28.4093V27.3827V26.3561H66.697C65.7487 26.3561 65.1165 26.4148 65.1165 26.5028C65.1165 26.5761 65.1918 26.6495 65.267 26.6495C65.3573 26.6495 65.7337 27.0454 66.125 27.5294C66.8024 28.3946 66.8325 28.4093 67.5551 28.4093H68.2776ZM69.6323 32.2223C69.8882 32.2223 69.9334 32.1197 69.9334 31.489C69.9334 30.8584 69.8882 30.7558 69.6323 30.7558C69.3764 30.7558 69.3313 30.8584 69.3313 31.489C69.3313 32.1197 69.3764 32.2223 69.6323 32.2223ZM7.03917 10.9131C6.75317 11.0451 6.42201 11.309 6.30159 11.4997C5.85 12.1596 3.24587 18.3191 3.24587 18.7004C3.24587 19.2284 3.57703 19.6683 4.11893 19.8883C4.41999 20.0056 5.85 20.0496 9.10141 20.0203L13.6624 19.9763L14.0989 19.4923L14.5355 19.0231V15.4154C14.5355 11.6023 14.4602 11.1624 13.7979 10.8104C13.6172 10.7224 12.2775 10.6638 10.5164 10.6638C8.06276 10.6638 7.4456 10.7078 7.03917 10.9131ZM13.3915 11.7783C13.6022 11.969 13.6323 12.4969 13.6323 15.2247C13.6323 17.1752 13.5721 18.5684 13.4818 18.7444C13.3312 19.0084 13.1205 19.0231 8.83046 19.0231C5.09736 19.0231 4.31462 18.9937 4.25441 18.8177C4.20925 18.7004 4.82641 17.1165 5.60916 15.2834C6.76822 12.6436 7.14454 11.925 7.4456 11.7637C8.04771 11.441 13.0753 11.4557 13.3915 11.7783ZM3.79321 25.2547C3.74805 25.1374 3.74805 24.9321 3.79321 24.8148C3.86847 24.6242 4.28995 24.5949 6.62314 24.6242L9.34769 24.6682V25.0348V25.4013L6.62314 25.4453C4.28995 25.4747 3.86847 25.4453 3.79321 25.2547ZM11.9072 28.3646C10.8535 28.9073 10.3266 29.7579 10.3266 30.9018C10.3266 33.1749 12.6598 34.4801 14.722 33.3656C15.55 32.9109 16.1972 31.8697 16.1972 30.9898C16.1972 29.9925 15.4295 28.7899 14.5264 28.3206C13.9694 28.042 12.4792 28.0713 11.9072 28.3646ZM14.6468 29.6405C15.0683 30.0952 15.1435 30.2711 15.1435 30.9164C15.1435 31.591 15.0833 31.723 14.5565 32.2363C14.0748 32.7203 13.8791 32.8083 13.3522 32.8083C12.5394 32.8083 11.8921 32.4856 11.5309 31.8843C10.3266 29.9632 13.0963 27.9833 14.6468 29.6405ZM46.5133 32.1191C45.8058 30.4766 46.7993 28.4968 48.5003 28.1448C49.1024 28.0275 50.1561 28.1448 50.6528 28.3941C51.3904 28.7901 52.1732 30.0806 52.1732 30.9019C52.1732 31.7965 51.3754 33.0431 50.5324 33.4684C49.0723 34.2016 47.1154 33.5417 46.5133 32.1191ZM51.1195 31.0339C51.1195 30.2126 50.8786 29.758 50.2314 29.3327C49.3884 28.7754 48.1089 28.9954 47.5821 29.7873C46.6638 31.1366 47.6122 32.8084 49.2981 32.8084C49.855 32.8084 50.0357 32.7204 50.5324 32.2365C51.0442 31.7525 51.1195 31.5765 51.1195 31.0339ZM60.4799 28.3649C59.3058 28.9222 58.5983 30.4034 58.9445 31.6206C59.1252 32.2952 59.8326 33.1605 60.4347 33.4684C62.6174 34.5683 65.1613 32.6618 64.6495 30.33C64.4689 29.5088 63.7614 28.5995 63.069 28.3209C62.3916 28.0422 61.0971 28.0716 60.4799 28.3649ZM62.7228 29.2155C63.6862 29.7141 64.0324 30.9753 63.4604 31.8846C63.0991 32.4712 62.4518 32.8085 61.654 32.8085C61.1723 32.8085 60.9315 32.7058 60.51 32.3245C58.8241 30.8287 60.6906 28.2036 62.7228 29.2155Z" fill="#84CC16"/>
<path fill-rule="evenodd" clip-rule="evenodd" d="M8.66547 3.90774C8.98158 3.83441 12.1427 3.57043 15.6951 3.33579C19.2626 3.10114 22.9506 2.92515 23.8989 2.93982C25.5547 2.96915 25.6751 2.99848 26.5783 3.48244C27.7073 4.06906 28.3997 4.80233 29.0921 6.13688C29.4985 6.91415 29.7093 7.1488 30.0856 7.28078C30.4318 7.39811 36.769 7.4421 52.4842 7.4421C72.5044 7.4421 74.4462 7.45677 74.7623 7.67675C75.4999 8.19004 75.53 8.48335 75.53 14.6428V20.377L76.087 21.2423C76.5686 22.0049 76.6439 22.2689 76.7041 23.2808C76.7643 24.366 76.7493 24.454 76.388 24.806C75.9364 25.2459 75.5752 25.2753 74.8075 24.938C74.3709 24.7473 73.6484 24.674 71.3604 24.63L68.4552 24.5713V24.7008H67.552V24.6007H47.1555H26.7589V24.7008H25.5575C25.4274 24.6207 25.2445 24.5406 25.0429 24.4833C24.2752 24.2927 23.6731 23.8527 23.3269 23.2368C23.1011 22.8115 23.0559 22.0342 22.9957 15.5521L22.9205 8.35136L22.4538 7.79408C22.213 7.4861 21.7313 7.1048 21.4001 6.94348C20.8432 6.65017 20.512 6.63551 14.2199 6.56218C7.89777 6.48885 7.61177 6.47419 7.40103 6.21021C6.85913 5.4916 7.56661 4.23038 8.66547 3.90774ZM28.2642 6.63551C27.5868 5.38894 26.8041 4.58235 25.8859 4.17172C24.8623 3.74642 24.0043 3.74642 16.2972 4.23038C9.05684 4.68501 8.39452 4.773 8.27409 5.41828C8.22893 5.65292 8.68052 5.66759 14.7468 5.71158C20.7679 5.75558 21.3098 5.77025 21.7915 6.03422C22.6646 6.47419 23.4323 7.31012 23.7484 8.13138C24.0344 8.87932 24.0494 9.28995 24.0494 15.6987C24.0494 22.1955 24.0645 22.4888 24.3505 22.9435C24.5161 23.2074 24.6666 23.4421 24.6816 23.4568C24.7118 23.4861 35.8057 23.5301 49.3381 23.5741L49.4134 23.5743C73.8443 23.6474 73.9503 23.6477 74.8225 23.9554L75.6805 24.2633V23.2954C75.6805 22.4595 75.6053 22.2395 75.2289 21.6822C74.9881 21.3303 74.7172 20.8023 74.6268 20.509C74.5365 20.201 74.4763 17.6786 74.4763 14.3789C74.4763 9.49527 74.4462 8.74733 74.2355 8.55668C74.0247 8.35136 71.7969 8.32203 52.0025 8.32203H29.9953L29.4082 7.98473C28.9717 7.75008 28.6706 7.39811 28.2642 6.63551ZM26.3097 16.0211C26.3097 13.088 26.3549 10.5802 26.4001 10.4629C26.4904 10.2429 26.9269 10.2282 30.2084 10.2575L33.9114 10.3015L33.9566 15.9331C33.9867 20.3474 33.9415 21.5939 33.806 21.6966C33.7007 21.7552 32.075 21.8139 30.1934 21.8139C27.2882 21.8139 26.7463 21.7846 26.5506 21.5793C26.3398 21.3886 26.3097 20.67 26.3097 16.0211ZM33.0835 20.7873V15.9477V11.1081H30.2235H27.3634V15.9477V20.7873H30.2235H33.0835ZM36.0417 10.3309C35.9815 10.3749 35.9363 12.9413 35.9363 16.0357C35.9363 21.0073 35.9664 21.6526 36.1771 21.7259C36.3126 21.7699 37.9233 21.8139 39.7748 21.8139C42.6348 21.8139 43.1767 21.7846 43.3724 21.5793C43.5831 21.3886 43.6132 20.6847 43.6132 16.1237C43.6132 13.2493 43.5681 10.7415 43.5229 10.5508L43.4326 10.2282H39.7898C37.7727 10.2282 36.0868 10.2722 36.0417 10.3309ZM42.5595 15.9477V20.7873H39.6995H36.8395V15.9477V11.1081H39.6995H42.5595V15.9477ZM45.4301 15.9612C45.4301 12.9108 45.4753 10.3737 45.5355 10.3151C45.5957 10.2711 47.2967 10.2417 49.3288 10.2564L53.0318 10.3004L53.0769 15.8586C53.092 19.8329 53.0619 21.4754 52.9415 21.6074C52.806 21.7688 52.0684 21.8127 49.389 21.8127C47.3569 21.8127 45.8968 21.7541 45.7161 21.6661C45.4452 21.5194 45.4301 21.2995 45.4301 15.9612ZM52.2039 20.7862L52.1738 15.9759L52.1286 11.1803L49.3137 11.1363L46.4838 11.107V15.9466V20.7862H49.3438H52.2039ZM55.0426 10.6232C54.9373 10.8872 54.9072 12.8524 54.9373 16.2841C54.9824 20.757 55.0125 21.5489 55.2082 21.6663C55.4792 21.8423 62.1325 21.8569 62.4035 21.6956C62.5389 21.5929 62.5841 20.3464 62.554 15.9321L62.5088 10.3006L58.851 10.2566L55.2082 10.2272L55.0426 10.6232ZM61.6809 15.9468V20.7863H58.8209H55.9609V15.9468V11.1072H58.8209H61.6809V15.9468ZM64.5441 15.9477C64.5441 12.912 64.5893 10.3749 64.6495 10.3309C64.6947 10.2722 66.3806 10.2282 68.3977 10.2282C71.5738 10.2282 72.0555 10.2575 72.1308 10.4629C72.1759 10.5948 72.2211 13.088 72.2211 16.0211C72.2211 20.67 72.191 21.3886 71.9802 21.5793C71.7845 21.7846 71.2426 21.8139 68.3224 21.8139C65.8688 21.8139 64.8602 21.7699 64.7248 21.6379C64.5893 21.5059 64.5441 20.0394 64.5441 15.9477ZM71.1674 20.7873V15.9477V11.1081H68.3073H65.4473V15.9477V20.7873H68.3073H71.1674Z" fill="#9EA0A5"/>
<path d="M52.2617 7.97873H72.2139C72.2139 6.52083 69.7199 3.60501 69.2211 3.11905C68.7223 2.63308 67.7247 0.689203 65.2306 0.203234C62.7366 -0.282734 62.2378 0.203234 60.7414 1.66114C59.245 3.11905 58.2474 3.60501 55.7534 3.60501C53.7581 3.60501 52.5943 6.52083 52.2617 7.97873Z" fill="#5C4035"/>
<path d="M56.2578 7.97873H32.3152C32.3152 6.52083 34.8092 3.60501 35.308 3.11905C35.8068 2.63308 36.8044 0.689203 39.2984 0.203234C41.7925 -0.282734 42.2913 0.203234 43.7877 1.66114C45.2841 3.11905 46.2817 3.60501 48.7757 3.60501C50.771 3.60501 55.9253 6.52083 56.2578 7.97873Z" fill="#5C4035"/>
<path d="M80.5977 11.4302H89.7027" stroke="#DFDADA" strokeWidth="1.2" stroke-linecap="round"/>
<path d="M79.3008 15.0967L92.3079 15.0967" stroke="#DFDADA" strokeWidth="1.2" stroke-linecap="round"/>
<path d="M81.8984 19.1719H91.0034" stroke="#DFDADA" strokeWidth="1.2" stroke-linecap="round"/>
<path d="M81.8984 23.2466H87.9684" stroke="#DFDADA" strokeWidth="1.2" stroke-linecap="round"/>
</svg>
