<svg width="93" height="34" viewBox="0 0 93 34" fill="none" xmlns="http://www.w3.org/2000/svg">
<path fill-rule="evenodd" clip-rule="evenodd" d="M68.671 23.0492H67.6127V23.0709H47.2162H26.8196V23.0492H25.0394C24.7111 23.0673 24.2592 23.0709 23.6435 23.0709H21.5511L21.521 14.7996L21.4759 6.51368L21.0393 6.07372C20.8135 5.83907 20.4372 5.56043 20.2114 5.47243C19.9254 5.36978 17.9385 5.32578 13.7086 5.35511L7.62729 5.39911L6.81444 5.83907C5.39948 6.60167 5.05326 7.12963 3.20177 11.3973C2.28355 13.5238 1.41049 15.5622 1.27501 15.9142C0.928796 16.8235 0.808374 22.1324 1.12448 22.543C1.32017 22.807 1.30512 22.8656 1.01911 23.0856C0.73311 23.3056 0.703005 23.5109 0.657846 24.9628C0.612688 26.3707 0.642793 26.6786 0.913744 27.2213C1.09438 27.5732 1.22985 28.1012 1.22985 28.3945C1.22985 28.7318 1.35027 29.0544 1.59112 29.3331L1.95239 29.7437L4.99305 29.8904L8.03372 30.037L8.42509 30.8436C8.92183 31.8849 10.0357 32.9554 11.1346 33.4541C11.8872 33.806 12.1732 33.85 13.4979 33.85C14.8376 33.85 15.0935 33.806 15.8461 33.4394C16.8697 32.9408 17.9385 31.8995 18.4653 30.873C18.8115 30.213 18.9169 30.1104 19.2932 30.1104C20.0308 30.1104 20.9189 29.6851 21.2501 29.1571C21.4608 28.8345 21.5511 28.4238 21.5511 27.8519V27.0306H22.3038H23.0564V27.9839C23.0564 29.0838 23.3123 29.6851 23.8843 29.9344C24.4864 30.1983 27.7679 30.169 28.3249 29.8904C28.8216 29.6411 29.1227 28.8491 29.0775 27.9252C29.0534 27.4465 29.0421 27.2239 29.1477 27.1205C29.2393 27.0306 29.419 27.0306 29.7549 27.0306H30.4323V27.9839C30.4323 29.0838 30.6882 29.6851 31.2602 29.9344C31.772 30.169 40.7585 30.1837 41.3606 29.9637C42.0229 29.7144 42.1584 29.4064 42.1735 28.1599V27.0306H43.0465H43.9196V28.3798C43.9196 29.4651 43.9798 29.9197 44.2508 30.5796C44.7324 31.7529 45.741 32.7795 46.9603 33.3661C47.8785 33.806 48.0742 33.85 49.3988 33.85C50.6482 33.85 50.9493 33.7914 51.7471 33.4394C52.8459 32.9408 53.8845 31.9582 54.4716 30.8436C54.8479 30.1104 54.8931 29.8904 54.8931 28.5412V27.0306H55.721H56.5489V28.4532C56.5489 29.7291 56.5941 29.993 56.9854 30.7996C57.5123 31.9142 58.5509 32.9114 59.7551 33.4541C60.4927 33.7914 60.8088 33.85 62.0432 33.85C63.3528 33.85 63.5635 33.806 64.4667 33.3807C65.6558 32.8088 66.5741 31.8849 67.131 30.7263C67.4923 29.993 67.5374 29.6997 67.5374 28.4532V27.0306H68.0191H68.4858L68.546 28.6585C68.6062 30.565 68.6965 30.697 69.976 30.697C70.9544 30.697 71.0748 30.521 71.0748 29.0544C71.0748 27.7492 70.8942 27.4266 70.1115 27.4119L69.5696 27.3972V25.6814C69.5696 23.8042 69.419 23.2616 68.8621 23.1296C68.7825 23.1081 68.7198 23.0827 68.671 23.0492ZM20.648 7.0563L20.2114 6.631L19.7749 6.20571L14.1452 6.22037C7.97351 6.22037 7.62729 6.26437 6.6037 7.1003C5.91127 7.65758 5.73064 7.99489 3.74367 12.5852C2.70503 14.9903 2.10291 16.5742 1.99755 17.2048C1.74165 18.6713 1.78681 21.7657 2.05776 22.103C2.37387 22.5137 2.34376 23.1589 1.98249 23.5109C1.53091 23.9509 1.54596 26.3413 1.99755 27.1919C2.16313 27.5292 2.28355 27.9839 2.25344 28.2478C2.23511 28.4384 2.22422 28.5516 2.27317 28.6247C2.34478 28.7316 2.54444 28.7529 3.03619 28.8051C3.48777 28.8638 4.75221 28.9371 5.83601 28.9811L7.80793 29.0691L7.89824 28.1159C8.00361 27.1333 8.4853 25.872 9.05731 25.1534C9.68953 24.3762 10.7733 23.6576 11.827 23.3349C15.2139 22.323 18.7363 24.6255 18.9621 28.0132L19.0373 29.0838H19.504C20.5426 29.0838 20.648 28.7465 20.648 25.6521V23.0856L19.0373 23.0416C17.848 23.0094 17.5288 23.0008 17.4431 22.8549C17.4116 22.8014 17.4116 22.7294 17.4116 22.631C17.4116 22.5326 17.4116 22.4606 17.4431 22.407C17.5288 22.2612 17.848 22.2525 19.0373 22.2204L20.648 22.1764V14.6237V7.0563ZM17.8782 27.2799C17.4568 25.8867 16.1923 24.5962 14.9279 24.2588C12.971 23.7456 11.4658 24.1269 10.1712 25.4467C9.25299 26.3707 9.01215 26.928 8.93688 28.3212C8.87667 29.4504 8.90678 29.5971 9.34331 30.477C9.85511 31.4889 10.5174 32.1195 11.6163 32.6328C12.5646 33.0874 14.2656 33.0874 15.2591 32.6475C17.3966 31.6942 18.5105 29.4064 17.8782 27.2799ZM23.0564 26.004V24.9775V23.9509H22.4091C22.0479 23.9509 21.7017 23.9949 21.6565 24.0535C21.5963 24.0975 21.5511 24.5668 21.5511 25.0801V26.004H22.3038H23.0564ZM28.0238 26.6053C28.0238 24.4788 27.9937 24.1122 27.783 24.0389C27.497 23.9362 24.5767 23.9362 24.3058 24.0535C24.1553 24.0975 24.1101 24.7575 24.1101 26.6053V29.0838H26.067H28.0238V26.6053ZM30.4323 26.004V24.9775V23.9509H29.77C29.0926 23.9509 28.9571 24.0242 29.0173 24.3468C29.0324 24.4495 29.0474 24.8601 29.0625 25.2708L29.0775 26.004H29.7549H30.4323ZM41.2402 26.6053C41.2703 24.7721 41.2251 24.1709 41.0897 24.0682C40.8789 23.9509 31.9978 23.9215 31.6817 24.0535C31.5311 24.0975 31.486 24.7575 31.486 26.6053V29.0838L36.348 29.0544L41.195 29.0104L41.2402 26.6053ZM45.7259 24.4495C45.9216 24.3175 46.0872 24.1562 46.0872 24.0829C46.0872 24.0095 45.2141 23.9509 44.1303 23.9509H42.1735V24.9775V26.004H43.3024H44.4163L44.883 25.3441C45.1389 24.9775 45.5152 24.5668 45.7259 24.4495ZM53.5684 26.5613C53.0566 25.5494 52.0331 24.6255 51.0847 24.3322C49.6096 23.8775 48.4956 23.9362 47.3065 24.5228C43.9798 26.18 44.0551 30.9609 47.4118 32.5595C48.5258 33.0874 50.1364 33.1314 51.2353 32.6475C52.2287 32.2075 53.2222 31.2689 53.6287 30.3597C54.1555 29.2158 54.1254 27.6759 53.5684 26.5613ZM58.2047 24.5522C58.4907 24.3028 58.7315 24.0682 58.7315 24.0242C58.7315 23.9802 57.3617 23.9509 55.7059 23.9509H52.6653L53.3426 24.6548C53.719 25.0508 54.1103 25.5054 54.2007 25.6814C54.3662 25.9747 54.4867 26.004 55.721 26.004H57.0456L57.3768 25.5054C57.5424 25.2268 57.9187 24.8015 58.2047 24.5522ZM66.6192 28.5705C66.6343 26.7666 65.716 25.3001 64.1054 24.5522C62.555 23.8335 61.2153 23.8629 59.7702 24.6401C58.28 25.4174 57.4671 26.7813 57.4671 28.4972C57.4671 29.7877 57.7983 30.6236 58.6563 31.5476C59.9809 32.9848 62.2539 33.4101 64.0301 32.5595C65.6709 31.7675 66.6042 30.345 66.6192 28.5705ZM68.5159 26.004V24.9775V23.9509H66.9353C65.987 23.9509 65.3548 24.0095 65.3548 24.0975C65.3548 24.1709 65.43 24.2442 65.5053 24.2442C65.5956 24.2442 65.9719 24.6401 66.3633 25.1241C67.0407 25.9894 67.0708 26.004 67.7933 26.004H68.5159ZM69.8706 29.817C70.1265 29.817 70.1717 29.7144 70.1717 29.0838C70.1717 28.4532 70.1265 28.3505 69.8706 28.3505C69.6147 28.3505 69.5696 28.4532 69.5696 29.0838C69.5696 29.7144 69.6147 29.817 69.8706 29.817ZM7.27745 8.50834C6.99145 8.64032 6.66029 8.9043 6.53987 9.09495C6.08828 9.7549 3.48415 15.9144 3.48415 16.2957C3.48415 16.8236 3.81531 17.2636 4.35721 17.4836C4.65827 17.6009 6.08828 17.6449 9.33969 17.6156L13.9007 17.5716L14.3372 17.0876L14.7737 16.6183V13.0106C14.7737 9.19761 14.6985 8.75765 14.0362 8.40568C13.8555 8.31768 12.5158 8.25902 10.7547 8.25902C8.30104 8.25902 7.68388 8.30302 7.27745 8.50834ZM13.6297 9.3736C13.8405 9.56425 13.8706 10.0922 13.8706 12.82C13.8706 14.7705 13.8104 16.1637 13.7201 16.3397C13.5695 16.6037 13.3588 16.6183 9.06874 16.6183C5.33564 16.6183 4.5529 16.589 4.49269 16.413C4.44753 16.2957 5.06469 14.7118 5.84744 12.8786C7.0065 10.2389 7.38282 9.52025 7.68388 9.35893C8.28599 9.03629 13.3136 9.05096 13.6297 9.3736ZM4.03149 22.85C3.98633 22.7327 3.98633 22.5274 4.03149 22.4101C4.10676 22.2195 4.52823 22.1902 6.86142 22.2195L9.58598 22.2635V22.63V22.9966L6.86142 23.0406C4.52823 23.0699 4.10676 23.0406 4.03149 22.85ZM12.1455 25.9599C11.0918 26.5025 10.5649 27.3531 10.5649 28.497C10.5649 30.7702 12.8981 32.0754 14.9603 30.9608C15.7882 30.5062 16.4355 29.4649 16.4355 28.585C16.4355 27.5878 15.6678 26.3852 14.7646 25.9159C14.2077 25.6373 12.7175 25.6666 12.1455 25.9599ZM14.8851 27.2358C15.3065 27.6904 15.3818 27.8664 15.3818 28.5117C15.3818 29.1863 15.3216 29.3183 14.7947 29.8316C14.3131 30.3155 14.1174 30.4035 13.5905 30.4035C12.7777 30.4035 12.1304 30.0809 11.7691 29.4796C10.5649 27.5584 13.3346 25.5786 14.8851 27.2358ZM46.7516 29.7144C46.0441 28.0719 47.0376 26.092 48.7386 25.7401C49.3407 25.6227 50.3944 25.7401 50.8911 25.9894C51.6287 26.3853 52.4115 27.6759 52.4115 28.4972C52.4115 29.3918 51.6137 30.6383 50.7707 31.0636C49.3106 31.7969 47.3537 31.1369 46.7516 29.7144ZM51.3578 28.6292C51.3578 27.8079 51.1169 27.3533 50.4697 26.928C49.6267 26.3707 48.3472 26.5907 47.8204 27.3826C46.9021 28.7318 47.8505 30.4037 49.5364 30.4037C50.0933 30.4037 50.274 30.3157 50.7707 29.8317C51.2825 29.3478 51.3578 29.1718 51.3578 28.6292ZM60.7182 25.9601C59.5441 26.5174 58.8366 27.9986 59.1828 29.2159C59.3634 29.8905 60.0709 30.7557 60.673 31.0637C62.8557 32.1636 65.3996 30.2571 64.8878 27.9253C64.7072 27.104 63.9997 26.1948 63.3073 25.9161C62.6299 25.6375 61.3354 25.6668 60.7182 25.9601ZM62.9611 26.8107C63.9244 27.3094 64.2706 28.5706 63.6986 29.4798C63.3374 30.0665 62.6901 30.4038 61.8923 30.4038C61.4106 30.4038 61.1698 30.3011 60.7483 29.9198C59.0624 28.4239 60.9289 25.7988 62.9611 26.8107Z" fill="#84CC16"/>
<path fill-rule="evenodd" clip-rule="evenodd" d="M8.91937 1.501C9.23548 1.42767 12.3966 1.16369 15.949 0.929048C19.5165 0.694401 23.2045 0.518415 24.1528 0.53308C25.8086 0.562411 25.929 0.591743 26.8322 1.0757C27.9612 1.66232 28.6536 2.39559 29.346 3.73014C29.7524 4.50741 29.9632 4.74206 30.3395 4.87405C30.6857 4.99137 37.023 5.03537 52.7381 5.03537C72.7583 5.03537 74.7001 5.05003 75.0162 5.27001C75.7538 5.7833 75.7839 6.07661 75.7839 12.2361V17.9703L76.3409 18.8355C76.8226 19.5981 76.8978 19.8621 76.958 20.874C77.0182 21.9593 77.0032 22.0473 76.6419 22.3992C76.1903 22.8392 75.8291 22.8685 75.0614 22.5312C74.6248 22.3406 73.9023 22.2672 71.6143 22.2232L68.7091 22.1646V22.2939H67.8059V22.1939H47.4094H27.0128V22.2939H25.8112C25.6812 22.2139 25.4984 22.1339 25.2968 22.0766C24.5291 21.8859 23.927 21.446 23.5808 20.83C23.355 20.4047 23.3098 19.6275 23.2496 13.1453L23.1744 5.94462L22.7077 5.38734C22.4669 5.07936 21.9852 4.69806 21.654 4.53674C21.0971 4.24343 20.7659 4.22877 14.4739 4.15544C8.15168 4.08211 7.86568 4.06745 7.65494 3.80347C7.11304 3.08486 7.82052 1.82364 8.91937 1.501ZM28.5181 4.22877C27.8407 2.98221 27.058 2.17561 26.1398 1.76498C25.1162 1.33968 24.2582 1.33968 16.5511 1.82364C9.31075 2.27827 8.64842 2.36626 8.528 3.01154C8.48284 3.24618 8.93442 3.26085 15.0007 3.30485C21.0218 3.34884 21.5637 3.36351 22.0454 3.62749C22.9185 4.06745 23.6862 4.90338 24.0023 5.72464C24.2883 6.47258 24.3033 6.88321 24.3033 13.292C24.3033 19.7888 24.3184 20.0821 24.6044 20.5367C24.77 20.8007 24.9205 21.0353 24.9356 21.05C24.9657 21.0793 36.0596 21.1233 49.592 21.1673L49.6673 21.1676C74.0982 21.2407 74.2043 21.241 75.0764 21.5486L75.9344 21.8566V20.8887C75.9344 20.0528 75.8592 19.8328 75.4828 19.2755C75.242 18.9235 74.9711 18.3956 74.8807 18.1023C74.7904 17.7943 74.7302 15.2718 74.7302 11.9721C74.7302 7.08853 74.7001 6.34059 74.4894 6.14994C74.2786 5.94462 72.0508 5.91529 52.2564 5.91529H30.2492L29.6621 5.57799C29.2256 5.34334 28.9245 4.99137 28.5181 4.22877ZM26.5636 13.6143C26.5636 10.6812 26.6088 8.17344 26.654 8.05612C26.7443 7.83614 27.1808 7.82147 30.4623 7.8508L34.1653 7.8948L34.2105 13.5263C34.2406 17.9406 34.1954 19.1872 34.0599 19.2898C33.9546 19.3485 32.3289 19.4072 30.4473 19.4072C27.5421 19.4072 27.0002 19.3778 26.8045 19.1725C26.5938 18.9819 26.5636 18.2633 26.5636 13.6143ZM33.3374 18.3806V13.541V8.7014H30.4774H27.6173V13.541V18.3806H30.4774H33.3374ZM36.2956 7.92413C36.2354 7.96812 36.1902 10.5346 36.1902 13.629C36.1902 18.6006 36.2203 19.2458 36.4311 19.3192C36.5665 19.3632 38.1772 19.4072 40.0287 19.4072C42.8887 19.4072 43.4306 19.3778 43.6263 19.1725C43.837 18.9819 43.8671 18.2779 43.8671 13.717C43.8671 10.8425 43.822 8.33476 43.7768 8.14411L43.6865 7.82147H40.0437C38.0266 7.82147 36.3407 7.86547 36.2956 7.92413ZM42.8134 13.541V18.3806H39.9534H37.0934V13.541V8.7014H39.9534H42.8134V13.541ZM45.6762 13.5546C45.6762 10.5042 45.7213 7.96705 45.7816 7.90839C45.8418 7.86439 47.5427 7.83506 49.5749 7.84973L53.2779 7.89372L53.323 13.4519C53.3381 17.4262 53.308 19.0688 53.1875 19.2008C53.0521 19.3621 52.3145 19.4061 49.6351 19.4061C47.6029 19.4061 46.1428 19.3474 45.9622 19.2594C45.6912 19.1128 45.6762 18.8928 45.6762 13.5546ZM52.45 18.3795L52.4198 13.5692L52.3747 8.77365L49.5598 8.72965L46.7299 8.70032V13.5399V18.3795H49.5899H52.45ZM55.2966 8.21647C55.1912 8.48044 55.1611 10.4456 55.1912 13.8773C55.2363 18.3503 55.2664 19.1422 55.4621 19.2595C55.7331 19.4355 62.3864 19.4502 62.6574 19.2889C62.7928 19.1862 62.838 17.9396 62.8079 13.5254L62.7627 7.89383L59.1049 7.84983L55.4621 7.8205L55.2966 8.21647ZM61.9348 13.54V18.3796H59.0748H56.2148V13.54V8.70043H59.0748H61.9348V13.54ZM64.798 13.541C64.798 10.5052 64.8432 7.96812 64.9034 7.92413C64.9486 7.86547 66.6345 7.82147 68.6516 7.82147C71.8277 7.82147 72.3094 7.8508 72.3847 8.05612C72.4298 8.18811 72.475 10.6812 72.475 13.6143C72.475 18.2633 72.4449 18.9819 72.2341 19.1725C72.0384 19.3778 71.4965 19.4072 68.5763 19.4072C66.1227 19.4072 65.1142 19.3632 64.9787 19.2312C64.8432 19.0992 64.798 17.6326 64.798 13.541ZM71.4213 18.3806V13.541V8.7014H68.5612H65.7012V13.541V18.3806H68.5612H71.4213Z" fill="#9EA0A5"/>
<path d="M79.9961 9.08789H89.1011" stroke="#DFDADA" strokeWidth="1.2" strokeLinecap="round"/>
<path d="M78.6992 12.7544L91.7064 12.7544" stroke="#DFDADA" strokeWidth="1.2" strokeLinecap="round"/>
<path d="M81.2969 16.8291H90.4019" stroke="#DFDADA" strokeWidth="1.2" strokeLinecap="round"/>
<path d="M81.2969 20.9038H87.3669" stroke="#DFDADA" strokeWidth="1.2" strokeLinecap="round"/>
</svg>
